<?xml version="1.0" encoding="utf-8"?>
<!-- Generator: Adobe Illustrator 24.0.0, SVG Export Plug-In . SVG Version: 6.00 Build 0)  -->
<svg version="1.1" id="_x31_" xmlns="http://www.w3.org/2000/svg" xmlns:xlink="http://www.w3.org/1999/xlink" x="0px" y="0px"
	 viewBox="0 0 512 512" style="enable-background:new 0 0 512 512;" xml:space="preserve">
<style type="text/css">
	.st0{fill:#FFFFFF;}
	.st1{opacity:0.3;}
</style>
<g>
	<path class="st0" d="M303.9,352.6c-1.5,0-3-0.2-4.5-0.6l-135.8-36.4c-9.3-2.6-14.9-12.2-12.4-21.5l17.1-63.9c0.6-2.3,3-3.7,5.4-3.1
		c2.3,0.6,3.7,3,3.1,5.4l-17.1,63.9c-1.2,4.7,1.6,9.5,6.2,10.8l135.8,36.4c4.7,1.2,9.5-1.5,10.7-6.2l6.9-25.4c0.6-2.3,3-3.7,5.4-3.1
		c2.3,0.6,3.7,3,3.1,5.4l-6.9,25.4C318.8,347.4,311.7,352.6,303.9,352.6L303.9,352.6z"/>
</g>
<g>
	<path class="st0" d="M343.8,299.9H203.3c-9.7,0-17.6-7.9-17.6-17.6V176.9c0-9.7,7.9-17.6,17.6-17.6h140.6c9.7,0,17.6,7.9,17.6,17.6
		v105.4C361.4,292,353.5,299.9,343.8,299.9z M203.3,168.1c-4.8,0-8.8,3.9-8.8,8.8v105.4c0,4.8,3.9,8.8,8.8,8.8h140.6
		c4.8,0,8.8-3.9,8.8-8.8V176.9c0-4.8-3.9-8.8-8.8-8.8L203.3,168.1L203.3,168.1z"/>
</g>
<g>
	<path class="st0" d="M229.6,220.9c-9.7,0-17.6-7.9-17.6-17.6s7.9-17.6,17.6-17.6s17.6,7.9,17.6,17.6S239.3,220.9,229.6,220.9z
		 M229.6,194.5c-4.8,0-8.8,3.9-8.8,8.8c0,4.8,3.9,8.8,8.8,8.8s8.8-3.9,8.8-8.8C238.4,198.4,234.5,194.5,229.6,194.5z"/>
</g>
<g>
	<path class="st0" d="M190.7,290.5c-1.1,0-2.2-0.4-3.1-1.3c-1.7-1.7-1.7-4.5,0-6.2l41.5-41.5c5-5,13.7-5,18.6,0l12.4,12.4l34.2-41
		c2.5-3,6.1-4.7,10-4.7h0.1c3.8,0,7.5,1.7,10,4.6l45.9,53.6c1.6,1.8,1.4,4.6-0.5,6.2c-1.8,1.6-4.6,1.4-6.2-0.5l-45.9-53.6
		c-0.9-1-2-1.5-3.3-1.5c-0.9-0.1-2.5,0.6-3.4,1.6l-37.3,44.7c-0.8,0.9-1.9,1.5-3.2,1.6c-1.2,0.1-2.4-0.4-3.3-1.3l-15.8-15.8
		c-1.7-1.7-4.6-1.7-6.2,0l-41.5,41.5C193,290.1,191.8,290.5,190.7,290.5L190.7,290.5z"/>
</g>
<g class="st1">
	<path class="st0" d="M486.1,4c12.1,0,21.9,9.8,21.9,21.9v460.1c0,12.1-9.8,21.9-21.9,21.9H25.9C13.8,508,4,498.2,4,486.1V25.9
		C4,13.8,13.8,4,25.9,4H486.1 M486.1,0H25.9C11.6,0,0,11.6,0,25.9v460.1C0,500.4,11.6,512,25.9,512h460.1
		c14.3,0,25.9-11.6,25.9-25.9V25.9C512,11.6,500.4,0,486.1,0L486.1,0z"/>
</g>
</svg>
