<?xml version="1.0" encoding="utf-8"?>
<!-- Generator: Adobe Illustrator 24.0.0, SVG Export Plug-In . SVG Version: 6.00 Build 0)  -->
<svg version="1.1" id="Layer_1" xmlns="http://www.w3.org/2000/svg" xmlns:xlink="http://www.w3.org/1999/xlink" x="0px" y="0px"
	 viewBox="0 0 612 792" style="enable-background:new 0 0 612 792;" xml:space="preserve">
<style type="text/css">
	.st0{clip-path:url(#SVGID_2_);}
	.st1{fill:#FDFDFD;}
	.st2{fill:#B8B8B8;}
	.st3{fill:#D0D0D0;}
	.st4{fill:#C0C0C0;}
	.st5{fill:#A4A4A4;}
	.st6{fill:#C7C7C7;}
	.st7{fill:#CCCCCC;}
	.st8{fill:#9A9A9A;}
	.st9{fill:#737373;}
	.st10{fill:#D9D9D9;}
	.st11{fill:#D2D2D2;}
	.st12{fill:#B2B2B2;}
	.st13{fill:#D5D5D5;}
	.st14{fill:#AFAFAF;}
	.st15{fill:#DEDEDE;}
	.st16{fill:#DCDCDC;}
</style>
<g>
	<defs>
		<rect id="SVGID_1_" x="106" y="266" width="288" height="238"/>
	</defs>
	<clipPath id="SVGID_2_">
		<use xlink:href="#SVGID_1_"  style="overflow:visible;"/>
	</clipPath>
	<g class="st0">
		<g>
			<path class="st1" d="M393.89,323.05c0,58.95-0.04,117.91,0.1,176.86c0.01,3.42-0.67,4.1-4.09,4.09
				c-93.27-0.12-186.54-0.12-279.8,0c-3.42,0-4.1-0.67-4.09-4.09c0.13-76.6,0.13-153.21,0-229.81c-0.01-3.42,0.67-4.1,4.09-4.09
				c93.27,0.12,186.54,0.12,279.8,0c3.42,0,4.15,0.66,4.1,4.09c-0.23,15.65-0.1,31.31-0.1,46.96c-0.29-0.09-0.59-0.14-0.89-0.15
				c-0.33-0.6-0.66-1.2-0.99-1.8c-0.1-2.04-1.44-3.17-3.05-4.09l0-0.04c0.02-1.21-0.79-1.56-1.75-2.05
				c-4.61-2.35-9.58-3.43-14.58-4.56c-16.22-3.68-32.41-7.55-48.6-11.34c-9.58-2.78-19.24-5.2-29.06-6.95
				c-0.64-0.04-1.28-0.09-1.92-0.13c-0.69-0.27-1.38-0.55-2.07-0.82c-0.67-0.02-1.33-0.03-2-0.05c-1.48-1.06-3.25-0.99-4.94-1.24
				c-3.37-2.43-7.46-2.52-11.29-3.26c-12.91-2.49-25.26-7.86-38.71-7.51c-4.37,0.09-8.63-1.57-13.04-0.79
				c-2.66-0.03-5.33-0.07-7.99-0.1c-2.66-0.02-5.32-0.04-7.98-0.06c-0.33-0.01-0.67-0.02-1-0.03c-0.98-0.02-1.95-0.04-2.93-0.06
				c-2.69-0.11-5.27-1.32-8.02-0.76c-1.67-0.02-3.34-0.05-5.02-0.07c-0.35,0.01-0.69,0.01-1.04,0.02
				c-4.72-0.14-9.43-0.27-14.15-0.41c-7.04-1.15-14.15-0.59-21.22-0.75c-7.03-0.16-10.68,3-12.52,10.06
				c-0.33,1.09-0.78,2.16-0.98,3.28c-2.62,15.05-5.36,30.07-7.71,45.16c-1.12,7.15-3.35,14.14-3.31,21.47
				c-0.11,4.74-2.87,9.06-2.15,13.92c-1.5,1.48-0.92,3.31-0.83,5.06c0.03,0.35,0.05,0.7,0.08,1.05c-0.7,1.65-1.76,3.24-2.06,4.97
				c-3.71,21.46-7.34,42.94-10.88,64.43c-0.33,1.97-1.11,4.22,0.67,6.05c-0.13,5.89,4.14,8.35,8.56,10.18
				c25.01,10.3,50.09,20.42,75.16,30.59c3.38,1.37,6.77,2.5,10.52,2.81c33.98,2.78,67.95,5.71,101.92,8.57
				c13.26,1.12,26.51,2.27,39.78,3.25c4.74,0.35,9.38-0.08,12.06-4.98c2.62-1.12,2.56-3.76,2.97-5.87
				c2.46-12.56,4.85-25.14,7.01-37.75c1.83-10.74,4.75-21.33,5.04-32.31c2.98-5.61,2.53-11.89,3.52-17.89
				c0.41-1.08,1.01-2.12,1.21-3.24c3.1-17.41,6.02-34.85,9.27-52.23C390.42,338.73,390.81,330.6,393.89,323.05z"/>
			<path class="st2" d="M393.01,316.9c0.3,0.02,0.6,0.07,0.89,0.15c0,2,0,4,0,6c-3.08,7.55-3.47,15.68-4.94,23.57
				c-3.25,17.38-6.17,34.82-9.27,52.23c-0.2,1.12-0.8,2.16-1.21,3.24c-0.84,0.31-1.67,0.61-2.5,0.92c-0.44-2.12,0.63-4.01,0.95-6.01
				c1.33-2.15,1.8-4.53,1.96-7.01c0.01-1,0.03-1.99,0.04-2.99c1.16-0.73,0.96-1.9,0.97-3.01c0.01-1,0.02-1.99,0.03-2.99
				c0.8-0.44,0.97-1.18,0.96-2.01c0.02-0.99,0.03-1.99,0.05-2.98c0.8-0.44,0.97-1.18,0.95-2.01c0.01-1,0.01-1.99,0.02-2.99
				c0.01-0.66,0.01-1.33,0.02-1.99c0.01-0.67,0.01-1.33,0.02-2c2.07-4.1,0.07-8.84,2.02-12.96c1.29-0.09,1.94-0.75,1.9-2.06
				c0.02-1.32,0.04-2.64,0.06-3.97c1.4-2.13,1.74-4.56,1.94-7.02c0.02-1.32,0.04-2.65,0.06-3.97c1.16-0.74,0.96-1.91,0.97-3.01
				c0.01-0.66,0.02-1.32,0.03-1.98c1.16-0.74,0.96-1.91,0.96-3.02c0.01-0.66,0.01-1.32,0.02-1.98c1.46-1.06,0.88-2.62,0.99-4.01
				C390.84,320.73,390.97,318.48,393.01,316.9z"/>
			<path class="st3" d="M385.9,348.03c-0.02,1.32-0.04,2.64-0.06,3.97c-1.28,0.09-1.93,0.76-1.9,2.06
				c-1.95,4.12,0.05,8.86-2.02,12.96c-0.73,0.14-1.72,0.12-1.5,1.21c0.07,0.35,0.97,0.53,1.48,0.79c-0.01,0.66-0.01,1.33-0.02,1.99
				c-1.12,0.1-2.4-0.15-2.85,1.38c-3.53,12.01-10.34,22.52-15.87,33.58c-3.79,7.58-8.91,14.65-14.33,21.22
				c-4.79,5.81-9.3,11.74-13.56,17.92c-2.89,4.21-5.73,8.65-9.44,12.06c-4.05,3.71-7.83,7.63-11.39,11.74
				c-8.7,10.05-17.88,18.52-32.82,16.17c-3.71-0.58-7.9-1.24-11.64,0.83c-2.66-1.28-5.33,0.22-8,0c-1.64-1.62-2.59-1.12-3,0.99
				c-0.33,0-0.66,0-0.99-0.01c-6.97-4.59-14.32-5-21.98-1.98c-1,0-2,0-2.99-0.01c-3.71-3.85-7.89-2.02-12-0.99
				c-1.11,0.05-2.31-0.18-3,1.05c-3.33-0.32-6.81,0.73-9.99-1.04c-0.13-2.05,0.71-3.04,2.89-3.01c13.89,0.19,27.81-0.71,41.65,0.79
				c12.83,1.39,22.65-3.97,31.34-12.59c4.09-4.05,7.59-8.64,12.09-12.35c2.58-2.12,5.05-4.53,6.98-7.51
				c2.19-3.39,5.19-6.28,7.96-9.26c4.81-5.15,10.28-9.79,14.44-15.41c5.11-6.91,9.36-14.45,14.81-21.17
				c6.24-7.7,10.25-16.86,15.77-25.04c5.07-7.52,7.81-16.24,12.14-24.04c5.64-10.15,8.89-21.26,14.37-31.39
				c0.78-1.44,1.35-2.97,2.73-4.09c2.8-2.27,1.91-3.92-0.87-5.68c-4.76-3.02-10.42-3.02-15.42-5.12c-0.43-0.8-1.18-0.98-2-1
				c0-0.33,0-0.67,0-1c1.72-2.06,3.39-0.19,4.97,0.18c5.75,1.33,11.09,4.18,17.07,4.73c0,0,0,0.04,0,0.04
				c-0.25,2.3-0.13,4.33,3.05,4.09c0.33,0.6,0.66,1.2,0.99,1.8c-2.04,1.58-2.16,3.83-2.13,6.13c-2.73,0.74-2.37,2.25-0.99,4.01
				c-0.01,0.66-0.01,1.32-0.02,1.98c-2.09,0.44-2.6,1.39-0.96,3.02c-0.01,0.66-0.02,1.32-0.03,1.98c-2.1,0.43-2.61,1.38-0.97,3.01
				c-0.02,1.32-0.04,2.65-0.06,3.97C385.09,342.77,384.52,345.13,385.9,348.03z"/>
			<path class="st2" d="M172.86,270.8c4.72,0.14,9.43,0.27,14.15,0.41c-0.18,1.46-1.13,1.89-2.45,1.88c-2-0.02-4-0.05-5.99,0.02
				c-5.62,0.19-7.26,3.02-4.37,7.68c0.98,1.57,0.84,3.18,0.83,4.81c-0.08,12.42-1.67,24.79-1.84,37.18
				c-0.22,15.82-1.21,31.65-0.16,47.48c0.37,5.5,0.44,11.01,0.53,16.53c0.21,13.05,2.02,26,3.53,38.95
				c0.88,7.53,1.19,15.12,2.79,22.59c1.78,8.28,2.32,16.86,6.14,24.63c-3.17-0.57-5.69-2.62-8.59-3.79
				c-1.41-0.57-2.85-2.16-4.39-0.18c-1.57-0.21-2.98-0.77-4.03-2.02c-0.23-3.35-2.73-2.96-4.97-3.02
				c-1.66-13.75-3.82-27.46-4.84-41.25c-1.21-16.36-2.1-32.76-2.18-49.19c-0.11-20.42-0.04-40.83,1.13-61.21
				c0.43-7.56,1.62-15.09,2.17-22.67c0.29-4.04,1.5-7.7-1.92-11.04c-1.55-1.51-1.42-3.29,1.01-4.19c1.03-0.38,1.58-1.17,1.64-2.27
				C164.96,271.37,169.18,273.55,172.86,270.8z"/>
			<path class="st4" d="M186.03,472.95c-3.82-7.77-4.36-16.35-6.14-24.63c-1.6-7.47-1.91-15.06-2.79-22.59
				c-1.51-12.95-3.32-25.9-3.53-38.95c-0.09-5.52-0.17-11.03-0.53-16.53c-1.05-15.83-0.05-31.66,0.16-47.48
				c0.17-12.39,1.75-24.76,1.84-37.18c0.01-1.63,0.15-3.24-0.83-4.81c-2.9-4.66-1.25-7.49,4.37-7.68c1.99-0.07,3.99-0.04,5.99-0.02
				c1.32,0.01,2.27-0.42,2.45-1.88c0.35-0.01,0.69-0.01,1.04-0.02c2.79,3.21-3.92,4.86-1.37,7.82c2.16,2.51,3.77,5.05,3.35,8.49
				c-0.2,1.64-0.41,3.27-0.61,4.91c-0.12,0.98-0.34,1.96-0.37,2.95c-0.35,16.35-1.19,32.71-0.87,49.05
				c0.31,16.29,1.37,32.59,2.45,48.87c1.16,17.5,5.44,34.62,5.45,52.19c0,1.97,0.55,3.92,1.95,5.48c0,1,0,2,0,3
				c-2.68,0.33-1.81,2.43-1.99,4c0,1.66-0.01,3.33-0.01,4.99c-1.01,0.66-1.02,1.33-0.01,2c0,1,0.01,2,0.01,3
				c-0.01,0.33-0.01,0.66-0.01,0.99c-2.02,0.11-2,1.56-1.98,3.01c-0.04,1.11,0.17,2.31-1.05,3.01c-0.65,0-1.31,0.01-1.96,0.01
				c-0.74-1.1-1.26-2.84-2.99-1C187.21,473.92,186.47,473.74,186.03,472.95z"/>
			<path class="st5" d="M172.86,270.8c-3.68,2.76-7.9,0.57-11.8,1.3c-1.67,0-3.33,0-5,0c-1.5,0-3-0.05-4.49,0.01
				c-5.53,0.2-7.13,2.79-4.47,7.47c0.8,1.41,0.78,2.81,1,4.27c0.67,4.58-0.92,8.97-1.33,13.43c-1.08,11.69-1.76,23.43-2.42,35.11
				c-0.77,13.65-3.42,27.4-0.51,41.13c0.08,0.38-0.25,1-0.58,1.3c-1.92,1.77-1.29,4.1-1.12,6.13c0.73,8.69,0.87,17.41,1.68,26.12
				c1.55,16.61,2.53,33.29,4.24,49.9c-7.92-1.46-12.63-5.23-12.96-10.59c-1.07-17.21-2.39-34.4-2.05-51.67
				c0.12-6.16,0.07-12.32-0.02-18.47c-0.02-1.51,0.71-3.27-1.25-4.91c-0.28,0.94-0.64,1.63-0.66,2.33
				c-0.26,8.87-0.98,17.76-0.58,26.61c0.72,15.97,0.39,32.01,2.76,47.89c0.14,0.91,0.98,1.97-0.41,2.55
				c-1.19,0.5-2.35,0.19-3.15-0.81c-0.94-1.18-1.57-2.52-1.65-4.09c-0.32-6.05-0.74-12.1-0.98-18.16
				c-0.18-4.49,0.28-9.03-0.25-13.46c-1.57-13.1-0.72-26.21-0.39-39.31c0.06-2.47-0.44-3.69-2.26-4.79
				c-0.03-0.35-0.05-0.7-0.08-1.05c3.12-1.22,2.24-3.09,0.83-5.06c-0.71-4.86,2.05-9.19,2.15-13.92c2.17-0.24,1.82-1.9,2-3.37
				c0.24-1.96,0.65-3.9,1.02-5.85c0.17-0.85,0.37-1.48,1.61-0.96c2.18,0.92,2.26,0.81,2.32-1.61c0.19-7.41-0.13-14.87,0.64-22.22
				c1.02-9.67,2.94-19.23,4.36-28.86c0.34-2.31,2.28-4.69,0.05-7.04c1.84-7.06,5.49-10.22,12.52-10.06
				C158.72,270.21,165.82,269.65,172.86,270.8z M132.59,348.74c-0.3,0.01-0.6,0.01-0.9,0.02c0,6.18,0,12.37,0,18.55
				c0.3-0.01,0.6-0.01,0.9-0.02C132.59,361.11,132.59,354.93,132.59,348.74z"/>
			<path class="st6" d="M198.03,450.95c-1.41-1.56-1.95-3.51-1.95-5.48c-0.01-17.57-4.29-34.68-5.45-52.19
				c-1.08-16.28-2.14-32.58-2.45-48.87c-0.31-16.34,0.52-32.7,0.87-49.05c0.02-0.99,0.24-1.97,0.37-2.95
				c0.21-1.64,0.42-3.27,0.61-4.91c0.42-3.44-1.19-5.99-3.35-8.49c-2.56-2.96,4.16-4.62,1.37-7.82c1.67,0.02,3.34,0.05,5.02,0.07
				c2.37,3.39,5.2,2.03,8.02,0.76c0.98,0.02,1.95,0.04,2.93,0.06c0.32,0.67,0.65,0.72,1,0.03c2.66,0.02,5.32,0.04,7.98,0.06
				c-0.27,2.17-1.92,1.91-3.4,1.93c-3.03,0.04-5.82,1.11-8.69,1.89c-3.18,0.86-3.31,2.41-1.03,4.45c2.57,2.3,3.04,5.2,3.23,8.51
				c0.32,5.68-1.14,11.18-1.11,16.82c0.09,20.81-0.75,41.68,1.22,62.41c1.07,11.23,1.97,22.39,1.86,33.65
				c-0.01,0.72,0.62,1.45,0.95,2.17c0,0.33,0,0.66-0.01,1c0,0.33-0.01,0.67-0.01,1c0,1,0,2,0,3c0,0.33,0,0.66-0.01,0.99
				c-1.27,0.21-2.5,0.44-0.98,2.01c0,0.67-0.01,1.33-0.01,2c-1,1.16-2.68,2.16-1.01,3.99c0,1.33,0.01,2.67,0.01,4
				c-0.01,0.33-0.01,0.66-0.01,0.99c-1.26,0.21-2.5,0.43-0.99,2c0,0.33,0,0.66,0.01,1c-0.33,1-0.67,2-1,3c-0.33,1-0.66,2.01-1,3.01
				c0,1,0,1.99,0,2.99c-0.95,1.54-1.11,3.25-1,5c0,1,0,1.99-0.01,2.99c-1.17,0.72-0.97,1.9-0.99,3.01c0,1.66-0.01,3.33-0.01,4.99
				C198.7,450.95,198.36,450.95,198.03,450.95z"/>
			<path class="st7" d="M206.03,403.99c-0.33-0.72-0.96-1.45-0.95-2.17c0.11-11.26-0.79-22.42-1.86-33.65
				c-1.98-20.73-1.13-41.59-1.22-62.41c-0.02-5.64,1.43-11.14,1.11-16.82c-0.19-3.31-0.65-6.21-3.23-8.51
				c-2.28-2.04-2.15-3.59,1.03-4.45c2.87-0.78,5.66-1.85,8.69-1.89c1.48-0.02,3.13,0.24,3.4-1.93c2.66,0.03,5.33,0.07,7.99,0.1
				c0.18,2.19-0.94,2.99-3,2.83c-1.86-0.15-3.57,0.33-5.28,1.1c-4.41,1.99-4.76,2.94-1.06,5.86c2.85,2.25,3.04,4.67,3.13,8.12
				c0.11,4.24-1.99,8.26-1.44,12c1.31,9.08,0.18,18.09,0.56,27.12c0.46,10.57,0.43,21.18-0.88,31.73c0,2,0,4,0,5.99
				c0,0.67,0,1.33,0,2c-1.46,1.05-0.86,2.62-0.99,4c0,0.67,0,1.33-0.01,2c-3.13,1.95-1.18,5.08-1.64,7.62
				c-1.16,6.4-2.65,12.78-2.35,19.36C207.65,402.94,206.99,403.61,206.03,403.99z"/>
			<path class="st8" d="M124.21,370.05c1.82,1.1,2.32,2.32,2.26,4.79c-0.33,13.09-1.18,26.21,0.39,39.31
				c0.53,4.43,0.07,8.98,0.25,13.46c0.24,6.06,0.66,12.1,0.98,18.16c0.08,1.57,0.71,2.91,1.65,4.09c0.8,1,1.96,1.31,3.15,0.81
				c1.38-0.58,0.54-1.64,0.41-2.55c-2.37-15.88-2.04-31.92-2.76-47.89c-0.4-8.84,0.32-17.74,0.58-26.61
				c0.02-0.7,0.39-1.39,0.66-2.33c1.96,1.64,1.23,3.41,1.25,4.91c0.09,6.16,0.14,12.32,0.02,18.47
				c-0.35,17.27,0.98,34.46,2.05,51.67c0.33,5.36,5.04,9.13,12.96,10.59c4,2,8,3.99,12,5.99c0.71,1.17,1.89,0.97,2.99,1.03
				c1.36,2.27,3.51,2.95,5.98,2.98c1.05,1.26,2.45,1.81,4.03,2.02c1.73,2.25,4.95,3.01,5.99,5.96c-1.29-0.21-2.72-0.14-3.86-0.67
				c-18.96-8.72-38.35-16.52-56.65-26.64c-2.09-1.15-4.3-1.71-6.59-2.12c-1.78-1.83-1-4.08-0.67-6.05
				c3.54-21.49,7.17-42.97,10.88-64.43C122.45,373.3,123.5,371.71,124.21,370.05z"/>
			<path class="st9" d="M111.94,445.5c2.29,0.41,4.5,0.97,6.59,2.12c18.3,10.12,37.7,17.92,56.65,26.64
				c1.15,0.53,2.57,0.46,3.86,0.67c0.3,0.05,0.6,0.07,0.9,0.05c4.91,4.28,10.88,6.3,17,8.01c1.03,0.32,2.06,0.65,3.08,0.97
				c0.2,0.2,0.44,0.34,0.71,0.43c0.44,1.07,0.93,2.01,2.26,0.95c0.66,0.04,1.33,0.07,1.99,0.11c0.37,1.51,1.6,1.42,2.76,1.51
				c8.41,0.66,16.81,1.38,25.23,1.98c15.02,1.07,30.06,1.85,45.05,3.22c5.12,0.47,10.39,0.04,15.32,1.17
				c7.12,1.62,14.27,2.49,21.49,2.45c7.09-0.04,14.13,0.73,21.17,0.79c7.95,0.07,16.08,3.2,23.93-0.66
				c-2.68,4.9-7.31,5.33-12.06,4.98c-13.27-0.98-26.52-2.13-39.78-3.25c-33.97-2.87-67.94-5.79-101.92-8.57
				c-3.74-0.31-7.13-1.43-10.52-2.81c-25.06-10.17-50.15-20.29-75.16-30.59C116.08,453.85,111.81,451.39,111.94,445.5z"/>
			<path class="st3" d="M213.02,361.02c1.31-10.55,1.34-21.17,0.88-31.73c-0.39-9.03,0.75-18.05-0.56-27.12
				c-0.54-3.74,1.56-7.76,1.44-12c-0.09-3.45-0.28-5.87-3.13-8.12c-3.69-2.91-3.34-3.87,1.06-5.86c1.71-0.77,3.42-1.25,5.28-1.1
				c2.06,0.16,3.18-0.64,3-2.83c4.41-0.78,8.67,0.89,13.04,0.8c-0.34,0.68-0.68,1.36-1.02,2.04c-0.34,0.33-0.67,0.66-1.01,0.99
				c-3.22-0.03-7.62-0.08-6.69,4.25c1.71,7.89-1.59,14.96-2.03,22.43c-0.65,10.87-4.64,21.28-4.26,32.28c0,1-0.01,2-0.01,2.99
				c-2.12,0.41-2.63,1.35-1,3c0,0.67,0,1.33,0,2c-3.2,0.66-1.57,3.24-1.99,5c0,1,0,2,0,3c0,0.33,0,0.66,0,1
				c-0.96,1.54-1.12,3.24-1,5c0,1-0.01,2-0.01,2.99C214.36,360.35,213.69,360.69,213.02,361.02z"/>
			<path class="st5" d="M359.94,495.91c-7.85,3.86-15.98,0.73-23.93,0.66c-7.03-0.06-14.08-0.83-21.17-0.79
				c-7.22,0.04-14.37-0.83-21.49-2.45c-4.94-1.13-10.2-0.7-15.32-1.17c-14.99-1.37-30.03-2.15-45.05-3.22
				c-8.41-0.6-16.82-1.33-25.23-1.98c-1.16-0.09-2.39,0-2.76-1.51c0.44-1.64,1.83-1.41,3.04-1.53c3.18,1.77,6.66,0.72,9.99,1.04
				c0.75,1.16,1.91,0.96,3.02,0.92c3.32,0.03,6.64,0.06,9.97,0.09c1.44,1.6,3.32,0.77,5.02,0.92c2.66,0.02,5.31,0.05,7.97,0.07
				c1.66,1.45,3.34,1.42,5.03,0.05c2.93,0.91,5.94,1.07,8.98,0.96c1.42,1.61,3.31,0.75,5,0.93c2.33,0.01,4.66,0.01,6.99,0.02
				c1,0.02,1.99,0.03,2.99,0.05c0.75,1.14,1.91,0.94,3.02,0.92c4.32,0.03,8.64,0.06,12.96,0.09c0.76,1.13,1.92,0.93,3.02,0.92
				c1,0.01,2,0.01,2.99,0.02c7.1,0.32,14.24,0.65,21.28,1.3c12.71,1.18,25.39,1.81,38.13,1.78c3.3-0.01,5.94-1.4,6.3-4.4
				c0.6-4.92,2.51-9.63,2.27-14.65c0.34-1.99,0.69-3.99,1.03-5.98c1.12-0.75,0.94-1.91,0.96-3.01c0.35-2.33,0.69-4.65,1.04-6.98
				c1.13-0.75,0.93-1.92,0.96-3.01c0.01-0.66,0.03-1.32,0.04-1.98c0.78-0.46,0.94-1.2,0.92-2.02c0.03-0.99,0.05-1.98,0.08-2.97
				c1.11-0.76,0.93-1.92,0.94-3.02c0.02-0.99,0.04-1.98,0.06-2.98c0.78-0.46,0.94-1.2,0.93-2.02c0.02-0.99,0.05-1.99,0.07-2.98
				c1.11-0.75,0.94-1.91,0.95-3.01c0.02-0.66,0.04-1.32,0.06-1.98c1.1-0.77,0.93-1.92,0.9-3.03c0.03-0.99,0.06-1.98,0.1-2.97
				c0.78-0.46,0.93-1.2,0.9-2.03c0.02-1.32,0.04-2.65,0.06-3.97c0.33-0.34,0.65-0.67,0.98-1.01c0.35,0,0.7,0,1.05,0
				c-0.29,10.98-3.21,21.57-5.04,32.31c-2.15,12.62-4.54,25.19-7.01,37.75C362.5,492.15,362.56,494.79,359.94,495.91z"/>
			<path class="st8" d="M139.12,280.11c2.23,2.35,0.29,4.73-0.05,7.04c-1.42,9.63-3.34,19.19-4.36,28.86
				c-0.78,7.35-0.46,14.81-0.64,22.22c-0.06,2.42-0.13,2.52-2.32,1.61c-1.24-0.52-1.44,0.11-1.61,0.96
				c-0.38,1.94-0.79,3.88-1.02,5.85c-0.18,1.47,0.17,3.13-2,3.37c-0.04-7.33,2.2-14.32,3.31-21.47c2.35-15.09,5.1-30.12,7.71-45.16
				C138.34,282.27,138.79,281.2,139.12,280.11z"/>
			<path class="st7" d="M388.96,310.97c-5.98-0.55-11.32-3.4-17.07-4.73c-1.58-0.37-3.26-2.24-4.97-0.18c-0.67,0-1.33,0-2,0
				c-9.33-2.66-18.65-5.33-27.98-7.99c-0.67,0-1.33,0-2-0.01c-0.43-0.81-1.18-0.98-2-0.99c-0.67,0-1.33,0-2-0.01
				c-1.39-1.36-3.23-1.58-5-1.99c-1.1-0.04-2.28,0.17-3.01-0.99c0.36-0.36,0.73-0.71,1.09-1.07c16.2,3.8,32.38,7.66,48.6,11.34
				c5,1.13,9.97,2.21,14.58,4.56C388.17,309.42,388.98,309.76,388.96,310.97z"/>
			<path class="st10" d="M233.02,275.09c0.34-0.68,0.68-1.36,1.02-2.04c13.45-0.35,25.81,5.02,38.71,7.51
				c3.83,0.74,7.92,0.83,11.29,3.26c0.65,0.76,1.29,1.51,1.94,2.26c-3.24,0.41-5.95-1.55-9-2c-5.35,0.29-10.33-1.58-15.21-3.21
				C252.39,277.73,243.12,274.46,233.02,275.09z"/>
			<path class="st11" d="M324.02,293.01c-0.36,0.36-0.73,0.71-1.09,1.07c-6.29-0.01-11.9-3.05-17.98-4c-0.67,0-1.33,0-2-0.01
				c-0.43-0.81-1.18-0.98-2-0.99c-2-0.34-3.88-1.36-5.99-1.01c0-0.67,0-1.35,0-2.02C304.78,287.82,314.44,290.23,324.02,293.01z"/>
			<path class="st12" d="M374.96,419.98c-0.35,0-0.7,0-1.05,0l-0.1,0.05c0.01-0.36,0.02-0.71,0.03-1.07c0-4.35,0.05-8.7,1.11-12.96
				c0.77-0.45,0.95-1.19,0.97-2.01c0.01-0.33,0.03-0.66,0.05-0.98c0.83-0.31,1.67-0.61,2.5-0.92
				C377.48,408.08,377.93,414.37,374.96,419.98z"/>
			<path class="st4" d="M201.09,272.01c-2.82,1.27-5.64,2.64-8.02-0.76C195.82,270.69,198.4,271.9,201.09,272.01z"/>
			<path class="st8" d="M124.96,363.95c1.41,1.96,2.29,3.84-0.83,5.06C124.05,367.26,123.46,365.43,124.96,363.95z"/>
			<path class="st6" d="M392.01,315.11c-3.17,0.24-3.29-1.79-3.05-4.09C390.57,311.94,391.91,313.06,392.01,315.11z"/>
			<path class="st11" d="M285.97,286.08c-0.65-0.75-1.29-1.5-1.94-2.26c1.69,0.25,3.46,0.17,4.94,1.24c0,0.34,0,0.68-0.01,1.02
				C287.97,286.08,286.97,286.08,285.97,286.08z"/>
			<path class="st10" d="M288.97,286.08c0-0.34,0-0.68,0.01-1.02c0.67,0.02,1.33,0.03,2,0.05c0,0.66,0,1.32-0.01,1.97
				C289.38,288.59,289.17,287.35,288.97,286.08z"/>
			<path class="st10" d="M294.96,286.06c0,0.67,0,1.35,0,2.02c-1.58,1.51-1.8,0.27-2-0.99c0.03-0.39,0.05-0.77,0.08-1.16
				C293.68,285.97,294.32,286.02,294.96,286.06z"/>
			<path class="st11" d="M293.04,285.93c-0.03,0.39-0.05,0.77-0.08,1.16c-0.67,0-1.33,0-2-0.01c0-0.66,0-1.32,0.01-1.97
				C291.66,285.38,292.35,285.65,293.04,285.93z"/>
			<path class="st4" d="M205.02,272.1c-0.35,0.69-0.69,0.64-1-0.03C204.35,272.08,204.69,272.09,205.02,272.1z"/>
			<path class="st7" d="M374.95,406c-1.06,4.26-1.11,8.61-1.11,12.96c-0.86,0.12-2.04-0.27-2.39,0.8c-0.35,1.09,0.76,1.03,1.45,1.21
				l0.02,0.02c-0.02,1.32-0.04,2.65-0.05,3.97c-1.31,0.23-2.49,0.52-0.9,2.03c-0.03,0.99-0.06,1.98-0.1,2.97
				c-1.29,0.05-1.93,0.73-1.97,2.01c-2.12,0.41-2.63,1.35-1,3c0,0.66,0,1.33-0.01,1.99c-2.33,0.34-2.81,2.17-2.92,4.01
				c-0.11,1.91-0.68,3.56-1.76,5.07c-6.42,8.96-13.11,17.74-19.21,26.92c-7.08,10.65-16.37,16.19-29.42,15.07
				c-2.81-0.24-5.95-1.13-8.63,0.9c-1,0-2,0-3,0c-1-1.28-2-1.28-3,0c-0.67,0-1.33,0-2,0c-0.31-0.55-0.61-1.57-0.94-1.59
				c-7.36-0.27-14.75-1.42-22.05,0.59c-1.11,0.04-2.31-0.17-3.01,1.05c-1-0.02-1.99-0.03-2.99-0.05c0-1,0-2,0-3
				c3.74-2.07,7.94-1.42,11.64-0.83c14.94,2.35,24.12-6.12,32.82-16.17c3.56-4.11,7.34-8.03,11.39-11.74
				c3.72-3.41,6.55-7.85,9.44-12.06c4.25-6.19,8.77-12.12,13.56-17.92c5.41-6.57,10.53-13.64,14.33-21.22
				c5.53-11.06,12.34-21.57,15.87-33.58c0.45-1.53,1.72-1.28,2.85-1.38c-0.01,1-0.01,1.99-0.02,2.99c-1.27,0.22-2.48,0.47-0.95,2.01
				c-0.02,0.99-0.03,1.99-0.05,2.98c-1.26,0.22-2.48,0.46-0.96,2.01c-0.01,1-0.02,1.99-0.03,2.99c-2.11,0.43-2.6,1.37-0.97,3.01
				c-0.01,1-0.03,1.99-0.04,2.99c-2.8,1.74-3.35,4.1-1.96,7.01c-0.32,2-1.39,3.89-0.95,6.01c-0.03,0.33-0.04,0.66-0.05,0.98
				C374.61,404.18,373.39,404.42,374.95,406z"/>
			<path class="st6" d="M376.92,396.99c-1.39-2.91-0.85-5.27,1.96-7.01C378.72,392.46,378.24,394.85,376.92,396.99z"/>
			<path class="st6" d="M385.9,348.03c-1.38-2.9-0.81-5.26,1.95-7.02C387.64,343.47,387.3,345.9,385.9,348.03z"/>
			<path class="st6" d="M389.88,327.04c-1.38-1.76-1.74-3.27,0.99-4.01C390.77,324.43,391.34,325.99,389.88,327.04z"/>
			<path class="st6" d="M388.9,332.04c-1.64-1.63-1.13-2.58,0.96-3.02C389.86,330.13,390.06,331.31,388.9,332.04z"/>
			<path class="st6" d="M387.91,337.04c-1.64-1.63-1.13-2.58,0.97-3.01C388.87,335.13,389.06,336.3,387.91,337.04z"/>
			<path class="st6" d="M378.91,387c-1.63-1.63-1.14-2.58,0.97-3.01C379.87,385.1,380.07,386.27,378.91,387z"/>
			<path class="st6" d="M380.91,376.01c-1.52-1.54-0.31-1.79,0.95-2.01C381.88,374.83,381.71,375.57,380.91,376.01z"/>
			<path class="st7" d="M381.9,369.01c-0.52-0.26-1.41-0.44-1.48-0.79c-0.23-1.08,0.77-1.07,1.5-1.21
				C381.91,367.68,381.9,368.35,381.9,369.01z"/>
			<path class="st6" d="M383.94,354.06c-0.03-1.3,0.62-1.98,1.9-2.06C385.88,353.31,385.22,353.98,383.94,354.06z"/>
			<path class="st6" d="M379.91,381c-1.52-1.55-0.31-1.79,0.96-2.01C380.88,379.82,380.71,380.56,379.91,381z"/>
			<path class="st13" d="M336.93,298.08c9.33,2.66,18.65,5.33,27.98,7.99c0.2,1.26,0.41,2.51,2,1c0.82,0.02,1.57,0.2,2,1
				c0.26,0.59,0.37,1.48,0.82,1.71c3.61,1.85,3.87,3.26,0.8,6.55c-3.43,3.67-5.64,8.48-7.61,13.28c-3.17,7.71-5.96,15.61-10.2,22.86
				c-4.31,7.37-8.52,14.8-12.81,22.18c-3.96,6.81-6.83,14.39-13.59,19.23c-0.65,0.46-1.56,1.18-1.58,1.8
				c-0.19,7.68-8.4,9.36-11.42,15.21c-1.74,3.37-3.44,7.53-6.9,10.12c-6.31,4.74-9.82,12.17-16.08,16.97
				c-4.32,3.31-7.28,7.99-11.14,11.61c-7.62,7.14-16.04,13.45-24.3,19.87c-6.64,5.16-13.58,9.59-22.63,9.56
				c-8.1-0.03-16.25-0.95-24.34,0.8c-2.69,0.58-5.3-0.24-6.89-2.89c6.35,1.02,10.77-0.61,12.46-7.66c0.96-4.02,3.3-8.28,7.44-9.41
				c8.72-2.37,14.12-9.6,21.62-13.56c7.91-4.18,13.04-11.8,20.82-16.06c0.81-0.44,1.42-1.34,2-2.12c3.81-5.1,7.9-10.06,13.61-12.98
				c3.37-1.72,6.12-4.28,7.15-7.25c2.44-7.05,8.74-10.78,13.06-15.98c6.94-8.34,11.23-18.65,19.66-25.77
				c0.35-0.3,0.45-0.88,0.7-1.31c4.89-8.55,9.72-17.13,14.68-25.63c3.83-6.55,6.68-13.61,10.24-20.31c1.89-3.56,2.91-7.09,6.86-8.86
				c2.47-1.11,1.79-2.82-0.01-3.56c-3.55-1.46-6.84-3.34-10.22-5.09C339.41,300.51,337.03,300.87,336.93,298.08z"/>
			<path class="st11" d="M201.03,476.92c1.59,2.65,4.2,3.48,6.89,2.89c8.09-1.75,16.24-0.83,24.34-0.8
				c9.05,0.03,15.98-4.4,22.63-9.56c8.27-6.42,16.69-12.73,24.3-19.87c3.86-3.62,6.82-8.3,11.14-11.61
				c6.26-4.81,9.76-12.23,16.08-16.97c3.45-2.59,5.16-6.76,6.9-10.12c3.02-5.85,11.23-7.53,11.42-15.21
				c0.02-0.62,0.93-1.34,1.58-1.8c6.77-4.84,9.63-12.42,13.59-19.23c4.3-7.38,8.5-14.81,12.81-22.18
				c4.24-7.25,7.03-15.14,10.2-22.86c1.97-4.79,4.19-9.61,7.61-13.28c3.07-3.29,2.81-4.7-0.8-6.55c-0.45-0.23-0.55-1.13-0.82-1.71
				c5,2.11,10.67,2.11,15.42,5.12c2.78,1.76,3.67,3.41,0.87,5.68c-1.39,1.12-1.95,2.64-2.73,4.09
				c-5.48,10.13-8.73,21.24-14.37,31.39c-4.33,7.79-7.07,16.52-12.14,24.04c-5.52,8.18-9.53,17.34-15.77,25.04
				c-5.45,6.72-9.7,14.26-14.81,21.17c-4.16,5.62-9.63,10.26-14.44,15.41c-2.78,2.98-5.77,5.87-7.96,9.26
				c-1.93,2.98-4.4,5.39-6.98,7.51c-4.51,3.7-8,8.29-12.09,12.35c-8.69,8.61-18.51,13.98-31.34,12.59
				c-13.84-1.5-27.76-0.6-41.65-0.79c-2.18-0.03-3.02,0.96-2.89,3.01c-1.21,0.12-2.6-0.11-3.04,1.53c-0.66-0.03-1.33-0.07-1.99-0.11
				c-0.36-1.27-1.18-1.42-2.26-0.95c-0.27-0.08-0.51-0.22-0.71-0.43c1.78-5.05-3.49-7.75-3.99-12.04c0-1-0.01-2-0.01-3
				c0-0.33,0.01-0.66,0.01-0.99c2.13-0.4,2.64-1.34,1-3c0-0.67,0.01-1.33,0.01-2c0.67-0.33,1.33-0.67,2-1
				c1.82,2.75,0.96,5.58,0.36,8.46C198.9,472.76,198.15,475.34,201.03,476.92L201.03,476.92z"/>
			<path class="st7" d="M257.99,487.97c-3.04,0.11-6.05-0.05-8.98-0.96c-1.66-1.62-3.34-1.59-5.03-0.05
				c-2.66-0.02-5.31-0.05-7.97-0.07c0-0.66-0.01-1.32-0.01-1.98c7.66-3.02,15.01-2.61,21.98,1.98
				C257.99,487.25,257.99,487.61,257.99,487.97z"/>
			<path class="st7" d="M231,485.97c-3.32-0.03-6.64-0.06-9.97-0.09c-0.01-0.65-0.01-1.31-0.02-1.97c4.11-1.03,8.29-2.85,12,0.99
				C232.18,484.94,231.41,485.12,231,485.97z"/>
			<path class="st6" d="M269.98,485.91c0,1,0,2,0,3c-2.33-0.01-4.66-0.01-6.99-0.02c-0.02-0.82-0.21-1.55-1-1.98
				c0-0.34,0-0.67,0-1.01C264.65,486.13,267.32,484.63,269.98,485.91z"/>
			<path class="st4" d="M231,485.97c0.41-0.84,1.18-1.02,2.01-1.06c1,0,2,0,2.99,0.01c0,0.66,0.01,1.32,0.01,1.98
				C234.32,486.74,232.44,487.57,231,485.97z"/>
			<path class="st4" d="M261.99,486.92c0.8,0.43,0.98,1.16,1,1.98c-1.69-0.18-3.57,0.67-5-0.93c0-0.36,0-0.72,0-1.08
				c0.33,0.01,0.66,0.01,0.99,0.01C259.98,486.91,260.99,486.91,261.99,486.92z"/>
			<path class="st4" d="M221.02,483.91c0.01,0.66,0.01,1.31,0.02,1.97c-1.11,0.04-2.27,0.24-3.02-0.92
				C218.71,483.73,219.91,483.96,221.02,483.91z"/>
			<path class="st7" d="M261.99,486.92c-1-0.01-2-0.01-3-0.02c0.41-2.11,1.36-2.61,3-0.99
				C261.99,486.24,261.99,486.58,261.99,486.92z"/>
			<path class="st11" d="M366.91,307.06c-1.59,1.51-1.8,0.27-2-1c0.67,0,1.33,0,2,0C366.91,306.4,366.91,306.73,366.91,307.06z"/>
			<path class="st12" d="M163.04,463.97c-1.09-0.06-2.28,0.14-2.99-1.03c-2.79-7.3-3.49-14.9-4.32-22.64
				c-1.72-16.12-2.91-32.28-3.49-48.43c-0.73-20.4-0.21-40.83,0.67-61.26c0.54-12.41,1.88-24.71,2.97-37.05
				c0.37-4.27,1.42-9.57-0.55-12.68c-2.54-4-1.25-6.01,0.72-8.78c1.67,0,3.33,0,5,0c-0.06,1.11-0.61,1.89-1.64,2.27
				c-2.44,0.91-2.57,2.68-1.01,4.19c3.42,3.34,2.21,6.99,1.92,11.04c-0.55,7.59-1.74,15.11-2.17,22.67
				c-1.17,20.38-1.23,40.8-1.13,61.21c0.09,16.43,0.97,32.83,2.18,49.19c1.02,13.79,3.18,27.5,4.84,41.25
				C163.72,463.94,163.38,463.96,163.04,463.97z"/>
			<path class="st5" d="M179.94,474.99c-0.3,0.02-0.6,0-0.9-0.06c-1.04-2.95-4.26-3.71-5.99-5.96c1.54-1.97,2.98-0.38,4.39,0.18
				c2.9,1.17,5.42,3.22,8.59,3.79c0.44,0.8,1.18,0.98,2,1.01c0.72,1.17,1.9,0.96,2.99,1c0.65,0,1.31-0.01,1.96-0.01
				c0,1,0,1.99,0,2.99C188.4,478.03,184.34,475.75,179.94,474.99z"/>
			<path class="st5" d="M163.04,463.97c0.34-0.01,0.68-0.03,1.01-0.04c2.23,0.06,4.74-0.33,4.97,3.02
				C166.55,466.92,164.4,466.24,163.04,463.97z"/>
			<path class="st7" d="M192.99,477.94c0-1,0-1.99,0-2.99c1.22-0.7,1.02-1.9,1.05-3.01c0.66,0,1.33,0,1.99,0
				c0.5,4.29,5.77,6.99,3.99,12.04c-1.03-0.32-2.06-0.65-3.08-0.97C197.14,480.13,194.35,479.59,192.99,477.94z"/>
			<path class="st7" d="M199.03,461.94c-0.67,0.33-1.33,0.67-2,1c-0.34,0-0.67,0-1.01,0c0-1.66,0.01-3.33,0.01-4.99
				c0.99,0,1.99-0.01,2.98-0.01c0.01,0.67,0.01,1.34,0.02,2.01C199.03,460.61,199.03,461.27,199.03,461.94z"/>
			<path class="st6" d="M199.02,457.93c-0.99,0-1.99,0.01-2.98,0.01c0.18-1.57-0.68-3.67,1.99-4c0.33,0,0.66,0,0.99,0
				C199.02,455.28,199.02,456.61,199.02,457.93z"/>
			<path class="st7" d="M199.02,453.95c-0.33,0-0.66-0.01-0.99-0.01c0-1,0-2,0-3c0.33,0,0.67,0,1,0c0.67,0,1.33,0,2,0
				c0,0.66,0,1.33,0,1.99C200.2,452.96,199.46,453.15,199.02,453.95z"/>
			<path class="st6" d="M196.03,471.93c-0.66,0-1.33,0-1.99,0c-0.02-1.45-0.04-2.9,1.98-3.01
				C196.02,469.93,196.03,470.93,196.03,471.93z"/>
			<path class="st7" d="M197.03,464.94c1.64,1.66,1.13,2.6-1,3c0-1-0.01-2-0.01-3C196.36,464.94,196.69,464.94,197.03,464.94z"/>
			<path class="st2" d="M191.02,474.96c-1.1-0.04-2.27,0.16-2.99-1C189.76,472.11,190.29,473.86,191.02,474.96z"/>
			<path class="st6" d="M197.03,464.94c-0.34,0-0.67,0-1.01,0c-1.01-0.67-1-1.34,0.01-2c0.34,0,0.67,0,1.01,0
				C197.03,463.6,197.03,464.27,197.03,464.94z"/>
			<path class="st14" d="M156.06,272.09c-1.97,2.77-3.26,4.78-0.72,8.78c1.97,3.11,0.93,8.41,0.55,12.68
				c-1.08,12.34-2.43,24.64-2.97,37.05c-0.88,20.42-1.4,40.86-0.67,61.26c0.58,16.15,1.77,32.31,3.49,48.43
				c0.83,7.74,1.53,15.34,4.32,22.64c-4-2-8-3.99-12-5.99c-1.71-16.61-2.69-33.29-4.24-49.9c-0.81-8.71-0.95-17.43-1.68-26.12
				c-0.17-2.03-0.79-4.36,1.12-6.13c0.33-0.3,0.66-0.92,0.58-1.3c-2.91-13.74-0.26-27.48,0.51-41.13
				c0.66-11.68,1.35-23.42,2.42-35.11c0.41-4.46,2-8.84,1.33-13.43c-0.22-1.47-0.19-2.86-1-4.27c-2.67-4.68-1.06-7.27,4.47-7.47
				C153.06,272.05,154.56,272.09,156.06,272.09z"/>
			<ellipse class="st8" cx="132.14" cy="358.03" rx="0.64" ry="13.12"/>
			<path class="st10" d="M336.93,298.08c0.1,2.79,2.47,2.44,4.17,3.31c3.38,1.75,6.67,3.63,10.22,5.09
				c1.79,0.74,2.48,2.45,0.01,3.56c-3.94,1.77-4.97,5.3-6.86,8.86c-3.56,6.7-6.41,13.75-10.24,20.31
				c-4.97,8.5-9.8,17.08-14.68,25.63c-0.25,0.43-0.34,1.02-0.7,1.31c-8.42,7.12-12.71,17.43-19.66,25.77
				c-4.33,5.2-10.63,8.93-13.06,15.98c-1.03,2.97-3.79,5.53-7.15,7.25c-5.71,2.92-9.8,7.88-13.61,12.98c-0.58,0.78-1.19,1.68-2,2.12
				c-7.78,4.26-12.91,11.88-20.82,16.06c-7.5,3.96-12.9,11.19-21.62,13.56c-4.15,1.13-6.48,5.39-7.44,9.41
				c-1.69,7.06-6.11,8.68-12.46,7.66c0,0,0,0,0,0c0.92-9.24,1.85-18.47,2.76-27.71c0.17-1.72,1.01-3.74-1.76-4.26c0-0.33,0-0.67,0-1
				c0.33-0.33,0.66-0.67,1-1c0-0.33,0-0.67,0-1c3.4-1.9,2.28-4.43,1-7c0-1.33,0-2.66,0-4c1.26-0.2,2.51-0.41,1-2c0-1.33,0-2.66,0-4
				c2.02-0.1,2.01-1.55,1.99-3c0-1,0-2,0-3c1.64-3.82,1.46-4.73-1-5c-0.34,0-0.67,0-1.01,0.01c0-0.67,0.01-1.33,0.01-2
				c0.33-0.33,0.67-0.66,1-1c1,0,1.99,0,2.99,0c0.98,0.65,1.06,1.63,0.92,2.65c-2.04,14.58-2.86,29.26-3.69,43.94
				c-0.09,1.66,0.25,3.11,1.53,3.94c1.32,0.86,2.16-0.29,2.61-1.43c2.72-6.92,6.51-13.46,7.61-20.96c0.28-1.89,0.8-3.79,2.29-4.83
				c6.47-4.51,8.73-14.26,18.39-14.81c0.4-0.02,1-0.52,1.12-0.92c1.16-3.91,4.87-4.71,7.58-6.88c6.81-5.45,13.55-11,20.43-16.38
				c2.93-2.3,5.63-5.68,6.84-9.13c0.95-2.7,2.02-5.19,4.2-6.34c3.86-2.04,4.4-7.38,9.06-8.46c0.68-0.16,1.12-1.56,1.57-2.45
				c1.54-3.05,3.42-6.36,5.42-8.57c4.39-4.85,7.39-10.53,10.99-15.76c5.74-8.34,10.72-17.25,15.07-26.47
				c2.03-4.3,3.91-8.96,8.23-11.55c4.02-2.41,2.32-3.96-0.42-5.57c-5.31-3.12-11.24-4.74-16.93-6.95c-2.48-0.96-5.58-0.95-6.9-3.96
				c6.08,0.95,11.69,3.99,17.98,4c0.73,1.16,1.91,0.95,3.01,0.99c0.91,2.55,2.68,2.96,5,1.99c0.67,0,1.33,0,2,0.01
				c0.2,1.26,0.42,2.51,2,0.99C335.6,298.07,336.27,298.07,336.93,298.08z"/>
			<path class="st10" d="M206.03,403.99c0.95-0.38,1.61-1.05,1.99-2c0.67,0,1.33,0,2,0c1.09,2.24,2.49,4.52-1,6
				c-0.04-1.29-0.7-1.97-1.99-2c-0.33-0.33-0.67-0.67-1-1C206.03,404.65,206.03,404.32,206.03,403.99z"/>
			<path class="st11" d="M201.03,450.95c-0.67,0-1.33,0-2,0c0-1.66,0.01-3.33,0.01-4.99c0.99,0,1.99-0.01,2.98-0.01
				C201.79,447.63,202.7,449.55,201.03,450.95z"/>
			<path class="st11" d="M204.03,430.96c0,1.33,0,2.66,0,4c-0.67,0.67-1.33,1.33-2,2c-0.02-0.82-0.2-1.57-1-2c0-1,0-1.99,0-2.99
				c0.82-0.03,1.56-0.21,1.99-1.01C203.37,430.96,203.7,430.96,204.03,430.96z"/>
			<path class="st11" d="M207.02,418.97c0,1,0,2,0,3c-1,0-2,0-3,0c0-1.33-0.01-2.67-0.01-4c0.67,0,1.33,0,2-0.01
				C206.35,418.3,206.69,418.64,207.02,418.97z"/>
			<path class="st7" d="M206.02,417.97c-0.67,0-1.33,0-2,0.01c-1.67-1.84,0-2.83,1.01-3.99c0.33,0,0.67,0,1.01-0.01
				C206.03,415.3,206.02,416.63,206.02,417.97z"/>
			<path class="st11" d="M205.03,424.97c0,1.33,0,2.66,0,4c-0.67,0-1.33,0-2,0c-0.33,0-0.67,0-1,0c0.33-1,0.67-2,1-3
				c0.33-0.33,0.66-0.66,0.99-1c0,0,0,0,0,0C204.36,424.97,204.7,424.97,205.03,424.97z"/>
			<path class="st7" d="M202.02,445.94c-1,0-1.99,0.01-2.98,0.01c0.02-1.1-0.18-2.28,0.99-3.01c0.67,0,1.33,0,2,0
				c0,0.33,0,0.67,0.01,1c0,0.33,0,0.67,0,1C202.03,445.28,202.02,445.61,202.02,445.94z"/>
			<path class="st11" d="M202.03,442.95c-0.67,0-1.33,0-2,0c0-1,0-1.99,0.01-2.99c0.66,0,1.33,0,1.99-0.01c0.8,0.43,0.98,1.18,1,2
				c0,0.33,0,0.67,0,1C202.69,442.95,202.36,442.95,202.03,442.95z"/>
			<path class="st11" d="M207.03,405.98c1.3,0.03,1.96,0.71,1.99,2c0,0.33,0,0.66,0,1c-1,0-2,0-3,0c0-1,0-2,0-3
				C206.36,405.98,206.7,405.98,207.03,405.98z"/>
			<path class="st7" d="M202.03,439.96c-0.66,0-1.33,0-1.99,0.01c-0.12-1.76,0.04-3.46,1-5c0.8,0.43,0.98,1.18,1,2
				C202.03,437.96,202.03,438.96,202.03,439.96z"/>
			<path class="st13" d="M205.03,424.97c-0.33,0-0.67,0-1,0c0-0.67-0.01-1.34-0.01-2c0-0.33,0.01-0.66,0.01-0.99c1,0,2,0,3,0
				C207.04,423.42,207.05,424.87,205.03,424.97z"/>
			<path class="st13" d="M206.03,408.98c1,0,2,0,3,0c0,0.67,0,1.33,0,2c-1,0-1.99,0-2.99,0c-0.01-0.34-0.02-0.67-0.03-1.01
				C206.02,409.64,206.03,409.31,206.03,408.98z"/>
			<path class="st7" d="M202.03,428.96c0.33,0,0.67,0,1,0c0,0.67,0,1.33,0,2c-0.43,0.8-1.17,0.98-1.99,1.01
				C201.37,430.97,201.7,429.96,202.03,428.96z"/>
			<path class="st7" d="M204.01,422.96c0,0.67,0.01,1.34,0.01,2c0,0,0,0,0,0c-0.33,0-0.67,0-1,0
				C201.51,423.39,202.75,423.17,204.01,422.96z"/>
			<path class="st7" d="M206.01,409.97c0.01,0.34,0.02,0.67,0.03,1.01c-0.33,0.33-0.67,0.66-1,1
				C203.51,410.41,204.74,410.18,206.01,409.97z"/>
			<path class="st13" d="M203.02,424.97c0.33,0,0.67,0,1,0c-0.33,0.33-0.66,0.66-0.99,1C203.03,425.63,203.03,425.3,203.02,424.97z"
				/>
			<path class="st7" d="M207.03,405.98c-0.34,0-0.67,0-1.01,0c0-0.33,0-0.67,0.01-1C206.36,405.31,206.7,405.65,207.03,405.98z"/>
			<path class="st13" d="M210.03,401.99c-0.67,0-1.33,0-2,0c-0.29-6.58,1.2-12.97,2.35-19.36c0.46-2.54-1.49-5.66,1.64-7.62
				c1.71,1.86,0.85,3.9,0.54,5.97c-0.6,3.99-1.03,8.01-1.54,12.01c0,1,0,2,0,3c-1.46,1.05-0.86,2.62-1,4
				C210.03,400.66,210.03,401.32,210.03,401.99z"/>
			<path class="st10" d="M211.03,393c0.5-4.01,0.94-8.02,1.54-12.01c0.31-2.07,1.17-4.12-0.54-5.97c0-0.67,0-1.33,0.01-2
				c0.66-0.33,1.33-0.67,1.99-1c0,0,0,0,0,0c2.05,5.19,0.18,10.26-0.76,15.28C212.91,389.18,214.5,392.22,211.03,393z"/>
			<path class="st13" d="M213.02,361.02c0.67-0.33,1.33-0.67,2-1c0,0,0.01,0,0.01,0c0,1.67,0,3.33,0,5c0,0.67,0,1.33,0,2
				c-0.67,0-1.33,0-2,0C213.02,365.02,213.02,363.02,213.02,361.02z"/>
			<path class="st10" d="M213.02,367.01c0.67,0,1.33,0,2,0c1.37,2.01,2.1,3.89-1,5l0,0c-0.03-1.1,0.17-2.28-1-3
				C213.02,368.35,213.02,367.68,213.02,367.01z"/>
			<path class="st13" d="M213.02,369.01c1.17,0.72,0.97,1.9,1,3c-0.66,0.33-1.33,0.67-1.99,1
				C212.16,371.63,211.56,370.07,213.02,369.01z"/>
			<path class="st8" d="M192.99,477.94c1.36,1.65,4.15,2.19,3.95,5.06c-6.12-1.71-12.09-3.73-17-8.01
				C184.34,475.75,188.4,478.03,192.99,477.94z"/>
			<path class="st5" d="M200.73,484.39c1.08-0.47,1.91-0.32,2.26,0.95C201.66,486.4,201.17,485.46,200.73,484.39z"/>
			<path class="st15" d="M233.02,275.09c10.1-0.64,19.37,2.64,28.75,5.78c4.88,1.64,9.86,3.5,15.21,3.21
				c0.26,2.55,2.6,2.31,4.15,2.85c7.2,2.52,14.58,4.56,21.43,8c1.18,0.59,3.38,0.66,2.84,2.75c-0.39,1.5-1.84,2.23-3.48,2.4
				c-2.98,0.31-4.33,2.14-5.55,4.86c-2.81,6.3-8.2,11.21-10.09,18.09c-0.15,0.56-0.82,1.06-1.36,1.42c-3.48,2.3-4.17,6.54-6.63,9.66
				c-4.32,5.49-7.21,12.11-13.3,16.18c-0.81,0.54-1.02,1.32-0.96,2.14c0.34,4.25-2.67,6.87-5.63,8.06
				c-5.53,2.22-7.09,9.46-13.67,10.1c-0.55,0.05-0.76,2.36-1.34,3.52c-1.13,2.26-2.23,4.62-5.6,3.33c-3.03-1.16-4.39,1.34-4.3,3.27
				c0.13,2.65,0.58,4.59-3,4.48c-0.43-0.01-1.11,0.73-1.29,1.26c-3.47,9.77-6.78,19.59-10.39,29.3c-0.65,1.74,0.24,5.29-2.87,4.91
				c-3.4-0.41-1.79-3.75-1.84-5.75c-0.23-8.78,1.05-17.48,1.88-26.2c1.24-13.15,2.65-26.26,4.64-39.32
				c0.92-6.03,2.61-12.11,1.4-18.35c0-1.33,0-2.66,0-3.99c3.61-2.55,2.42-6.54,2.99-10c0-1,0-2,0-3c1.17-0.72,0.97-1.9,1-3
				c-0.33-1.33-0.66-2.66-1-3.99c1.26-0.2,2.51-0.41,1-2c0-1.66,0-3.33,0-4.99c1.3-0.04,1.96-0.7,1.99-2c0-1,0-2,0-3
				c1.41-1.33,1.41-2.66,0-4c0-1,0-2,0-3c1.26-0.2,2.51-0.41,1-2c0-1.33,0-2.66,0-4c1.3-0.04,1.96-0.7,1.99-2
				c0.68-1.25,1.16-2.54,1-4C232.34,275.75,232.68,275.42,233.02,275.09z M225.85,354.86c0.27,0.04,0.54,0.08,0.81,0.12
				c4.75-20.87,9.55-41.72,14.17-62.62c0.48-2.18,0.03-4.63-0.29-6.91c-0.15-1.04-0.77-2.32-2.3-2.15
				c-1.36,0.15-1.93,1.12-2.15,2.38c-0.34,1.95-0.76,3.89-1.05,5.85c-2.01,13.53-4,27.07-5.97,40.61
				C227.97,339.7,226.92,347.28,225.85,354.86z"/>
			<path class="st16" d="M222.02,331.04c1.21,6.24-0.48,12.32-1.4,18.35c-2,13.07-3.4,26.18-4.64,39.32
				c-0.82,8.72-2.11,17.42-1.88,26.2c0.05,2.01-1.56,5.35,1.84,5.75c3.1,0.37,2.22-3.17,2.87-4.91c3.61-9.71,6.92-19.54,10.39-29.3
				c0.19-0.53,0.86-1.27,1.29-1.26c3.58,0.11,3.13-1.82,3-4.48c-0.09-1.93,1.27-4.43,4.3-3.27c3.38,1.29,4.47-1.07,5.6-3.33
				c0.58-1.16,0.79-3.47,1.34-3.52c6.58-0.64,8.14-7.88,13.67-10.1c2.96-1.19,5.97-3.81,5.63-8.06c-0.07-0.83,0.15-1.6,0.96-2.14
				c6.09-4.07,8.98-10.69,13.3-16.18c2.45-3.12,3.15-7.36,6.63-9.66c0.54-0.36,1.21-0.86,1.36-1.42
				c1.89-6.88,7.28-11.78,10.09-18.09c1.21-2.73,2.57-4.55,5.55-4.86c1.64-0.17,3.09-0.9,3.48-2.4c0.54-2.09-1.66-2.16-2.84-2.75
				c-6.85-3.44-14.23-5.48-21.43-8c-1.55-0.54-3.89-0.3-4.15-2.85c3.05,0.45,5.76,2.4,9,2c1,0,2,0,3,0.01c0.2,1.27,0.41,2.51,2,1
				c0.67,0,1.33,0,2,0.01c0.2,1.27,0.42,2.5,2,0.99c2.11-0.35,4,0.67,5.99,1.01c0.21,1.26,0.42,2.5,2,0.99c0.67,0,1.33,0,2,0.01
				c1.33,3.01,4.42,2.99,6.9,3.96c5.69,2.21,11.62,3.83,16.93,6.95c2.74,1.61,4.44,3.16,0.42,5.57c-4.32,2.59-6.2,7.26-8.23,11.55
				c-4.35,9.22-9.33,18.14-15.07,26.47c-3.6,5.23-6.6,10.91-10.99,15.76c-2,2.21-3.88,5.53-5.42,8.57
				c-0.45,0.88-0.89,2.29-1.57,2.45c-4.67,1.08-5.2,6.42-9.06,8.46c-2.18,1.15-3.25,3.64-4.2,6.34c-1.21,3.45-3.91,6.83-6.84,9.13
				c-6.88,5.39-13.62,10.93-20.43,16.38c-2.71,2.17-6.42,2.98-7.58,6.88c-0.12,0.39-0.72,0.9-1.12,0.92
				c-9.66,0.55-11.92,10.3-18.39,14.81c-1.49,1.04-2.01,2.94-2.29,4.83c-1.1,7.5-4.89,14.04-7.61,20.96
				c-0.45,1.14-1.29,2.29-2.61,1.43c-1.29-0.84-1.63-2.28-1.53-3.94c0.83-14.68,1.66-29.36,3.69-43.94c0.14-1.02,0.06-2-0.92-2.65
				c0-0.67,0-1.33,0-2c0-0.33,0-0.66,0-1c3.49-1.47,2.09-3.76,1-6c0-0.67,0-1.33,0-2c2.81-0.71,2.37-2.24,1-4c0-1,0-2,0-3
				c3.47-0.77,1.89-3.81,2.24-5.7c0.93-5.02,2.8-10.09,0.76-15.28c3.1-1.11,2.37-2.99,1-5c0-0.67,0-1.33,0-2
				c3.18-1.66,3.18-3.33,0-5c0,0-0.01,0-0.01,0c0-1,0.01-2,0.01-2.99c5.46-0.64,2.23-3.02,1-5c0-0.33,0-0.66,0-1
				c2.07-0.07,4.05-0.19,1.99-3c0-1.67,0-3.33,0-5c0-0.67,0-1.33,0-2c1.18-0.72,0.97-1.9,1-3c0-1,0.01-2,0.01-2.99
				C221.83,335.06,220.33,331.86,222.02,331.04z"/>
			<path class="st10" d="M222.02,331.04c-1.68,0.82-0.19,4.02-3,4c-0.38-11,3.62-21.41,4.26-32.28c0.45-7.47,3.74-14.54,2.03-22.43
				c-0.94-4.33,3.47-4.28,6.69-4.25c0.16,1.46-0.32,2.75-1,4c-1.3,0.04-1.96,0.7-1.99,2c0,1.33,0,2.66,0,4c-0.8,0.43-0.98,1.18-1,2
				c0,1,0,2,0,3c-1.41,1.33-1.4,2.66,0,4c0,1,0,2,0,3c-1.3,0.04-1.96,0.7-1.99,2c0,1.66,0,3.33,0,4.99c-0.8,0.43-0.98,1.18-1,2
				c0.33,1.33,0.66,2.66,1,3.99c-2.12,0.4-2.63,1.34-1,3c0,1,0,2,0,3c-4.17,2.38-2.64,6.47-2.99,10
				C222.02,328.38,222.02,329.71,222.02,331.04z"/>
			<path class="st10" d="M216.03,352.03c1.23,1.98,4.46,4.36-1,5C214.91,355.27,215.07,353.57,216.03,352.03z"/>
			<path class="st13" d="M218.02,343.03c0,1.67,0,3.33,0,5c-0.67,0-1.33,0-2,0C216.45,346.27,214.82,343.69,218.02,343.03z"/>
			<path class="st10" d="M216.03,348.03c0.66,0,1.33,0,2,0c2.06,2.81,0.07,2.93-1.99,3C216.03,350.03,216.03,349.03,216.03,348.03z"
				/>
			<path class="st13" d="M219.01,338.03c-0.03,1.1,0.18,2.28-1,3C216.38,339.38,216.9,338.44,219.01,338.03z"/>
			<path class="st6" d="M306.95,488.91c2.69-2.02,5.83-1.14,8.63-0.9c13.05,1.12,22.34-4.41,29.42-15.07
				c6.1-9.17,12.79-17.96,19.21-26.92c1.08-1.51,1.65-3.17,1.76-5.07c0.11-1.84,0.59-3.67,2.92-4.01c0.35,0.34,0.71,0.68,1.06,1.02
				c-0.02,0.99-0.05,1.99-0.07,2.98c-1.32,0.21-2.51,0.48-0.93,2.02c-0.02,0.99-0.04,1.98-0.06,2.98c-2.16,0.43-2.65,1.38-0.94,3.02
				c-0.03,0.99-0.05,1.98-0.08,2.97c-1.32,0.21-2.51,0.48-0.92,2.02c-0.01,0.66-0.03,1.32-0.04,1.98c-2.16,0.42-2.67,1.36-0.96,3.01
				c-0.35,2.33-0.69,4.65-1.04,6.98c-2.16,0.42-2.68,1.36-0.96,3.01c-0.34,1.99-0.69,3.99-1.03,5.98c-2.53,0.27-1.84,2.26-2.06,3.81
				c-1.25,8.48-5.75,12.77-13.24,12.13c-11.83-1.02-23.67-0.94-35.52-0.98C310.38,489.88,308.43,490.55,306.95,488.91z"/>
			<path class="st4" d="M306.95,488.91c1.47,1.63,3.42,0.96,5.17,0.97c11.85,0.05,23.69-0.03,35.52,0.98
				c7.49,0.64,12-3.64,13.24-12.13c0.23-1.54-0.47-3.53,2.06-3.81c0.24,5.03-1.67,9.73-2.27,14.65c-0.37,3-3,4.39-6.3,4.4
				c-12.74,0.03-25.43-0.6-38.13-1.78c-7.04-0.65-14.18-0.98-21.28-1.3c0.33-2.68,2.43-1.8,4-2c0.67,0,1.33,0,2,0c1,1.29,2,1.29,3,0
				C304.96,488.91,305.96,488.91,306.95,488.91z"/>
			<path class="st6" d="M298.96,488.91c-1.57,0.2-3.67-0.67-4,2c-1-0.01-2-0.01-2.99-0.02c-0.44-2.16-1.4-2.63-3.02-0.92
				c-4.32-0.03-8.64-0.06-12.96-0.09c0-0.66,0-1.32-0.01-1.98c7.3-2.01,14.69-0.85,22.05-0.59
				C298.36,487.34,298.65,488.36,298.96,488.91z"/>
			<path class="st4" d="M243.99,486.96c1.69-1.54,3.36-1.57,5.03,0.05C247.33,488.37,245.65,488.41,243.99,486.96z"/>
			<path class="st6" d="M368.91,434.96c-1.64-1.65-1.12-2.59,1-3c0.36,0.34,0.71,0.68,1.07,1.02c-0.02,0.66-0.04,1.32-0.06,1.98
				C370.25,434.96,369.58,434.96,368.91,434.96z"/>
			<path class="st4" d="M275.98,487.91c0,0.66,0,1.32,0.01,1.98c-1.11,0.02-2.27,0.22-3.02-0.92
				C273.66,487.74,274.87,487.95,275.98,487.91z"/>
			<path class="st4" d="M288.95,489.98c1.62-1.71,2.58-1.24,3.02,0.92C290.86,490.91,289.7,491.1,288.95,489.98z"/>
			<path class="st4" d="M370.98,432.98c-0.36-0.34-0.71-0.68-1.07-1.02c0.04-1.28,0.68-1.96,1.97-2.01
				C371.91,431.06,372.08,432.21,370.98,432.98z"/>
			<path class="st4" d="M368.91,434.96c0.67,0,1.34,0,2,0c-0.01,1.1,0.16,2.26-0.95,3.01c-0.35-0.34-0.71-0.68-1.06-1.02
				C368.91,436.29,368.91,435.62,368.91,434.96z"/>
			<path class="st4" d="M367.97,448.97c-1.71-1.63-1.22-2.59,0.94-3.02C368.9,447.05,369.09,448.21,367.97,448.97z"/>
			<path class="st4" d="M365.97,458.96c-1.71-1.65-1.2-2.59,0.96-3.01C366.9,457.04,367.1,458.21,365.97,458.96z"/>
			<path class="st4" d="M363.98,468.95c-1.72-1.65-1.21-2.59,0.96-3.01C364.92,467.04,365.1,468.2,363.98,468.95z"/>
			<path class="st4" d="M366.97,453.96c-1.58-1.54-0.39-1.81,0.92-2.02C367.91,452.76,367.75,453.5,366.97,453.96z"/>
			<path class="st4" d="M371.97,426.98c-1.59-1.51-0.42-1.8,0.9-2.03C372.9,425.78,372.76,426.52,371.97,426.98z"/>
			<path class="st4" d="M368.97,442.97c-1.58-1.54-0.39-1.81,0.93-2.02C369.91,441.77,369.75,442.52,368.97,442.97z"/>
			<path class="st7" d="M373.9,419.97c-0.33,0.34-0.65,0.67-0.98,1.01c0,0-0.02-0.02-0.02-0.02c0.3-0.31,0.6-0.62,0.9-0.94
				L373.9,419.97z"/>
			<path class="st13" d="M330.94,297.07c-2.32,0.96-4.08,0.56-5-1.99C327.7,295.5,329.55,295.71,330.94,297.07z"/>
			<path class="st13" d="M334.94,298.07c-1.58,1.51-1.8,0.27-2-0.99C333.76,297.09,334.5,297.27,334.94,298.07z"/>
			<path class="st10" d="M302.96,290.08c-1.58,1.51-1.8,0.27-2-0.99C301.78,289.1,302.53,289.27,302.96,290.08z"/>
			<path class="st6" d="M373.81,420.02c-0.3,0.31-0.6,0.62-0.9,0.94c-0.69-0.18-1.8-0.12-1.45-1.21c0.34-1.07,1.53-0.68,2.39-0.8
				C373.83,419.31,373.82,419.67,373.81,420.02z"/>
			<path class="st6" d="M374.95,406c-1.56-1.57-0.34-1.81,0.97-2.01C375.9,404.8,375.72,405.54,374.95,406z"/>
			<path class="st6" d="M303.96,488.91c-1,1.29-2,1.29-3,0C301.96,487.63,302.96,487.64,303.96,488.91z"/>
			<path class="st13" d="M202.02,445.94c0-0.33,0-0.66,0.01-0.99c2.77,0.52,1.93,2.54,1.76,4.26c-0.91,9.24-1.84,18.48-2.76,27.71
				c-2.88-1.58-2.13-4.16-1.64-6.53c0.6-2.88,1.47-5.71-0.36-8.46c0-0.67,0-1.33,0-2c3.73-1.46,1.28-4.68,1.99-7
				c0-0.66,0-1.33,0-1.99C202.7,449.55,201.79,447.63,202.02,445.94z"/>
			<path class="st11" d="M201.02,452.94c-0.71,2.32,1.74,5.54-1.99,7c-0.01-0.67-0.01-1.34-0.02-2.01c0-1.33,0-2.66,0-3.98
				C199.46,453.15,200.2,452.96,201.02,452.94z"/>
			<path class="st13" d="M202.03,439.96c0-1,0-2,0-3c0.67-0.67,1.33-1.33,2-2c1.28,2.56,2.4,5.1-1,7
				C203.01,441.13,202.83,440.39,202.03,439.96z"/>
			<path class="st13" d="M206.02,417.97c0-1.33,0.01-2.66,0.01-3.99c2.45,0.27,2.64,1.18,1,5
				C206.69,418.64,206.35,418.3,206.02,417.97z"/>
			<path class="st13" d="M203.03,430.96c0-0.67,0-1.33,0-2c0.67,0,1.33,0,2,0c1.51,1.58,0.27,1.8-1,2
				C203.7,430.96,203.37,430.96,203.03,430.96z"/>
			<path class="st13" d="M202.03,442.95c0.33,0,0.67,0,1,0c-0.33,0.33-0.66,0.67-1,1C202.03,443.62,202.03,443.29,202.03,442.95z"/>
			<path class="st10" d="M211.03,395.99c1.37,1.76,1.82,3.29-1,4C210.16,398.61,209.56,397.04,211.03,395.99z"/>
			<path class="st10" d="M215.03,360.02c3.18,1.67,3.18,3.34,0,5C215.02,363.35,215.03,361.69,215.03,360.02z"/>
			<path class="st1" d="M225.85,354.86c1.07-7.58,2.11-15.16,3.22-22.73c1.97-13.54,3.96-27.07,5.97-40.61
				c0.29-1.96,0.71-3.9,1.05-5.85c0.22-1.26,0.79-2.23,2.15-2.38c1.53-0.17,2.16,1.12,2.3,2.15c0.32,2.28,0.78,4.72,0.29,6.91
				c-4.62,20.9-9.42,41.75-14.17,62.62C226.39,354.94,226.12,354.9,225.85,354.86z"/>
			<path class="st16" d="M222.02,327.05c0.35-3.53-1.18-7.61,2.99-10C224.44,320.51,225.63,324.5,222.02,327.05z"/>
			<path class="st16" d="M228.01,295.07c-1.4-1.33-1.4-2.67,0-4C229.42,292.41,229.42,293.74,228.01,295.07z"/>
			<path class="st16" d="M225.01,314.06c-1.63-1.65-1.12-2.59,1-3C225.98,312.16,226.19,313.34,225.01,314.06z"/>
			<path class="st16" d="M229.01,282.08c0.03-1.3,0.7-1.96,1.99-2C230.97,281.38,230.31,282.05,229.01,282.08z"/>
			<path class="st16" d="M228.01,288.08c0.02-0.82,0.19-1.57,1-2C230.53,287.67,229.28,287.88,228.01,288.08z"/>
			<path class="st16" d="M226.01,300.07c0.03-1.3,0.7-1.96,1.99-2C227.98,299.37,227.31,300.03,226.01,300.07z"/>
			<path class="st16" d="M225.02,307.06c0.02-0.82,0.19-1.57,1-2C227.53,306.65,226.28,306.86,225.02,307.06z"/>
		</g>
	</g>
</g>
</svg>
