<?xml version="1.0" encoding="utf-8"?>
<!-- Generator: Adobe Illustrator 24.0.0, SVG Export Plug-In . SVG Version: 6.00 Build 0)  -->
<svg version="1.1" id="Layer_1" xmlns="http://www.w3.org/2000/svg" xmlns:xlink="http://www.w3.org/1999/xlink" x="0px" y="0px"
	 viewBox="0 0 612 792" style="enable-background:new 0 0 612 792;" xml:space="preserve">
<style type="text/css">
	.st0{clip-path:url(#SVGID_2_);}
	.st1{fill:#FEFEFE;}
	.st2{fill:#ABABAB;}
	.st3{fill:#EDEDED;}
	.st4{fill:#C0C0C0;}
	.st5{fill:#C7C7C7;}
	.st6{fill:#B5B5B5;}
	.st7{fill:#AAAAAA;}
	.st8{fill:#9A9A9A;}
	.st9{fill:#A5A5A5;}
	.st10{fill:#A3A3A3;}
	.st11{fill:#9F9F9F;}
	.st12{fill:#BDBDBD;}
	.st13{fill:#A1A1A1;}
	.st14{fill:#C6C6C6;}
	.st15{fill:#979797;}
	.st16{fill:#949494;}
	.st17{fill:#575757;}
	.st18{fill:#D6D6D6;}
	.st19{fill:#8A8A8A;}
	.st20{fill:#929292;}
	.st21{fill:#C5C5C5;}
	.st22{fill:#BEBEBE;}
	.st23{fill:#626262;}
	.st24{fill:#D2D2D2;}
	.st25{fill:#696969;}
	.st26{fill:#CECECE;}
	.st27{fill:#6E6E6E;}
	.st28{fill:#C9C9C9;}
	.st29{fill:#D7D7D7;}
	.st30{fill:#797979;}
	.st31{fill:#686868;}
	.st32{fill:#767676;}
	.st33{fill:#AFAFAF;}
	.st34{fill:#7C7C7C;}
	.st35{fill:#B0B0B0;}
	.st36{fill:#737373;}
	.st37{fill:#B7B7B7;}
	.st38{fill:#A9A9A9;}
	.st39{fill:#838383;}
	.st40{fill:#B9B9B9;}
	.st41{fill:#A2A2A2;}
	.st42{fill:#B1B1B1;}
	.st43{fill:#757575;}
	.st44{fill:#959595;}
	.st45{fill:#969696;}
	.st46{fill:#888888;}
	.st47{fill:#717171;}
	.st48{fill:#787878;}
	.st49{fill:#9C9C9C;}
	.st50{fill:#A8A8A8;}
	.st51{fill:#6A6A6A;}
	.st52{fill:#8B8B8B;}
	.st53{fill:#A7A7A7;}
	.st54{fill:#8D8D8D;}
	.st55{fill:#818181;}
	.st56{fill:#8E8E8E;}
	.st57{fill:#727272;}
	.st58{fill:#747474;}
	.st59{fill:#909090;}
	.st60{fill:#6D6D6D;}
	.st61{fill:#939393;}
	.st62{fill:#BCBCBC;}
	.st63{fill:#B8B8B8;}
	.st64{fill:#C2C2C2;}
	.st65{fill:#CCCCCC;}
	.st66{fill:#B2B2B2;}
	.st67{fill:#AEAEAE;}
	.st68{fill:#989898;}
	.st69{fill:#ADADAD;}
	.st70{fill:#A0A0A0;}
	.st71{fill:#D0D0D0;}
	.st72{fill:#636363;}
	.st73{fill:#DBDBDB;}
	.st74{fill:#DEDEDE;}
	.st75{fill:#808080;}
	.st76{fill:#D8D8D8;}
	.st77{fill:#D5D5D5;}
	.st78{fill:#D1D1D1;}
	.st79{fill:#D4D4D4;}
	.st80{fill:#CFCFCF;}
	.st81{fill:#DADADA;}
	.st82{fill:#DDDDDD;}
	.st83{fill:#E0E0E0;}
	.st84{fill:#E2E2E2;}
	.st85{fill:#D9D9D9;}
	.st86{fill:#F0F0F0;}
	.st87{fill:#EEEEEE;}
	.st88{fill:#E8E8E8;}
</style>
<g>
	<defs>
		<rect id="SVGID_1_" x="106" y="266" width="288" height="238"/>
	</defs>
	<clipPath id="SVGID_2_">
		<use xlink:href="#SVGID_1_"  style="overflow:visible;"/>
	</clipPath>
	<g class="st0">
		<g>
			<path class="st1" d="M393.89,324.05c0,58.62-0.04,117.24,0.1,175.86c0.01,3.42-0.67,4.1-4.09,4.09
				c-93.27-0.12-186.54-0.12-279.8,0c-3.42,0-4.1-0.67-4.09-4.09c0.13-76.6,0.13-153.21,0-229.81c-0.01-3.42,0.67-4.1,4.09-4.09
				c93.27,0.12,186.54,0.12,279.8,0c3.42,0,4.15,0.66,4.1,4.09c-0.24,15.32-0.1,30.64-0.1,45.96c-0.4,0.33-0.82,0.37-1.28,0.14
				c-2.66-3.56-5.34-7.1-10-8.24c-8.18-2.47-16.55-4.08-24.89-5.84c-5.5-1.62-11.07-2.93-16.69-4.08
				c-6.58-1.44-13.08-3.23-19.67-4.63c-0.52-0.04-1.03-0.14-1.53-0.26c-1.72-0.57-3.51-0.84-5.26-1.27
				c-6.84-1.89-13.77-3.41-20.71-4.87c-12.52-3.27-25.12-6.16-37.75-8.92c-5.35-0.91-10.35-3.33-15.84-3.59
				c-7.86,0.44-15.62-1.55-23.48-0.98c-3.95,0.37-7.88-0.25-11.83-0.1c-6.92-1.23-13.92-0.88-20.9-0.95c-1.43,0-2.86,0.01-4.29,0.01
				c-6.41,0.38-12.7-1.59-19.11-1c-1.11,0-2.21-0.01-3.32-0.02c-3.08,0.08-6.19-0.41-9.21,0.53c-2.07,0.5-3.99,1.26-5.44,2.92
				c-2.46,2.55-2.08,5.99-2.81,9.07c-0.34,1.16-0.67,2.31-0.99,3.47c-0.67,2.91-0.93,5.89-1.46,8.83c-0.39,2.51-1.1,4.97-1.24,7.52
				c-0.31,1.48-0.69,2.94-0.8,4.45c-0.34,2.47-1.02,4.88-1.37,7.35c-0.35,1.17-0.62,2.36-0.66,3.59c-0.06,0.98-0.2,1.95-0.42,2.91
				c-0.65,1.87-0.51,3.87-0.97,5.77c-0.56,1.63-0.6,3.33-0.62,5.03c-0.02,0.74-0.1,1.47-0.25,2.2c-0.58,2.36-1.61,4.6-1.72,7.08
				c-0.07,0.99-0.21,1.97-0.43,2.93c-0.72,2.87-0.9,5.83-1.49,8.72c-0.1,0.96-0.25,1.92-0.49,2.86c-0.34,1.12-0.59,2.27-0.66,3.45
				c-0.1,1.42-0.45,2.8-0.77,4.18c-0.08,0.72-0.14,1.43-0.22,2.15c-0.11,1.49-0.57,2.91-0.82,4.38c-0.69,4.02-1.35,8.04-2,12.06
				c-0.16,1.78-0.78,3.46-1,5.23c-0.08,2-0.67,3.92-0.99,5.88c-0.11,1.2-0.23,2.4-0.52,3.58c-0.32,1.12-0.6,2.24-0.71,3.41
				c-0.07,0.69-0.21,1.37-0.39,2.04c-0.44,1.32-0.55,2.7-0.63,4.08c-0.05,0.71-0.18,1.42-0.36,2.11c-0.63,1.85-0.46,3.83-0.94,5.71
				c-0.47,1.42-0.52,2.91-0.68,4.39c-0.67,2.48-0.84,5.04-1.23,7.57c-0.53,1.99-0.57,4.06-0.85,6.09c-0.8,4.4-2.5,8.72-1.33,13.32
				c0.32,1.15,0.67,2.28,1.38,3.26c1.6,2.27,3.84,3.7,6.36,4.65c9.96,3.75,19.6,8.32,29.61,11.94c6.66,2.52,12.96,5.95,19.89,7.76
				c3.92,2.02,7.92,3.86,12.11,5.25c5.62,2.69,11.43,4.92,17.29,7.04c3.55,2.17,7.63,0.9,11.38,1.76c2.02,0.72,4.12,0.6,6.21,0.6
				c1.87,0.03,3.74-0.03,5.58,0.37c1.52,0.49,3.08,0.68,4.67,0.62c2.39,0.07,4.8-0.13,7.17,0.35c1.74,0.58,3.54,0.74,5.37,0.68
				c0.79-0.02,1.57-0.01,2.36,0c1.6,0.02,3.19,0.05,4.76,0.4c2.31,0.81,4.71,0.54,7.08,0.58c1.63,0.01,3.26,0.03,4.86,0.37
				c3.14,1.06,6.4,0.44,9.6,0.68c0.8,0.03,1.58,0.16,2.35,0.34c2.22,0.84,4.56,0.56,6.85,0.71c0.77,0.04,1.53,0.17,2.28,0.36
				c1.71,0.61,3.49,0.57,5.27,0.55c2.09,0.03,4.19-0.09,6.26,0.36c1.75,0.6,3.56,0.7,5.39,0.63c0.53-0.02,1.07-0.02,1.6-0.02
				c2.7,0.09,5.41-0.17,8.09,0.36c2.04,0.73,4.16,0.67,6.28,0.65c1.59,0.01,3.18,0.03,4.75,0.38c1.99,0.71,4.06,0.66,6.12,0.64
				c0.78-0.02,1.57-0.02,2.35,0c1.59,0.02,3.18,0.05,4.74,0.4c2.02,0.71,4.13,0.58,6.22,0.58c1.85,0.02,3.7-0.03,5.52,0.35
				c3.41,0.99,6.85,0.83,10.31,0.35c0.85-0.3,1.7-0.59,2.52-0.95c1.55-0.62,3.03-1.36,3.97-2.84c0.78-1.02,1.45-2.1,1.83-3.35
				c0.63-2.7,1.19-5.4,1.63-8.14c0.43-1.61,0.78-3.24,0.95-4.9c0.06-0.48,0.17-0.95,0.3-1.42c0.59-1.62,0.46-3.34,0.65-5.01
				c0.76-3.37,1.09-6.81,1.78-10.18c0.02-0.49,0.08-0.97,0.15-1.45c0.2-1.43,0.76-2.78,0.9-4.23c0.04-0.48,0.11-0.96,0.2-1.43
				c0.47-1.87,0.89-3.76,1.28-5.65c0.8-2.58,0.37-5.37,1.31-7.93c0.23-1.43,0.26-2.89,0.61-4.3c0.15-0.7,0.37-1.38,0.55-2.07
				c0.17-0.94,0.36-1.87,0.59-2.79c0.64-1.86,0.39-3.81,0.59-5.72c0.29-1.96,0.95-3.85,0.93-5.85c0.06-0.76,0.2-1.5,0.38-2.24
				c0.62-2.71,1.29-5.42,1.54-8.2c0.72-3.84,1.27-7.71,2.01-11.54c0.39-2.02,1.03-3.98,1.21-6.04c0.65-2.95,1.77-5.81,1.79-8.89
				c0.02-0.77,0.11-1.52,0.26-2.27c0.83-3.17,1.04-6.46,1.75-9.66c0.05-0.51,0.14-1,0.26-1.5c0.7-2.68,1.57-5.33,1.73-8.13
				c1.16-4.02,0.6-8.32,1.94-12.32c0.1-0.51,0.24-1,0.41-1.49c1.04-3.17,0.46-6.59,1.53-9.75c0.06-0.77,0.2-1.53,0.37-2.29
				c0.69-2.79,1.67-5.52,1.67-8.45C391.08,326.41,390.02,323.27,393.89,324.05z"/>
			<path class="st2" d="M393.89,324.05c-3.59,0.42-1.17,3.39-2.1,4.94c-1.48,0.19-1.62-0.96-1.94-1.94
				c-0.17-2.17-0.15-4.27,2.32-5.28c0.98-0.13,1.26,0.7,1.72,1.28C393.89,323.38,393.89,323.72,393.89,324.05z"/>
			<path class="st3" d="M393.89,323.05c-0.36-0.3-0.73-0.61-1.09-0.91c-1.59-2.08-1.59-4.12,0.15-6.11
				c0.31,0.01,0.62,0.02,0.93,0.03C393.89,318.39,393.89,320.72,393.89,323.05z"/>
			<path class="st4" d="M184.04,271.17c7.02-0.18,14.03-0.21,20.99,0.92c-0.14,2.34-2.03,2.12-3.52,2.27
				c-2.07,0.21-4.16,0.16-6.16,0.82c-2.11,0.33-4.23,0.22-6.35,0.25c-0.82,0.03-1.66-0.08-2.48,0.01c-4.48,0.5-5.07,1.39-2.48,5.04
				c1.69,2.39,1.95,4.71,1.86,7.44c-0.41,12.19-2.27,24.38-1.39,36.54c0.86,11.96-1.57,23.81-0.34,35.72
				c0.91,8.81,0.79,17.68,1.9,26.51c0.51,4.06,1.19,8.54,0.19,12.82c-0.72,3.08,1.23,5.7,1.48,8.69c0.62,7.32,1.78,14.55,1.89,21.98
				c0.07,4.24,1.44,8.71,2.31,13.05c1.18,5.9,1.59,12.07,4.28,17.63c0.35,4.85-0.89,9.52-1.52,14.26c-1.5,1.91-2.74,0.45-4.03-0.31
				c-4.79-3.48-8.22-7.52-7.22-14.13c0.49-3.24-1.71-6.19-2.19-9.5c-1.05-7.36-2.55-14.73-3.06-22.08
				c-0.85-12.35-3.54-24.5-3.24-37.01c0.13-5.48-0.08-11.19-0.77-16.79c-1.27-10.23-1-20.52-0.58-30.83
				c0.24-5.88-0.02-11.92,0.14-17.76c0.23-8.08,0-16.26,0.96-24.33c0.67-5.61,1.16-11.2,1.23-16.85c0.02-1.99-0.58-3.5-1.8-4.99
				c-2.95-3.61-2.66-4.9,1.46-6.94c1.04-0.52,2.16-0.87,3.27-1.21C180.54,271.73,182.61,272.8,184.04,271.17z"/>
			<path class="st5" d="M195.03,274.09c3.02-2.24,7,0.36,10-2c3.67,0.03,7.34,0.05,11.01,0.08c1.45,0.96,3.26-0.02,4.88,0.88
				c0.03,2.04-1.58,2.01-2.9,2.33c-2.94,0.15-5.88,0.06-8.82,0.06c-2.99-0.18-5.91-0.04-8.83,0.93c-2.92,0.97-2.95,2.48-0.92,4.09
				c3.02,2.4,2.8,5.18,2.65,8.71c-0.36,8.7-0.73,17.42-1.19,26.11c-0.34,6.55,0.22,13.1-0.61,19.66c-0.46,3.68,1.47,7.5,0.86,11.32
				c-1.11,6.97,1.99,13.69,0.51,20.89c-1.06,5.11,1.05,10.71,1.9,16.02c0.51,3.22-0.1,6.39,0.56,9.68
				c0.76,3.76,2.01,7.61,2.06,11.57c-0.52,10.12-2.6,20.02-4.16,30c-0.13,0.83-0.71,1.48-1.58,1.76c-2.26-1.34-1.92-3.77-2.17-5.78
				c-3.32-26.82-5.94-53.68-6.84-80.74c-0.44-13.42,0.41-26.82-0.34-40.24c-0.37-6.72,1.48-13.48,1.42-20.31
				c-0.02-2.56,0.05-4.91-2.07-6.84c-1.58-1.43-3.41-3.06-2.39-5.53c1.04-2.51,3.48-2.11,5.62-2.13
				C194.21,274.59,194.64,274.4,195.03,274.09z"/>
			<path class="st6" d="M184.04,271.17c-0.22,4.39-3.53,0.77-5,1.92c-1.94,0.69-3.99,0.84-5.98,1.26
				c-3.48-0.06-6.99-0.26-10.36,2.31c5.26,4.54,3.69,10.13,3.25,16c-0.57,7.55-1.85,15.07-1.78,22.67
				c0.06,6.14-0.53,12.25-0.94,18.36c-0.26,3.93-0.17,7.91-0.07,11.82c0.33,13.57-1.14,27.14,0.34,40.73
				c0.87,8.02,0.31,16.22,1.26,24.22c1.71,14.43,1.92,29.02,4.58,43.34c0.85,4.54,0.29,9.75,5.47,12.45
				c0.56,0.29,0.57,1.15,0.31,1.83c-1.46,0.96-2.77,0.21-4.11-0.34c-1.9-0.96-3.65-2.15-5.44-3.3c-5.35-3.09-4.31-8.8-4.65-13.38
				c-0.32-4.29-1.02-8.51-1.47-12.76c-1.59-14.76-2.18-29.59-3.27-44.38c-0.46-6.26-0.05-12.51-0.6-18.8
				c-0.39-4.47,0.52-9.13-0.75-13.66c-0.17-0.44-0.24-0.9-0.24-1.37c2.42-2.78,1.41-5.99,1.27-9.17c-0.32-7.11,0.3-14.21,0.39-21.32
				c0.18-14.76,1.94-29.39,3.2-44.06c0.25-2.86-0.38-4.8-2.7-6.29c-2.15-3.27-0.96-5.22,2.47-6.34c2.06-0.67,4.15-1.19,6.25-1.71
				c1.32-0.12,2.64-0.11,3.96-0.07c3.52,0.54,7.05,0.9,10.57,0C181.36,271.15,182.7,271.16,184.04,271.17z"/>
			<path class="st7" d="M169.05,272.09c-1.33,0-2.66,0-3.99,0.01c-1.6,0.93-3.49,0.2-5.12,0.92c-3.26,0.51-6.68-0.16-9.83,1.25
				c-1.46,0.65-3.04,1.53-1.69,3.29c3.22,4.2,2.2,8.83,1.54,13.34c-1.96,13.31-2.28,26.76-3.18,40.14
				c-0.59,8.74-1.27,17.53-0.83,26.34c0.45,8.93-0.49,17.87-0.33,26.79c0.37,20.11,1.49,40.18,3.72,60.19
				c0.44,3.91,2.05,8.23-1.16,11.91c-4.22-0.23-5.91-1.76-5.95-6c-0.12-14.6-2.35-29.08-2.43-43.68
				c-0.06-10.41-0.21-20.87-0.65-31.21c-0.29-6.87,1.6-13.8-0.32-20.59c-0.14-0.46-0.18-0.92-0.13-1.39
				c1.73-7.6,1.88-15.4,1.77-23.08c-0.1-6.82,1.09-13.45,1.38-20.19c0.35-8.21,1.42-16.38,2.79-24.5c0.35-2.06,0.36-4.35-1.59-5.95
				c-1.67-1.62-1.42-3.62-1.09-5.63c1.21-1.87,3.02-2.64,5.15-2.84c3.27-0.55,6.61-0.38,9.87-0.98c1.04,0.01,2.08,0.01,3.12,0.02
				c2.18,0.78,4.45,0.16,6.66,0.39C167.73,270.73,169.23,270.14,169.05,272.09z"/>
			<path class="st8" d="M121.26,383.09c0.66-4.35,1.31-8.71,1.97-13.06c1.68-0.98,1.66-2.39,0.97-3.95
				c0.02-0.68,0.03-1.36,0.05-2.04c1.11-0.34,1.84,0.24,2.5,1.02c1.64,2.56,1.45,5.54,1.22,8.26c-1.33,15.61-0.35,31.21,0.17,46.78
				c0.26,7.93,0.66,15.92,1.31,23.86c0.27,3.24,1.52,5.35,4.66,6.24c2.12,1.03,4.2,2.14,6.48,2.82c2.69,1.16,4.78,3.38,7.75,4.11
				c1.29,0.32,2.25,1.36,1.83,2.98c-0.59,0.54-1.3,0.77-2.09,0.83c-8.53-2.91-16.6-6.74-23.94-12.01c-4.6-4.09-3.68-9.74-3.78-14.88
				c-0.12-6.14-0.63-12.23-1.06-18.35c-0.57-8.1,0.31-16.17,1.4-24.2c0.15-1.15,0.41-2.28,0.42-3.44
				C121.06,386.39,122.14,384.77,121.26,383.09z"/>
			<path class="st9" d="M141.97,274.04c1.72,1.39,0.09,3.51,1.1,5.05c2.45,6.19,0.24,12.39-0.23,18.51
				c-0.83,10.97-2.48,21.85-2.49,32.93c0,7.81-1.26,15.63-1.28,23.49l0,0c0.85,7.4-0.52,14.76-0.49,22.15
				c0.01,4.27,0.07,8.6,0.21,12.84c0.59,18.62,0.38,37.3,3.12,55.8c0.42,2.87-0.11,5.61-1.53,8.15c-2.75,0.29-3.45-1.65-3.54-3.68
				c-0.6-13.75-2.05-27.44-2.55-41.21c-0.44-12.05-0.09-24.1-0.44-36.16c-0.3-10.21-0.43-20.56,0.79-30.77
				c1.3-10.9,1.2-21.86,1.97-32.77c0.46-6.43,3.01-12.69,1.53-19.27c0.43-1.72,0.22-3.54,0.91-5.2
				C139,280.33,138.87,276.7,141.97,274.04z"/>
			<path class="st10" d="M139.07,290.06c1.17,3.05,0.7,6.04,0.08,9.18c-2.36,11.98-1.73,24.22-2.76,36.32
				c-0.65,7.68-1.13,15.36-0.99,23.11c0.25,13.76-0.62,27.53-0.34,41.29c0.25,12.39,1.45,24.76,2.18,37.15
				c0.23,3.92,0.2,7.85,0.5,11.76c0.12,1.6,0.42,3.38,2.33,4.08c0.22,0.22,0.3,0.44,0.22,0.67c-0.07,0.22-0.15,0.33-0.22,0.33
				c-2.29-0.43-4.33-1.34-6-3c-0.33-0.35-0.54-0.77-0.64-1.24c0.3-9.75-0.78-19.44-1.53-29.13c-0.95-12.4-0.2-24.81-0.34-37.22
				c-0.17-15.57-0.35-31.12,1-46.66c0.69-7.91,0.79-15.85,1.55-23.76c-0.05-1.61,1.08-3.2,0.07-4.82c-0.25-1.47,0.1-2.81,0.88-4.05
				c0.92-2.56,1.91-5.12,1.14-7.93c0.35-3.12,0.48-6.29,1.77-9.23C139.09,287.7,138.05,289.23,139.07,290.06z"/>
			<path class="st11" d="M134.08,449.95c0,0.33,0,0.67,0,1c-4.93-1.04-6.99-3.5-6.52-9.59c0.9-11.66-1.5-23.17-1.23-34.74
				c0.25-10.97-1.05-21.96,0.57-32.93c0.41-2.79-0.5-5.78-0.81-8.68c-1.33-1.46,0.17-3.42-0.87-4.92c-0.17-1.18-0.05-2.3,0.77-3.24
				c0.42,0.28,0.58,0.69,0.55,1.18c-0.66-0.09-0.02,1.12-0.06,0.72c0.1-1.73,0.45-3.21-0.24-4.64c0.36-3.12,0.53-6.28,1.77-9.23
				c0.59,0.61,0.82,1.27,0.54,1.65c0-1.22,0.37-2.8-0.28-4.4c0.01-2.52,0.45-4.92,1.95-7.03c3.29,0.95,2.18,3.91,2.11,5.78
				c-0.36,8.54-1.16,17.07-1.02,25.61c0.2,12.54-0.41,25.06,0.16,37.63c0.34,7.54,0.47,15.15,0.62,22.73
				C132.23,434.59,133.36,442.25,134.08,449.95z"/>
			<path class="st12" d="M367.85,460.89c0.03,0.35,0.05,0.69,0.08,1.04c-2.07,3.23-1.67,7.05-2.53,10.56
				c-0.27,1.85-0.72,3.7-0.34,5.6c0.06,0.28,0.03,0.55-0.09,0.81c-1.47,1.1-0.8,3.04-1.68,4.37c-0.3,2.74-1.26,5.35-1.58,8.09
				c-0.47,1.02-0.98,2.01-1.77,2.84c-2.2,2.44-4.74,2.99-8.06,2.46c-6.03-0.97-12.22-0.79-18.31-1.11
				c-13.05-0.68-26.08-1.78-39.14-2.37c-8.9-0.4-17.74-1.87-26.69-1.55c-1.17,0.2-2.28,0.02-3.34-0.5c-4.1-1.83-8.51-0.3-12.71-1.11
				c-0.56-0.07-1.1-0.2-1.63-0.38c-3.08-0.68-6.21-0.09-9.29-0.45c-1.57-0.18-3.82,0.26-3.67-2.55c3.64-2.04,7.6-0.74,11.4-1.09
				c1.17,0.03,2.34,0.09,3.48,0.35c3.84,1.18,7.79,0.44,11.69,0.64c3.86-0.05,7.7,0.05,11.53,0.63c7.08,0.81,14.22,0.86,21.31,1.2
				c17.55,0.85,35.13,1.19,52.68,2.08c7.52,0.38,8.33-0.33,9.85-7.88c0.3-1.46,0.52-2.94,0.85-4.4c1.57-6.9,2.78-13.88,4.24-20.8
				c0.37-1.76,0.52-3.61,1.76-5.07c0.38-0.39,0.84-0.63,1.37-0.72c0.55,0.04,0.95,0.32,1.19,0.81c0.57,1.12-0.61,2.47,0.45,3.53
				c-0.01,0.35-0.03,0.69-0.04,1.04C367.93,458.12,366.83,459.23,367.85,460.89z"/>
			<path class="st13" d="M134.08,449.95c-3.33-3.37-1.3-7.77-2.19-11.63c-2.07-8.95-2.03-18.32-1.71-27.22
				c0.39-10.73-1.55-21.38-0.06-32.15c1.06-7.61,0.61-15.47,0.38-23.21c-0.14-4.73,1.66-9.25,0.87-14.03
				c-0.37-2.21,0.14-4.56-1.17-6.62c-0.06-0.68-0.11-1.35-0.17-2.03c1.36-1.5,1.04-3.31,0.92-5.08c0.1-2.08-0.26-4.23,1.01-6.11
				c0.42,0.28,0.57,0.69,0.56,1.18c-0.66-0.08,0.04,1.12-0.02,0.72c0.01-1.72,0.4-3.21-0.28-4.64c-0.16-1.16-0.08-2.26,0.77-3.18
				c1.54-0.35-0.59-3.35,2.08-2.89c-0.52,9.68-0.92,19.36-1.58,29.03c-0.82,11.99-1.19,23.94-0.55,35.97
				c0.41,7.76-0.72,15.59-0.4,23.36c0.29,7.09,0.55,14.24,0.86,21.31C133.8,431.75,136.22,440.84,134.08,449.95z"/>
			<path class="st14" d="M392.96,316.03c-0.05,2.04-0.1,4.07-0.15,6.11c-2.29,0.98-1.84,3.05-1.93,4.9
				c0.24,3.38-1.24,6.59-1.01,9.98c0,0.69,0,1.37,0,2.06c-2.48,2.99-1.12,6.72-1.94,10.03c0.07,0.32,0.06,0.63-0.03,0.94
				c-2.51,3.2-1.26,7.3-2.56,10.78c-0.22,3.43-1.9,6.64-1.46,10.17c0.01,0.34,0.03,0.68,0.04,1.02c-1.92,3.07-2.16,6.48-2.04,9.97
				c0,0.68-0.01,1.36-0.01,2.05c-1.63,2.79-1.4,6.08-2.46,9.03c0.06,1.58-0.54,2.98-1.16,4.38c-1.94,9.64-3.6,19.32-5.4,28.98
				c-0.08,0.56-0.29,1.06-0.65,1.5c-0.52,0.35-1.03,0.35-1.55,0.01c-0.76-0.93-0.95-2.03-1.02-3.18c-0.05-1.98-0.07-3.96,0.34-5.91
				c4.87-23.81,10.14-47.55,13.65-71.62c1.87-10.47,4.43-20.83,5.23-31.48c-0.45-2.73-2.07-4.33-4.7-5.13
				c-1.34-0.41-3.04-0.46-3.44-2.32c0.69-1.41,2.14-0.7,3.17-1.14C388.35,308.62,391.59,311.36,392.96,316.03z"/>
			<path class="st15" d="M122.08,387.99c-2.18,14.12-1.66,28.26-0.51,42.44c0.33,4.11,0.53,8.28,0.65,12.37
				c0.08,2.76,1.49,3.7,2.86,5.17c-2.24,1.67-3.77,0.14-5.34-1.19c-1.72-1.78-2.11-3.98-2.18-6.38c-0.24-8.54-0.72-17.06-1.55-25.57
				c0.06-2.05-0.25-4.16,0.97-6.03c0.63,0.28,0.35,1.01,0.71,1.43c-0.3-1.05,0.24-2.22-0.51-3.2c-0.14-1.47-0.15-2.91,0.84-4.15
				c0.38,0.32,0.53,0.73,0.5,1.21c0.08-1.03,0.29-2.08-0.32-3.04c-0.17-1.19-0.18-2.35,0.74-3.3c-0.67-0.03,0.9-0.15,0.39,0.28
				s-0.05,1.06,0.09,0.42c0.31-1.47,0.42-2.95-0.2-4.39c0.33-2.02,0.67-4.05,1-6.07C120.85,387.4,121.46,387.41,122.08,387.99z"/>
			<path class="st16" d="M116.01,414.83c3.02,6.45,1.9,13.41,2.51,20.16c0.33,3.68-0.54,7.54,1.56,10.97
				c-5.66,0.69-8.58-2.07-7.51-7.2c0.4-1.92,0.76-3.81,0.56-5.77c-0.26-2.08-0.47-4.14,0.72-6.05c1.01-2.55,1.84-5.13,1.3-7.93
				C115.06,417.54,114.98,416.07,116.01,414.83z"/>
			<path class="st17" d="M149.68,467.09c-11.16-3.53-21.71-8.6-32.5-13.05c-1.68-0.69-3.34-1.99-3.75-4.12
				c0.77-0.81,1.72-0.82,2.72-0.61c2.44,0.98,4.77,2.25,7.31,2.98c7.89,3.75,15.89,7.25,23.95,10.63c1.8,0.75,3.79,1.3,4.72,3.32
				C151.75,467.77,150.69,467.36,149.68,467.09z"/>
			<path class="st18" d="M256.08,277.04c12.84,2.25,25.52,5.18,37.99,8.98c-0.46,1.27-1.31,2.16-2.59,2.65
				c-5.44-0.34-10.51-2.36-15.79-3.49c-5.78-1.37-11.45-3.15-17.21-4.6c-1.75-0.44-3.57-0.82-4.69-2.48
				C253.95,276.44,254.86,276.4,256.08,277.04z"/>
			<path class="st19" d="M113.14,432.99c1.25,0.98,1.01,2.34,0.84,3.61c-0.95,7.05-0.97,7.05,6.1,9.36c1.57,0.9,2.9,2.4,4.99,2.01
				c6.94,5.37,15.04,8.52,22.98,11.98c0.36,0.47,0.33,0.9-0.09,1.32c-3.33,1.43-5.59-1.29-8.34-2.13
				c-8.92-3.29-16.74-8.82-25.45-12.5c-0.82-0.07-1.48,0.48-2.26,0.6C109.94,442.27,111.6,437.64,113.14,432.99z"/>
			<path class="st20" d="M360.13,496.25c-0.81,1.76-2.16,2.7-4.13,2.67c-2.17,0.92-4.43,1.07-6.74,0.89
				c-3.29-0.61-6.61-0.94-9.95-0.92c-0.83-0.01-1.65-0.02-2.47-0.14c-3.21-0.63-6.45-0.89-9.72-0.85c-1.36-0.02-2.73,0.03-4.09-0.12
				c-2.66-0.57-5.34-0.94-8.07-0.87c-2.22-0.16-4.5,0.39-6.67-0.52c-0.51-0.4-0.68-0.9-0.51-1.52c0.4-0.45,0.89-0.75,1.47-0.9
				c9.78-0.32,19.5,0.65,29.2,1.57c5.45,0.52,10.95-0.2,16.34,0.9c2.04,0.41,3.21-1.61,5.05-1.71
				C360.4,495.14,360.5,495.65,360.13,496.25z"/>
			<path class="st21" d="M383.86,307.16c-0.75,1.09-1.9,0.86-2.97,0.91c-2.52,2.09-5.12,0.56-7.52-0.09
				c-4.29-1.17-8.55-2.45-12.99-2.95c-1.79-0.64-3.8-0.97-4.72-2.99c0.24-1.57,1.1-1.7,2.32-1
				C366.7,302.67,375.46,304.16,383.86,307.16z"/>
			<path class="st22" d="M371.91,426.97c1.41-10.11,2.76-20.23,5.99-29.98c0.75,0.44,0.29,1.45,0.92,1.95
				c-0.65,4.02-1.3,8.05-1.94,12.07c-1.69,2.45-1.16,5.44-1.95,8.11c-0.02,0.63-0.05,1.27-0.07,1.9c-0.58,1.99-1.16,3.98-1.72,5.98
				C372.72,427.3,372.31,427.31,371.91,426.97z"/>
			<path class="st23" d="M149.68,467.09c0.89-0.17,1.84-0.22,2.37-1.15c0.19-0.15,0.37-0.3,0.56-0.44c1.75-0.45,3.28,0.34,4.87,0.83
				c4.3,2.11,9.14,3.12,12.89,6.36c0.29,0.75,0.28,1.45-0.32,2.06C162.69,473.71,156.35,469.98,149.68,467.09z"/>
			<path class="st24" d="M291.97,288.07c0.03-1.37,0.82-1.97,2.1-2.05c7.16,1.04,14.22,2.46,21.03,4.97
				c-0.44,0.88-1.25,1.29-2.08,1.68c-0.43,0.17-0.88,0.29-1.34,0.35c-2.35,0.18-4.56-0.9-6.92-0.7c-1.44-0.05-2.85-0.2-4.08-1.05
				c-2.12-2.03-4.84-2.24-7.55-2.5C292.67,288.66,292.29,288.42,291.97,288.07z"/>
			<path class="st25" d="M198.98,487.18c-6.05-1.4-11.5-4.3-17.07-6.88c-0.35-0.46-0.39-0.94-0.12-1.45
				c4.21-2.59,7.22,1.57,10.91,1.94c2.32,0.92,4.43,2.2,6.41,3.72c0.32,0.4,0.49,0.87,0.51,1.38
				C199.56,486.39,199.35,486.82,198.98,487.18z"/>
			<path class="st26" d="M218.02,274.09c0.63-0.05,1.26-0.09,2.03-0.15c-1-1.69-3.2-0.11-4.01-1.78c8.35-0.67,16.59,1.34,24.92,0.98
				c-1.26,3.52-4.33,1.84-6.65,2.33c-2.78-0.04-5.55-0.04-8.29,0.61c-2.52,0.31-5.06,0.78-7.47-0.49
				C218.06,275.2,217.88,274.7,218.02,274.09z"/>
			<path class="st27" d="M308.09,495.83c2.29,0.03,4.58,0.07,6.87,0.1c2.58,1.29,5.48-0.28,8.06,0.92c1.31,0.02,2.61,0.04,3.92,0.07
				c0.33,0.23,0.46,0.53,0.36,0.93c-0.34,0.47-0.9,0.63-1.34,0.96c-0.69-0.03-1.37-0.05-2.06-0.08c-2.01-0.85-4.24,0.19-6.24-0.72
				c-1.58-0.08-3.17-0.17-4.75-0.25c-2.03-0.89-4.29,0.14-6.33-0.73c-2.88-0.09-5.76-0.18-8.64-0.28c-0.6-0.69-0.53-1.39-0.06-2.11
				c0.88-0.68,1.9-0.8,2.96-0.74c0.51,0.03,1.02,0.12,1.52,0.25C304.24,494.82,306.45,494.35,308.09,495.83z"/>
			<path class="st28" d="M357.98,301.04c-0.83,0.05-1.61,0.2-2.06,1.03c-2.35,1.83-4.68,0.28-6.95-0.16
				c-2.7-0.52-5.33-1.37-8.08-1.68c-1.14-0.32-2.15-0.79-2.36-2.13c0.34-1.52,1.23-1.77,2.52-1.08
				C346.85,297.68,352.47,299.11,357.98,301.04z"/>
			<path class="st26" d="M341.05,297.01c-0.85,0.08-1.68,0.2-2.12,1.07c-2.39,2.01-4.74,0.38-7.1-0.07
				c-2.76-1.17-5.73-1.64-8.54-2.62c-1.47-0.51-3.55-0.78-2.33-3.28C327.75,293.35,334.45,294.95,341.05,297.01z"/>
			<path class="st29" d="M234.01,274.09c2.31-0.39,4.85,0.89,6.95-0.95c5.19,0.72,10.16,2.29,15.12,3.91
				c-0.84,0.06-1.63,0.21-2.09,1.04c-1.91,1.37-3.88,0.46-5.71-0.06c-3.85-1.09-7.73-1.78-11.74-1.69c-0.84-0.08-1.62-0.32-2.32-0.8
				C233.75,275.12,233.68,274.63,234.01,274.09z"/>
			<path class="st25" d="M325.96,498.81c0.33-0.3,0.66-0.61,0.99-0.91c3.35-0.79,6.69-0.73,10.04-0.03
				c0.65,0.01,1.29,0.02,1.94,0.04c3.25,1.39,6.79-0.29,10.06,0.96c2.33,0.02,4.67,0.04,7,0.06c-0.22,1.01-0.91,1.22-1.82,1.09
				c-3.9,0.64-7.81,0.58-11.71,0.04c-1.86-0.09-3.71-0.19-5.57-0.28c-2.07-0.88-4.35,0.12-6.42-0.74
				C328.98,498.95,327.47,498.88,325.96,498.81z"/>
			<path class="st30" d="M234.57,491.07c-2.53-0.12-5.06-0.23-7.59-0.35c-0.7-0.34-1.82-0.27-1.97-1.15
				c-0.15-0.89,0.74-1.33,1.53-1.58c1.09-0.35,2.23-0.36,3.36-0.31c0.82,0.03,1.63,0.17,2.43,0.37c2.66,0.66,5.36,0.88,8.1,0.87
				c2.92,0.55,6.27-1.37,8.76,1.58c-2.06,2.18-4.92,0-7.14,1.3c-0.69-0.01-1.38-0.02-2.07-0.03
				C238.24,490.96,236.31,491.77,234.57,491.07z"/>
			<path class="st31" d="M182.05,478.89c-0.05,0.47-0.09,0.94-0.14,1.4c-4.3-1.11-8.5-2.42-11.86-5.54c0-0.61,0-1.21,0-1.82
				C175.36,472.29,178.85,475.29,182.05,478.89z"/>
			<path class="st23" d="M297.93,494.96c0.01,0.59,0.01,1.19,0.02,1.78l-0.45,0.12l-0.46-0.04c-1.61-0.98-3.5,0.05-5.13-0.75
				c-2.29-0.08-4.57-0.17-6.86-0.25c-1.6-0.98-3.5,0.05-5.13-0.75c-0.62-0.09-1.25-0.19-1.87-0.28c2.38-4.02,6.26-1.57,9.42-2.2
				c0.86,0.03,1.72,0.13,2.55,0.35C292.5,494.18,295.7,492.67,297.93,494.96z"/>
			<path class="st32" d="M198.98,487.18c0.02-0.42,0.04-0.84,0.05-1.26c2.39-1.97,4.76-0.39,7.14,0.02c2.79,1.32,6.16-0.2,8.83,1.74
				c0.33,0.54,0.29,1.06-0.13,1.54c-1.42,0.26-2.83,0.32-4.23-0.16C206.72,488.66,202.5,490.1,198.98,487.18z"/>
			<path class="st24" d="M320.95,292.11c0.55,3.04,3.43,1.92,5.17,2.72c1.85,0.86,4.15,0.74,5.82,2.23c-0.83,0.92-1.91,1.05-3.06,1
				c-4.11-0.58-8.09-1.78-12.05-2.97c-1.58-0.47-3.82-0.45-3.88-3.02l0,0c2.33-1.55,4.67,0.69,7-0.02
				C320.29,292.08,320.62,292.09,320.95,292.11z"/>
			<path class="st33" d="M169.05,272.09c-2.6-2.43-6.29,0.38-8.94-1.86c6.68-0.71,13.25,0.99,19.91,0.91
				C176.51,273.17,172.69,271.6,169.05,272.09z"/>
			<path class="st32" d="M268.99,493.9c-3.48,0.11-6.97,0.35-10.34-0.82c1.96-2.27,4.62-1.23,7.01-1.47
				c2.33-0.63,4.7-0.87,7.11-0.57c0.52,0.11,0.97,0.35,1.36,0.72c0.21,0.51,0.15,0.99-0.2,1.42
				C272.44,494.57,270.48,492.58,268.99,493.9z"/>
			<path class="st34" d="M288,493.88c-3.3,0.53-6.78-0.89-9.97,0.91c-2.48,0.17-4.96,0.36-7.31-0.73c1.9-0.98,4.2-0.73,6.03-1.96
				c3.18-0.32,6.37-0.17,9.56-0.12c0.54,0.04,1.03,0.21,1.48,0.5C288.23,492.89,288.31,493.36,288,493.88z"/>
			<path class="st35" d="M384.87,361c0.4-3.82-0.06-7.88,3.02-10.96c-0.71,4.31-1.42,8.61-2.13,12.92
				C383.97,362.98,384.34,362.02,384.87,361z"/>
			<path class="st36" d="M111.91,447.23c0.2-0.86,0.26-1.79,1.18-2.27c1.35,2.42,5.75,1.49,5.83,5.31
				c-0.99,0.32-1.94,0.32-2.83-0.31c-0.88-0.01-1.77-0.02-2.65-0.03C112.3,449.38,111.98,448.37,111.91,447.23z"/>
			<path class="st37" d="M381.87,381.98c-1.8-3.83-0.79-7.09,2.03-9.97C383.19,375.32,383.44,378.84,381.87,381.98z"/>
			<path class="st37" d="M384.87,361c0.3,0.65,0.59,1.31,0.89,1.96c-0.14,2.79-0.64,5.5-1.9,8.03
				C381.74,367.41,383.96,364.27,384.87,361z"/>
			<path class="st38" d="M360.93,490.93c0.5-2.71,0.51-5.55,1.96-8.03c0.62,0.07,0.73,0.65,1.04,1.03c0.02,3.19-0.56,6.24-1.95,9.13
				C361.09,492.61,361.52,491.52,360.93,490.93z"/>
			<path class="st39" d="M230.06,488.88c-0.96,0.01-1.92-0.04-2.88,0.05c-2.76,0.26-0.37,1.16-0.2,1.79
				c-1.47,0.19-2.91,0.11-4.26-0.58c-0.95-1.56-2.51-0.36-3.71-0.82c-1.76-0.67-1.3-1.42-0.13-2.24
				C222.73,486.96,226.93,484.62,230.06,488.88z"/>
			<path class="st40" d="M389.86,337.01c-1.67-3.53,0.12-6.71,1.01-9.98c0.05,0.77,0.15,1.52,0.92,1.95
				C391.62,331.78,391.15,334.49,389.86,337.01z"/>
			<path class="st32" d="M254.02,492.82c-2.46,0.09-4.93,0.32-7.25-0.78c0.98-0.95,2.6-0.45,3.5-1.57c2.56-0.42,5.14-0.68,7.73-0.51
				c1.39,0.09,3.1-0.18,3.15,2.04C258.86,493.06,256.3,491.73,254.02,492.82z"/>
			<path class="st41" d="M364.9,472.93c0.39-3.84-0.08-7.91,3.02-11c-0.69,3.67-1.38,7.34-2.07,11.01
				C365.54,473.41,365.22,473.39,364.9,472.93z"/>
			<path class="st42" d="M371.75,441.87c-1.44,2.56,0.14,5.76-1.76,8.22c-0.93-0.45-1.33-1.29-1.65-2.2
				c-0.1-2.93-1.02-6.07,2.11-8.17C371.71,439.94,371.18,441.24,371.75,441.87z"/>
			<path class="st2" d="M378.91,392.99c1.36-2.86-0.63-6.83,2.95-8.97c-0.05,3.13-0.65,6.14-2.05,8.97
				C379.51,393.43,379.21,393.46,378.91,392.99z"/>
			<path class="st33" d="M387.92,349.09c-0.8-3.62-0.95-7.12,1.94-10.03C388.22,342.22,389.87,346,387.92,349.09z"/>
			<path class="st43" d="M254.02,492.82c2.17-1.77,4.75-0.49,7.09-0.97c1.65-1.5,3.27-0.96,4.87,0.09c-2.2,1.95-4.94,0.46-7.34,1.14
				C257.1,492.99,255.56,492.9,254.02,492.82z"/>
			<path class="st11" d="M156.99,270.21c-3.22,1.04-6.46,1.88-9.87,0.98C150.23,269.07,153.67,270.22,156.99,270.21z"/>
			<path class="st44" d="M135.08,313.06c-1.74,0.22,0.08,2.99-2.08,2.89c-0.24-2.71,0.69-5.24,1.19-7.83
				C135.72,309.55,134.84,311.4,135.08,313.06z"/>
			<path class="st45" d="M136.21,296.14c1.69,2.94,1.12,5.56-1.14,7.93C134.77,301.33,135.77,298.78,136.21,296.14z"/>
			<path class="st46" d="M115.17,419.01c1.93,3.03,0.6,5.53-1.3,7.93C113.96,424.24,114.25,421.57,115.17,419.01z"/>
			<path class="st47" d="M342.47,500.04c3.9-0.01,7.81-0.03,11.71-0.04C350.28,501.63,346.37,501.14,342.47,500.04z"/>
			<path class="st48" d="M218.02,487.91c1.02,1.43,2.55,0.86,3.9,1c0.78,0.08,1.72,0.05,0.8,1.23c-1.91-0.12-3.82-0.25-5.73-0.37
				c-0.55-0.54-1.52-0.14-1.98-0.88c0-0.31,0-0.62,0-0.93c0.3-0.36,0.68-0.61,1.14-0.73C216.88,487.16,217.52,487.33,218.02,487.91z
				"/>
			<path class="st40" d="M371.91,426.97c0.34,0,0.68,0,1.01,0c0.28-0.49,0.57-0.47,0.87-0.03c0.14,2.12,0.65,4.28-0.74,6.22
				c-1.02-0.46-1.5-1.35-1.84-2.35c-0.26-1.07-0.08-2.03,0.69-2.85C371.9,427.63,371.91,427.3,371.91,426.97z"/>
			<path class="st41" d="M368.93,447.96c0.84,0.47,0.94,1.3,1.07,2.13c0.43,2.1-0.91,3.86-1.09,5.84c-1.21-0.7-0.94-1.89-0.98-2.98
				c0.93-1.42-0.71-3.13,0.5-4.53C368.58,448.27,368.76,448.12,368.93,447.96z"/>
			<path class="st49" d="M130.96,327.98c2.04,2.12,1.28,3.73-0.92,5.08C130.04,331.31,129.75,329.51,130.96,327.98z"/>
			<path class="st13" d="M364.9,472.93c0.32,0,0.64,0,0.96,0c0.14,1.78,0.25,3.55-0.8,5.15
				C362.98,476.42,364.18,474.67,364.9,472.93z"/>
			<path class="st26" d="M319.96,292.06c-2.33,2.28-4.67-0.98-7,0.02c0.45-0.88,1.3-0.98,2.15-1.08
				C316.81,290.95,318.46,291.14,319.96,292.06z"/>
			<path class="st41" d="M363.93,483.93c-0.35-0.34-0.69-0.69-1.04-1.03c0.19-1.59-0.6-3.69,2.07-4
				C364.99,480.65,364.95,482.39,363.93,483.93z"/>
			<path class="st50" d="M374.93,419.11c0.07-2.84-0.67-5.88,1.95-8.11C376.33,413.73,376.43,416.61,374.93,419.11z"/>
			<path class="st51" d="M249.97,490.99c-0.81,1.14-2.11,0.77-3.21,1.05c-1.57-0.08-3.15-0.16-4.72-0.24
				c2.15-1.73,4.69-0.46,7.01-0.93C249.4,490.61,249.71,490.64,249.97,490.99z"/>
			<path class="st51" d="M276.98,492.91c-1.81,1.88-4.23,0.46-6.26,1.15c-0.58-0.05-1.16-0.11-1.74-0.16
				c1.42-1.67,3.38-0.69,5.07-1.04C275.04,492.12,276.02,492.04,276.98,492.91z"/>
			<path class="st2" d="M378.91,392.99c0.3,0,0.6,0,0.89,0c0.8,2.17-0.67,3.96-0.98,5.94c-0.79-0.42-0.89-1.17-0.92-1.95
				C378.24,395.66,378.58,394.32,378.91,392.99z"/>
			<path class="st10" d="M360.93,490.93c0.84,0.47,0.96,1.29,1.05,2.12c0.01,1.43-0.8,2.38-1.86,3.2c-0.07-0.45-0.14-0.9-0.2-1.35
				c-0.62-0.66-0.57-1.33,0-1.99C360.26,492.25,360.59,491.59,360.93,490.93z"/>
			<path class="st52" d="M122.08,387.99c-0.62,0-1.24-0.01-1.86-0.01c0.35-1.63,0.69-3.26,1.04-4.89
				C122.69,384.53,121.86,386.35,122.08,387.99z"/>
			<path class="st10" d="M371.75,441.87c-0.29-0.64-0.58-1.28-0.86-1.93c-1.61-1.04-2.32-2.13-0.23-3.42c0.53-0.06,1,0.09,1.41,0.45
				C371.96,438.61,371.85,440.24,371.75,441.87z"/>
			<path class="st53" d="M373.8,426.94c-0.29,0.01-0.58,0.02-0.87,0.03c0.08-2.17,0.49-4.23,1.94-5.95
				C375.61,423.18,374.1,424.95,373.8,426.94z"/>
			<path class="st16" d="M139.07,290.06c-1.22-0.75-0.87-2.05-1.09-3.15c0.02-1.11-0.21-2.31,1.06-2.98
				C139.05,285.97,139.06,288.01,139.07,290.06z"/>
			<path class="st54" d="M125.2,360.08c1.52,1.42,0.65,3.27,0.87,4.92c-0.61-0.33-1.22-0.65-1.83-0.98
				C124.57,362.71,124.88,361.4,125.2,360.08z"/>
			<path class="st55" d="M215.01,488.9c0.66,0.29,1.32,0.59,1.98,0.88c-2.16,0.16-4.32,0.35-6.35-0.72
				C212.1,489.01,213.56,488.95,215.01,488.9z"/>
			<path class="st40" d="M372.06,436.98c-0.39-0.02-0.78-0.05-1.17-0.07c-1.4-1.82-1.56-3.56,0.36-5.14
				c2.21,0.73,0.43,2.95,1.52,4.1C372.54,436.24,372.3,436.61,372.06,436.98z"/>
			<path class="st52" d="M119.22,394.05c1.39,1.27,0.78,2.93,0.8,4.45c0.01,0.67-0.49,0.58-0.8,0.14c-0.17-0.24-0.19-0.59-0.27-0.9
				C119.04,396.51,119.13,395.28,119.22,394.05z"/>
			<path class="st56" d="M124.2,366.07c0.58,1.54,2.83,3.49-0.97,3.95C123.55,368.71,123.88,367.39,124.2,366.07z"/>
			<path class="st57" d="M306.59,497.02c2.13,0.1,4.37-0.84,6.33,0.73C310.76,497.88,308.61,498.04,306.59,497.02z"/>
			<path class="st58" d="M317.66,498.01c2.1,0.09,4.31-0.8,6.24,0.72C321.78,498.86,319.67,498.87,317.66,498.01z"/>
			<path class="st59" d="M128.25,342.12c1.32,1.55,0.91,3.25,0.23,6.23c-0.28-1.97-0.39-2.73-0.49-3.48
				C128.08,343.95,128.16,343.04,128.25,342.12z"/>
			<path class="st41" d="M367.85,460.89c-1.32-1.73-1.68-3.21,1-3.92C368.52,458.28,368.19,459.58,367.85,460.89z"/>
			<path class="st60" d="M330.48,499.02c2.15,0.12,4.43-0.85,6.42,0.74C334.72,499.9,332.54,499.96,330.48,499.02z"/>
			<path class="st61" d="M132.23,319.13c1.16,0.94,0.85,2.24,0.79,3.45c-0.03,0.59-0.45,0.66-0.79,0.18
				c-0.17-0.24-0.18-0.59-0.26-0.89C132.06,320.96,132.14,320.04,132.23,319.13z"/>
			<path class="st46" d="M118.21,401.04c1.41,1.2,0.71,2.65,0.16,4.09c-0.11-0.75-0.22-1.5-0.33-2.26
				C118.09,402.27,118.15,401.65,118.21,401.04z"/>
			<path class="st12" d="M291.9,496.08c1.77-0.17,3.59-0.64,5.13,0.75C295.27,496.91,293.47,497.33,291.9,496.08z"/>
			<path class="st56" d="M126.22,354.1c1.18,0.93,0.86,2.24,0.8,3.45c-0.03,0.59-0.44,0.66-0.79,0.18
				c-0.17-0.24-0.18-0.59-0.26-0.89C126.06,355.93,126.14,355.01,126.22,354.1z"/>
			<path class="st39" d="M234.57,491.07c1.83-0.02,3.76-0.77,5.4,0.69C238.13,491.88,236.27,492.09,234.57,491.07z"/>
			<path class="st13" d="M372.79,435.87c-1.35-1.06-0.72-2.57-0.89-3.9c-0.22-0.22-0.29-0.44-0.21-0.66
				c0.08-0.22,0.16-0.32,0.23-0.32c0.88,0.46,0.94,1.35,1.14,2.17C372.97,434.06,372.88,434.96,372.79,435.87z"/>
			<path class="st46" d="M117.19,407.03c1.27,1.23,1.08,2.62,0.26,4.79c-0.22-1.46-0.34-2.23-0.45-3.01
				C117.06,408.21,117.12,407.62,117.19,407.03z"/>
			<path class="st12" d="M279.91,495.08c1.78-0.25,3.59-0.65,5.13,0.75C283.29,495.88,281.48,496.32,279.91,495.08z"/>
			<path class="st62" d="M172.05,273.09c2.33,0,4.66,0,6.99,0c-0.86,0.44-1.71,0.9-2.58,1.32c-2.67,1.27-5.57,2.38-1.26,5.39
				c3.5,2.44,2.83,6.93,2.25,9.6c-2.61,11.88-1.49,23.97-2.54,35.91c-0.49,5.54,0.32,11.73,0.17,17.51
				c-0.13,5.08-0.64,10.23-0.52,15.34c0.24,10.73,1.56,21.44,1.69,32.12c0.09,7.78,0.37,15.57,1.58,23.1
				c1.25,7.74,0.64,15.61,2.78,23.3c1.53,5.5,0.16,11.98,2.29,17.11c2.77,6.68-0.56,15.95,8.14,20.14
				c-7.09,0.67-15.37-5.45-16.59-12.06c-1.49-8.12-2.15-16.36-3.4-24.48c-2.53-16.44-3.25-32.97-4.32-49.5
				c-1.78-27.43-0.82-54.86,0.63-82.26c0.31-5.87,0.87-11.86,1.72-17.75c0.35-2.48,0.48-4.96-1.76-6.89
				c-1.56-1.35-2.79-3.08-1.8-5.25c0.88-1.94,2.83-2.07,4.7-2.11C170.87,273.59,171.54,273.63,172.05,273.09z"/>
			<path class="st63" d="M172.05,273.09c-0.75,1.18-2.08,0.81-3.14,1.2c-3.21,1.18-4.07,3.29-1.1,5.35
				c3.03,2.11,2.93,4.93,2.63,7.78c-0.48,4.53,0.13,9.37-0.83,13.53c-2.59,11.24-1.48,22.54-2.13,33.78
				c-0.52,9.1-0.65,18.21-0.02,27.35c0.4,5.83-1.01,11.82-0.3,17.57c0.87,7.04-0.57,14.33,2.4,21.17c0.79,1.81-0.6,3.86-0.49,6.07
				c0.41,8.71,0.92,17.55,2.22,26.01c0.86,5.58,1,11.44,2.45,17.09c0.99,3.85,1.65,8.09,1.87,12.2c0.2,3.82,1.9,6.03,5.44,7.3
				c3.42,1.23,6.33,3.68,9.98,4.44c1,0.67,2,1.33,2.99,2c0.19,0.12,0.39,0.24,0.58,0.36c0.96,1.91,3.41,3.27,2.19,5.98
				c-2,0.62-2.89-1.08-4.18-1.98c-0.41-0.57-0.73-1.19-1.01-1.83c-3.22-3.44-7.84-4.47-11.7-6.8c-1.76-1.06-4.07-1.41-4.87-3.73
				c-1.46-2.74-5.95-2.79-6.03-6.75c-0.16-7.67-2.54-15.03-2.73-22.81c-0.11-4.5-1.52-9.82-1.5-14.19
				c0.04-6.97-2.05-13.62-1.56-20.72c0.38-5.54-0.65-11.68-0.98-17.5c-0.46-8.22-1.97-16.56-0.46-24.76
				c1.13-6.15-0.63-12.12,0.03-18.24c0.82-7.55,0.61-15.2,0.89-22.81c0.15-3.99-0.14-8.09,0.7-11.94
				c1.43-6.57,0.18-13.32,2.01-19.87c1.29-4.59-0.25-8.73-4.7-11.56C163.91,273.29,167.89,272.93,172.05,273.09z"/>
			<path class="st21" d="M195.03,274.09c-0.55,0.32-1.1,0.88-1.66,0.91c-1.89,0.1-3.94,0.19-4.56,2.25
				c-0.65,2.17,1.45,3.51,2.82,4.21c2.27,1.16,2.62,2.76,2.4,4.84c-0.66,6.32-0.31,12.66-1.35,19.02
				c-0.92,5.66-0.17,11.64,0.17,17.46c0.36,6.03-0.93,11.96-0.37,18.04c0.75,8.16,0.77,16.41,0.78,24.62
				c0.01,8.67,1.9,17.16,2.06,25.86c0.09,4.87-0.37,10.19,2.08,15.01c0.99,1.94-0.38,4.35,0,6.75c1.22,7.58,1.8,15.26,2.63,22.9
				c0.73,0.75,1.14,1.68,0.97,2.68c-1.14,6.93-1.33,14.02-3.43,20.78c-0.32,0.42-0.74,0.68-1.26,0.76
				c-1.66-1.58-1.35-3.65-1.26-5.59c0.4-8.29-0.02-16.48-2.83-24.39c-0.42-1.18-0.36-2.25,0.19-3.36c0.53-1.08,0.77-2.27,0.37-3.4
				c-4.04-11.44-2.91-23.49-4.46-35.22c-0.93-7.05-1.13-14.18-1.23-21.13c-0.14-9.63-1.6-19.24-0.26-29.03
				c0.77-5.61-0.92-11.67-0.81-17.65c0.1-5.35,0.5-10.69,0.98-15.98c0.54-5.93-0.11-11.93,1.23-17.8c0.48-2.12-0.51-3.81-1.89-5.41
				c-4.11-4.72-4.01-5.02,1.7-7.16C190.37,274.09,192.7,274.09,195.03,274.09z"/>
			<path class="st64" d="M188.04,274.09c-3.66,2.06-4.52,3.81-0.39,6.79c3.91,2.82,1.05,7.23,1.27,10.96
				c0.31,5.09-1.71,10.16-0.07,15.21c0.73,2.24-0.58,4.61-0.88,6.41c-1.16,6.79-0.53,13.37-0.31,20.06
				c0.22,6.59-0.1,13.19,0.08,19.78c0.24,8.51,1.3,17.04,0.97,25.52c-0.26,6.57,2.27,12.73,1.54,19.3
				c-0.75,6.78,1.89,13.39,1.73,20.26c-0.03,1.3,2.44,4.13,2.17,6.1c-1.13,8.15,2.51,15.7,2.43,23.66
				c-0.04,3.93-0.36,7.86-0.55,11.79c-0.33,0.35-0.66,0.35-1,0c-3.28-6.93-4.29-14.33-4.56-21.88c-0.02-0.64-0.06-1.39-0.39-1.89
				c-3.38-4.97-1.08-10.65-2.01-15.93c-1.01-5.73-1.24-11.57-2.9-17.24c-1.13-3.85-0.15-8-0.47-12.04c-0.52-6.56-1-13.24-1.1-19.9
				c-0.15-10.3-1.2-20.49-0.09-30.89c0.58-5.4,0.69-11.24-0.2-16.9c-1.04-6.63,0.73-13.28,0.7-19.91
				c-0.03-6.3,0.57-12.52,0.94-18.78c0.13-2.26-1.99-3.99-3.19-5.34c-3.25-3.65-0.88-3.94,1.89-4.48
				C185.1,274.48,186.57,274.31,188.04,274.09z"/>
			<path class="st21" d="M195.03,459.94c0.33,0,0.66,0,1,0c0,0,0,0,0,0c2.97,5.29,0.1,10.41-0.46,15.6c-0.4,0.57-0.92,0.7-1.55,0.39
				c0,0,0,0,0,0C193.37,470.54,195.42,465.31,195.03,459.94z"/>
			<path class="st65" d="M195.04,475.93c0.33-5.33,0.67-10.66,1-15.98c2.48-7.8,2.67-15.99,4-23.98c2.51-7.35,2.39-15.15,3.94-22.67
				c0.7-3.37,1.47-6.79,1.06-10.3c0.66-12.11,1.76-24.15,0.09-36.36c-1.3-9.48-1.09-19.2-1.46-28.81
				c-0.24-6.33,0.54-12.61-0.35-19.1c-0.85-6.16-0.72-13.21,0.87-19.44c1.23-4.81-1.09-9.23,0.3-13.8c0.44-1.43-1.35-2.1-2.42-2.83
				c-1.74-1.18-3.3-2.84-3.09-4.84c0.26-2.44,3.06-2.03,4.75-2.89c1.36-0.69,3.02,0.23,4.3-0.83c3.33,0,6.66,0,9.99,0
				c0,0.33,0,0.67,0,1c-0.16,0.17-0.32,0.34-0.48,0.51c-2.61,0.97-5.51,1.13-7.84,2.63c-0.24,0.4-0.35,0.88-0.11,1.02
				c8.67,4.89,5.01,12.86,4.78,19.85c-0.07,2.11-1.16,4.16,0.3,6.18c0.5,0.7,0.67,1.51,0.52,2.37c-1.68,9.68,0.44,19.39-0.04,28.96
				c-0.4,7.94,0.76,16.02-1.17,23.89c-0.07,0.49-0.19,0.97-0.33,1.45c-0.59,2.55-0.17,5.14-0.35,7.7
				c-1.91,9.63-2.92,19.39-4.24,29.11c-2.41,12.01-3.7,24.2-5.59,36.29c-1.71,10.94-2.96,21.95-4.59,32.9
				c-0.25,1.65-0.53,3.28-0.41,4.93c0.39,5.05,4.17,8.1,9.17,7.2c4.13-0.74,8.26-0.49,12.4-0.44c1.78,0.02,3.77-0.01,4.42,2.33
				c-0.02,0.63-0.28,1.13-0.78,1.5c-6.47,1.72-13.06,0.49-19.59,0.78C198.97,483.76,196.04,480.88,195.04,475.93z"/>
			<path class="st28" d="M208.03,274.09c-1.14,1.55-3.04,1.09-4.55,1.66c-4.21,1.59-4.58,2.73-1.4,5.84c2.14,2.09,7.4,3.23,2.2,7.47
				c3.49,2.29,2.47,5.8,1.33,8.38c-2,4.49,2,9.58-1.85,13.63c4.9,2.51-3.27,7.55,2,10.35c0.84,0.45-0.41,3.59-0.49,5.56
				c-0.64,15.61,0.23,31.08,1.87,46.63c1.02,9.72,0.91,19.75-2.11,29.38c-0.85-3.49-0.9-7.81-2.2-10.36
				c-1.76-3.45,3.4-7.95-2.12-9.91c3.32-5.73-2.85-12.04-0.55-16.26c3.39-6.22-3.32-11.38,0.18-17.11c0.51-0.84-0.45-5.2-0.6-7.79
				c-0.6-10.2,0.16-20.43,0.37-30.63c0.14-6.6,1.4-13.28,0.4-19.92c-0.05-0.32-0.29-0.74-0.16-0.95c2.7-4.69-0.39-7.56-3.3-10.42
				c-1.79-1.76-2.03-2.79,0.8-3.68C201.18,274.9,204.44,273.69,208.03,274.09z"/>
			<path class="st35" d="M159.06,272.09c2,0,4,0,6,0c-0.98,1.46-2.69,1.13-4.03,1.42c-3.21,0.68-4.88,2.12-3.97,5.57
				c4.69,2.78,1.85,7.28,1.43,10.35c-0.94,6.88-0.94,13.8-1.78,20.67c-1.86,15.27-1.39,30.68-1.91,46.03
				c-0.06,1.62-0.16,3.27,0.26,4.88v0c0.11,13.75-0.83,27.47,0.47,41.25c1.35,14.34,2.09,28.74,3.23,43.11
				c0.4,5.12,1.88,10.11,1.71,15.29c-0.4,0.72-1.06,0.92-1.82,0.92c-0.48-0.08-0.93-0.24-1.35-0.48c-1.66-1.24-2.73-2.76-3.03-4.92
				c-1.19-8.49-1.87-17.01-2.17-25.57c-0.34-9.55-1.51-19.05-2.07-28.58c-0.82-13.7-0.31-27.4-0.89-41.08
				c-0.29-6.77-0.4-13.81,0.96-20.72c0.96-4.85,0.03-9.94,0.26-14.93c0.6-13.2,1.81-26.36,3.16-39.5c0.25-2.48-0.12-4.43-1.81-6.4
				c-3.17-3.68-2.22-5.71,2.56-6.53C155.85,272.59,157.58,273.09,159.06,272.09z"/>
			<path class="st66" d="M160.06,460.94c-0.86-4.57-1.97-9.11-2.52-13.72c-0.72-6-1.02-12.05-1.45-18.08
				c-0.62-8.75-1.22-17.49-1.78-26.24c-0.48-7.49-1.34-15-1.16-22.48c0.13-5.69,1.83-11.32-0.37-17.01
				c-0.52-1.35,2.82-0.29,2.28-2.39c3.01,2.36,2.38,6.05,2.18,8.85c-0.88,12.41-0.26,24.86,0.76,37.1
				c1.07,12.76,0.66,25.76,3.83,38.31c0.88,3.47,0.39,7.02,0.8,10.5c0.39,3.41,1.47,5.77,3.42,8.15c-0.47,0.6-1.12,0.83-1.85,0.9
				c-0.97,0.01-1.84-0.27-2.55-0.96C160.9,463.02,160.19,462.14,160.06,460.94z"/>
			<path class="st66" d="M155.06,361.02c-3.3-4.89-2.04-10.68-1.31-15.51c1.07-7.1,0.05-14.06,0.61-21.07
				c0.5-6.38,1.35-12.74,1.66-19.15c0.31-6.33,1.3-12.64,1.39-18.96c0.03-2.35,2.85-5.03-0.35-7.24c3.01,0.34,4.33,1.77,3.89,5.01
				c-2.47,18.33-3.35,36.79-3.89,55.24c-0.17,5.72-1.09,11.64,0.61,17.45C157.99,357.85,155.99,359.59,155.06,361.02z"/>
			<path class="st67" d="M175.05,467.93c5.93,3.45,12.75,5.29,17.98,10c-0.13,0.1-0.29,0.31-0.4,0.28
				c-8.03-1.92-15.51-4.98-21.77-10.55c0.06-0.24,0.13-0.49,0.19-0.73C172.38,467.27,173.72,467.6,175.05,467.93z"/>
			<path class="st67" d="M164.05,463.94c0.67,0,1.33,0,2,0c2.13,0.22,3.51,1.7,5,3c0,0-0.01,0.01-0.01,0.01
				C167.72,468.25,165,468.16,164.05,463.94z"/>
			<path class="st67" d="M159.06,272.09c-1.59,1.48-3.69,1.04-5.55,1.52c-1.83,0.47-4.22,2.28-2.22,3.66
				c6.47,4.46,3.18,10.6,2.91,15.75c-0.28,5.33-0.66,10.74-1.21,16c-0.79,7.52-1.2,15-1.51,22.54c-0.39,9.44-1.71,18.98-1.36,28.27
				c0.31,8.02-0.95,16.19,0.93,24.16c0.54,2.29-0.21,4.61-0.42,6.78c-0.59,6.32,1.08,12.47,0.61,18.86
				c-0.31,4.12,1.04,9.23,1.61,13.74c0.72,5.64,1.57,11.57,1.04,17.36c-0.52,5.69,2.04,10.98,1.63,16.64
				c-0.08,1.12,1.64,2.36,2.53,3.55c-4.6,0.88-7.04-2.57-9.99-5c1.49-6.6-0.51-13.06-0.79-19.59c-0.27-6.38-0.05-12.88-1.27-19.09
				c-0.87-4.45-0.23-8.87-1.25-13.29c-0.85-3.7-0.36-7.72-0.35-11.59c0.02-7.14-0.11-14.28,0.26-21.4
				c0.62-11.87,0.17-23.75,0.6-35.63c0.35-9.96,2.18-19.79,1.79-29.85c-0.18-4.55,0.19-9.58,1.48-14.27
				c1.31-4.76,1.87-9.59-1.81-13.71c-1.49-1.68-0.62-2.45,0.8-3.4C151.09,271.72,155.09,272.08,159.06,272.09z"/>
			<path class="st53" d="M148.07,455.94c3.33,1.67,6.66,3.33,9.99,5c0,0,0,0,0,0c1.28,0.76,2.87,0.93,4,2c0.43,0.8,1.18,0.98,2,1
				c1.62,2.65,4.41,2.59,6.99,3c6.57,5.18,14.51,7.62,21.98,10.99c0.01,0.65,0.03,1.3,0.04,1.95c-0.52,0.63-1.21,0.84-2,0.8
				c-0.48-0.12-0.93-0.31-1.36-0.56c-7.52-4.75-16.15-7.17-23.92-11.39c-5.33-2.77-11.02-4.9-15.71-8.8c-2.58-3.26-6.72-3.9-10-5.99
				c0-0.33,0-0.67,0-1c2.05-10.92-1.17-21.63-1.59-32.45c-0.47-12.09-0.37-24.19-0.87-36.27c-0.38-9.11,0.27-18.27,0.54-27.41
				c0.03-0.94,0.6-1.86,0.92-2.79c2.61,0.77,1.56,3.03,1.67,4.61c0.34,5-2.1,9.78,0.34,15.23c1,2.23,0.5,7.06-0.41,10.24
				c-2.11,7.39,1.31,14.41,0.3,21.75c-0.8,5.83,0.22,12.01,1.09,17.94c1,6.81-0.36,13.78,1.83,20.5c0.46,1.42-0.29,3.23-0.46,4.86
				C143.08,452.71,144.01,455.4,148.07,455.94z"/>
			<path class="st53" d="M139.07,354.02c-1.94-3.81-1.85-8.49-1.01-11.86c1.71-6.8,0.33-13.5,1.28-20.19
				c1.17-8.24,1.18-16.61,2.46-24.88c0.92-5.93,0.88-12.01,1.26-18.02c1.6-0.02,2.53,0.05,2.67,2.36c0.36,5.78-0.79,11.32-1.81,16.9
				c-0.88,4.77-0.48,9.61-1.18,14.44c-1.59,10.94-0.49,22.09-2.2,33.09C140.13,348.61,141.48,351.61,139.07,354.02z"/>
			<path class="st68" d="M150.08,459.93c5.77,1.79,10.77,5.11,16,7.99c-0.51,0.63-1.2,0.88-1.98,0.95
				c-3.25-0.32-5.76-2.69-8.93-3.23c-2.42-1.49-5.71-1.66-7.11-4.7c0-0.33,0-0.67,0-1C148.73,459.94,149.4,459.94,150.08,459.93z"/>
			<path class="st5" d="M366.91,451.95c-1.67,7.95-3.32,15.9-5.03,23.84c-0.16,0.75-0.64,1.43-0.96,2.14
				c-3.06,4.11-7.37,7.11-10.2,11.45c-0.55,0.85-1.44,1.41-2.51,1.35c-11.63-0.7-23.33,0.08-34.92-1.61
				c-0.14-0.02-0.26-0.2-0.38-0.3c-0.36-1.45,0.8-1.62,1.7-1.83c1.79-0.42,3.66-0.47,5.44-0.22c10.05,1.37,15.74-4.13,21.88-11.35
				c6.18-7.27,10.84-15.59,17.25-22.71c3.11-3.45,6.64-7.9,7.14-13.5c0.27-3.04,0.81-3.01,3.14-2.25
				C368.89,441.99,368.51,447.07,366.91,451.95z"/>
			<path class="st21" d="M312.95,487.92c4.97,2.27,10.33,0.78,15.49,1.49c5.68,0.79,11.52,0.36,17.28,0.52
				c2.09,0.06,3.27-0.53,4.74-2.46c2.84-3.71,5.67-7.82,10.46-9.55c0.02,1.99-0.28,3.89-0.74,5.86c-1.99,8.57-1.9,8.62-10.53,8.11
				c-4.39-0.26-8.78-1.06-13.15-0.9c-12.24,0.44-24.39-1.23-36.6-1.11c-7.59,0.07-15.12-1.55-22.75-1.03
				c-0.7,0.05-1.45-0.6-2.17-0.93c6.54-2.87,13.39-1.44,20.03-0.99c5.14,0.35,10.22,0.7,15.35,0.24
				C311.32,487.08,312.22,487.23,312.95,487.92z"/>
			<path class="st5" d="M310.95,487.92c-4.08,2.13-8.59,1.41-12.63,0.78c-7.81-1.22-15.58-0.4-23.35-0.78c-3.66,0-7.32,0-10.99-0.01
				c-3.91-1.4-8.08,0.35-11.99-1c-1,0-2,0-3,0c-5.99-1.62-12.07-0.15-18.1-0.36c-7.58-0.27-15.08-1.6-22.69-1.31
				c-1.91,0.07-4.5,0.76-5.18-2.31c7,0,13.99,0,20.99,0c6.42-0.66,12.83-0.36,19.24,0.1c1.84,0.28,3.69,0.59,5.57,0.29
				c0.49,0,0.98,0.06,1.46,0.15c5.3,0.06,10.59,0.4,15.88,0.57c0.82-0.08,1.63-0.03,2.44,0.12c7.35,1.04,14.77-0.05,22.15,0.73
				c2.77,0.3,5.52,0.72,8.3,1.01C302.85,487.53,307.35,485.16,310.95,487.92z"/>
			<path class="st9" d="M359.92,492.91c0,0.66,0,1.33,0,1.99c-5.98,3.92-12.64,2.09-18.88,1.66c-10.7-0.73-21.36-1.92-32.1-1.74
				c-6.97-0.86-14.07-0.34-20.99-1.89l0.02,0c-4.59-1.48-9.42,0.36-14.02-1l0.02,0.01c-2.2-1.45-4.9,0.38-7.09-1.11
				c2.4-1.77,5.18-1.04,7.69-0.8c14.28,1.32,28.57,2.32,42.91,2.97c12.16,0.55,24.31,1.68,36.43,2.81
				C356.8,496.09,357.92,493.85,359.92,492.91z"/>
			<path class="st69" d="M218.02,487.91c-0.64-0.01-1.28-0.03-1.92-0.04c-3.26-1.31-6.81,0.39-10.07-0.95
				c-2.33-0.34-4.66-0.67-6.99-1.01c-0.02-0.3-0.05-0.59-0.08-0.89c-0.77-0.81-2-1.6-0.16-2.57c7.53,3.26,15.66,1.79,23.45,2.94
				c4.89,0.72,9.93,0.08,14.76,1.52c2.62,1.99,5.65,0.57,8.46,1c1.85,0.28,3.93-0.69,5.53,1c-3.58,1.06-7.24,0.23-10.86,0.49
				c-2.71-0.23-5.47,0.5-8.13-0.47c-0.65-0.01-1.3-0.03-1.95-0.04C226.17,487,222.03,488.28,218.02,487.91z"/>
			<path class="st4" d="M237.01,486.92c-10.98-0.67-21.96-1.27-32.92-2.1c-2.06-0.15-4.05-1.23-6.07-1.88
				c-0.92,0.25-1.23-0.09-0.99-1c-1.06-1.97-2.89-3.57-2.99-6.02c0.33,0,0.67,0,1,0c1.58,3.57,3.86,6.34,7.99,7
				c1.14,1.4,2.73,0.92,4.17,0.99c13.2,0.68,26.41,1.33,39.61,2.06c0.74,0.04,1.46,0.62,2.18,0.94
				C245,486.92,241,486.92,237.01,486.92z"/>
			<path class="st70" d="M239.96,488.95c3.68-0.01,7.36-0.03,11.04-0.04c0,0,0,0,0,0c4.58,1.44,9.4-0.37,13.99,1
				c0.42,0.74,1.12,0.91,1.9,0.92c2.33,0.55,4.98-0.89,7.09,1.11c-2.66,0-5.33,0-7.99-0.01c-1.62-0.03-3.25-0.06-4.87-0.09
				c-3.55-2.43-7.5,0.43-11.14-0.86c-0.3-0.08-0.61-0.12-0.92-0.12c-2.83-1.81-6.01-0.57-8.99-0.99c-0.35-0.17-0.48-0.36-0.39-0.58
				C239.76,489.06,239.85,488.95,239.96,488.95z"/>
			<path class="st22" d="M366.91,451.95c-0.52-5.48,2.26-10.54,2-15.99c-0.34-0.31-0.49-0.69-0.46-1.14
				c0.21-1.25,0.38-2.51,0.55-3.77c0.08-0.41,0.21-0.81,0.37-1.19c0.38-0.74,0.78-1.46,1.54-1.89c0.33,0,0.66,0,0.99-0.01
				c0.01,1.01,0.01,2.01,0.02,3.02c0,0.33,0,0.66-0.02,0.98c-1.64,1.38-0.75,3.28-1,4.94c-1.55,1.01-0.3,2.03-0.01,3.04
				c-2.25,2.28-1.26,5.35-1.96,8.02c0,0-0.01-0.01-0.01-0.01c-1.14,1.13,0.1,2.86-1.01,3.99
				C367.57,451.94,367.24,451.95,366.91,451.95z"/>
			<path class="st69" d="M264.99,489.91c-4.65-0.47-9.45,1.08-13.99-1C255.65,489.4,260.45,487.82,264.99,489.91z"/>
			<path class="st4" d="M251.99,486.92c3.98,0.5,8.14-1.08,11.99,1C260,487.41,255.85,488.99,251.99,486.92z"/>
			<path class="st40" d="M367.9,451.94c0.16-1.38-0.45-2.95,1.01-3.99c-0.22,1.69,0.63,3.59-0.99,5.01
				C367.91,452.62,367.91,452.28,367.9,451.94z"/>
			<path class="st71" d="M267.98,484.92c-0.67,0-1.33,0-2,0c-5.62-1.09-11.37,0.13-16.99-1c-1.74-0.3-3.53-0.03-5.26-0.49
				c-4.09-0.46-8.19-0.57-12.3-0.54c-1.59,0.01-3.35,0.45-4.6-1.07c-0.23-0.48-0.27-0.98-0.11-1.49c0.3-0.41,0.7-0.68,1.19-0.8
				c9.96,0.34,19.95,0,29.89,0.96c3.84,0.37,6.75-1.59,9.53-3.67c2.49-1.86,4.36-4.62,7.97-4.52c1.5,0.04,0.98-1.44,1.42-2.2
				c1.05-1.86,1.39-5.21,2.88-5.52c5.6-1.19,7.72-5.22,9.66-9.72c0.27-0.62,1.23-0.58,1.65-1c0.86-0.84,4.72,1.93,2.82-2.32
				c-0.22-0.49,0.86-0.98,1.52-0.96c5.79,0.17,6.46-4.16,7.13-8.28c0.27-1.68,0.44-2.59,2.49-2.88c3.12-0.44,5.39-2.36,6.83-5.32
				c2.22-4.56,4.39-9.78,9.28-11.57c3.43-1.25,2.57-4.17,4.3-5.81c2.03-1.93,4.58-3.28,5.23-6.53c0.4-2.01,1.44-4.06,3.4-5.31
				c4.17-2.68,6.99-7.13,8.74-11.05c2.59-5.83,6.39-10.95,9.56-16.18c3.95-6.52,6.41-13.72,10.51-20.18
				c3.22-5.08,4.85-11.33,8.37-16.65c2.25-3.39,1.12-8.88,6.42-10.57c0.33-0.1,0.3-0.53,0.23-0.89c-1.22-6.25,4.21-9.29,6.36-14.51
				c-6.76-4.04-14.95-6.09-22.9-8.72c-0.46-0.17-0.87-0.41-1.24-0.72c-0.28-0.43-0.3-0.87-0.04-1.32
				c5.72-0.57,10.79,2.17,16.18,3.27c1.6,0.32,3.14,0.8,4.79,0.74c3.21,2.07,8.71,1.17,9,6.99c-1.54,11.1-2.86,22.38-6.81,32.83
				c-2.29,6.05-3.52,12.94-8.79,17.8c-2.51,2.32-3.77,5.79-5.13,8.98c-2.36,5.52-5.76,10.32-9.56,14.94
				c-2.13,2.59-3.45,6.27-4.07,9.14c-1.51,6.98-6.09,11.53-10.85,15.41c-3.59,2.93-4.37,7-6.92,10.23
				c-4.67,5.93-8.01,13.01-13.32,18.4c-2.44,2.48-4.72,4.25-4.42,7.96c0.05,0.65-0.54,1.39-1.13,1.54c-3.51,0.87-6.22,3.8-9.24,4.04
				c1.3,0.23,1.45,0.89,0.64,2.45c-1.51,2.91-2.51,6.17-6.92,5.17c-0.63-0.14-1.29,0.62-1.36,1.26c-0.52,4.57-4.91,6.13-7.17,9.34
				c-0.38,0.54,0.24,0.16-0.31,0.36c-5.07,1.82-7.73,6.83-12.33,9.27c-2.25,1.19-4.63-0.47-6.86,0.49
				C272.92,485.45,270.45,485.33,267.98,484.92z"/>
			<path class="st26" d="M274.98,483.92c1.01-1.3,2.33-1.14,3.61-0.63c1.33,0.53,2.32,0.7,3.56-0.49c1.88-1.8,4.1-3.24,6.15-4.86
				c0.53-0.42,0.23-0.78-2.41-1.99c5.07,0.44,7.12-2.18,9.99-4.39c3.22-2.49,3.6-5.49,5.36-8.17c0.17-0.26,0.38-0.78,0.46-0.76
				c4.92,1.3,6.74-2.72,8.85-5.58c-1.04,0-2.57,0-4.1,0c4.3-0.48,6.65-4.99,10.99-5.17c0.93-0.04,1.65-0.31,1.71-1.77
				c0.19-4.46,3.21-4.68,3.76-7.24c0.81-3.72,5.92-3.71,4.91-7.65c-0.72-2.81,2.34-0.07,3.22-2.41c1.58-4.2,3.46-9.03,8.02-11.3
				c2.61-1.3-1-2.22,0.22-3.96c1.88-2.66,7-2.93,5.91-7.73c6.45,1.61,3.82-6.92,8.54-7.65c1.86-0.29-0.22-2.65,0.64-4.43
				c1.12-2.31,4.84-4.31,2.56-7.85c-0.39-0.61,0.24-0.65,0.61-0.9c6.12-4.13,8.35-10.95,11.6-17.03c1.3-2.42,1.83-5.46,4.17-7.03
				c3.32-2.23,2.54-7.18,6.39-8.86c-2.26-6.51,4.7-10.1,4.99-16.12c0.31-6.27,2.43-12.44,3.68-18.67c0.42-2.1,0.45-4.28,1.52-6.22
				c1.14,4.57-0.81,8.87-1.36,13.26c-0.79,6.29-2.39,12.48-3.64,18.71c-2.49,11.22-3.92,22.66-7,33.77
				c-0.78,2.82-3.02,5.14-2.71,8.33c0.08,0.82-0.73,1.03-1.41,1.06c-3.69,0.17-3.83,3.15-4.35,5.67c-0.26,1.26,0.32,2.7-0.58,3.85
				c-5.45,6.94-8.79,15.18-14.38,22.18c-3.67,4.6-9.03,8.39-10.6,14.65c-0.16,0.62,0.24,0.1-0.27,0.39
				c-5.5,3.11-6.48,10.17-11.85,13.42c-1.55,0.94-2.13,2.89-3.11,4.42c-2.84,4.44-5.93,8.75-10.64,11.44
				c-1.15,0.65-1.62,1.53-2.14,2.57c-2.57,5.15-6.57,8.8-11.82,11.09c-0.46,0.2-1.26,0.19-1.37,0.5c-2.52,6.92-8.28,5.14-13.41,5.06
				c-3.99-0.07-7.99,0.04-11.98-0.07C276.35,485.34,274.66,486.09,274.98,483.92z"/>
			<path class="st65" d="M274.98,483.92c7.31,2.07,14.75,0.92,22.11,0.57c1.37-0.06,4.47-1.18,3.69-4.51
				c-0.38-1.61,1.12-0.56,1.68-0.56c3.51-0.02,4.4-5.32,8.46-4.14c0.02-3.37,3.54-4.89,4.2-8.01c0.3-1.45,0.52-4.12,3.32-2.1
				c-0.02-1.44,4.13,0.52,2.11-2.65c-0.84-1.32,0.81-0.9,1.23-1.36c2.41-2.73,5.88-4.56,6.79-8.6c0.3-1.32,1.41-3.06,2.57-3.47
				c3.19-1.16,4.98-2.89,4.74-6.44c-0.23-3.33,3.23-2.29,4.77-3.65c3.16-2.79,2.75-7.35,6.17-9.96c4.42-3.38,5.61-9.83,10.13-12.89
				c6.18-4.18,4.97-12.47,10.73-16.91c1.65-1.27,0.28-5.87,2.19-8.58c0.54-0.76,0.48-1.86,1.77-2.08c1.84-0.31,2.78-2.08,2.18-3.78
				c-0.14-0.39-0.31-0.97-0.13-1.23c4.92-7.07,5.67-9.51,8.29-23.66c0.8-4.32,0.55-8.91,2.96-12.87
				c-1.11,11.81-3.9,23.34-6.06,34.97c-2.16,11.63-4.58,23.22-6.92,34.82c-0.15,0.75-0.66,1.44-1,2.15
				c-0.14,7.73-6.45,12.32-9.53,18.55c-1.01,2.04-2.03,4.17-3.14,6.03c-1.12,1.87-0.39,6.69-5.37,5.2
				c-1.07-0.32-1.98,1.81-2.26,2.95c-1.68,6.79-7.06,10.9-11.44,15.56c-3.18,3.39-6.45,6.44-8.75,10.64
				c-1.31,2.4-2.95,5.8-6.96,5.14c-0.4-0.06-0.58-0.21-0.63,0.23c-0.64,5.91-5.27,3.97-8.51,4.02c-5.11,0.09-10.26,0.65-15.35-0.39
				c-9.41-1.3-18.88-0.95-28.34-1c-1.01-0.01-1.97-0.11-2.64-1C270.31,484.59,272.65,484.25,274.98,483.92z"/>
			<path class="st28" d="M298.96,486.92c5.81,0,11.61,0.03,17.42-0.01c2.69-0.02,5.17,0.05,5.39-3.95c0.12-2.19,1.82-2.41,2.96-0.14
				c0.6-2.82,3.84-3.29,4.95-6.07c1.66-4.16,5.05-7.26,8.4-10.41c1.35-1.28,4.74-1.6,4.48-5.04c-0.16-2.17,2.77-2.6,4.16-4
				c2.41-2.43,1.45-6.18,4.31-8.62c1.3-1.11,1.15-2.69,2.98-0.83c0.3,0.3,1.17,0.96,1.43-0.21c2.03-9.14,8.26-15.96,13.32-23.34
				c1.27-1.85-0.83-4.61,2.16-5.33c0,2,0,4,0,5.99c-1.22,1.49,0.17,3.5-0.99,5l0,0c-1.01,1.53-0.22,3.42-1,5c0,0.33,0,0.66-0.01,1
				c-1.75,1.02-1.51,2.85-1.67,4.42c-0.57,5.68-4.64,9.78-7.51,14.01c-3.11,4.58-7.63,8.41-10.05,13.58
				c-0.84,1.8-2.24,2.71-3.32,4.07c-3.03,3.83-5.49,8.34-9.19,11.33c-2.01,1.63-3.84,4.52-7.28,4.45
				c-5.64-0.11-11.29,0.05-16.94,0.1c-0.67,0-1.33,0-2,0C306.97,487.41,302.81,489,298.96,486.92z"/>
			<path class="st5" d="M369.91,429.97c0.24-1.69-0.67-3.6,0.99-5c0,1,0,2,0,3C370.89,428.79,370.72,429.54,369.91,429.97z"/>
			<path class="st23" d="M152.05,465.95c-9.91-3.78-19.78-7.63-28.99-12.99c0.34-0.39,0.76-0.64,1.27-0.74
				c5.61,1.08,10.13,4.87,15.59,6.33c3.67,2.89,8.76,2.85,12.3,6c0.22,0.48,0.17,0.93-0.13,1.36L152.05,465.95z"/>
			<path class="st72" d="M124.12,452.93c-0.35,0.01-0.71,0.02-1.06,0.03c-2.75-0.01-5-1.2-6.98-3c1,0,1.99,0.01,2.99,0.01
				C121.34,449.97,123.64,449.9,124.12,452.93z"/>
			<path class="st73" d="M291.97,288.07c0.33,0,0.66,0,1,0c2.67,0.64,5.53,0.52,7.99,2c1.05,1.46,2.62,0.86,4,1
				c6.59,2.18,13.45,3.55,19.82,6.42c2.54,2.44,2.72,4.81-0.21,7.1c-0.66,0.51-1.55,1.01-1.71,1.77
				c-2.19,10.25-11.66,16.56-14.33,26.54c-0.09,0.32-0.1,0.81-0.33,0.92c-4.63,2.14-5,7.54-8.15,10.67
				c-3.39,3.36-5.77,7.25-7.88,11.4c-1.23,2.41-3.01,4.28-4.96,6.16c-4.86,4.67-9.99,9.2-12.36,15.84c-0.48,1.33-1.5,2.14-2.51,3.03
				c-4.29,3.79-9.04,6.88-12.39,11.92c-3.83,5.75-11.11,8.42-14.86,14.55c-0.43,0.7-1.35,0.93-2.2,1.05
				c-0.82,0.12-1.85,0.02-2.4,0.56c-7.92,7.88-18.88,13.43-20.3,26.32c-1.13,7.21-2.42,14.36-6.41,20.71
				c-1.16,1.85-0.88,4.23-1.85,6.18c-0.84,1.69-1.9,3.32-4.04,3.14c-1.88-0.16-2.65-1.83-3.39-3.32c-0.61-1.22-0.75-2.56-0.58-3.89
				c2.7-21.18,4.14-42.48,7.12-63.65c2.49-17.72,5.1-35.45,7.22-53.23c0-0.49,0.06-0.97,0.13-1.45c0.76-2.99,0.48-6.3,2.69-8.84
				c0.46-0.19,0.92-0.16,1.36,0.08c2.03,3.13,0.88,6.53,0.36,9.65c-2.94,17.88-5.2,35.87-6.96,53.88
				c-0.96,9.83-2.61,19.78-0.68,30.62c3.86-8.19,5.05-16.55,8.05-24.27c1.88-2.93,1.32-6.91,4.14-9.46c1.46-1.32,1.15-5.1,4.77-3.35
				c-0.94-3.63,3.34-2.34,3.94-4.05c1.41-4.05,5.04-5.24,8.23-6.65c4.53-2,6.66-5.41,7.12-9.94c0.3-2.96,1.29-4.23,4.42-4.6
				c4.97-0.58,7.71-4.28,8.18-9.52c0.39-4.39,3.86-4.07,6.97-4.17c2.41,1.29,3.41-0.36,4.36-2.1c1.15-1.08,1.17-2.5,1.16-3.93
				c0.64-1.13,1.12-2.3,1.1-3.63c1.9-5.27,4.02-10.41,9.04-13.59c1-0.64,2.28-1.24,1.26-2.63c-2.03-2.76-0.43-4.85,1.37-6.52
				c3.67-3.41,4.34-8.42,6.99-12.4c1.05-1.58,1.2-3.09,3.61-2.95c3.09,0.18,4.2-3.5,8.04-3.68c-3.31-2.6-6.4-3.04-9.33-3.83
				c-5.92-2.39-12.04-4.23-18.09-6.24c-1.84-0.61-4.36-0.71-4.51-3.58C281.31,285.41,286.64,286.74,291.97,288.07z"/>
			<path class="st74" d="M224.01,400.99c-0.26,4.2-1.86,8.01-3.55,11.76c-0.48,1.06-1.37,2.16-0.94,3.18
				c1.8,4.22-2.78,6.31-3.07,9.77c-0.1,1.2-0.81,1.28-1.7,1.2c-1.22-0.12-1.61-0.82-1.56-2.03c0.32-8.14,0.67-16.27,1.2-24.4
				c0.93-14.29,3.18-28.37,4.62-42.57c0.83-8.19,3.03-16.19,3.29-24.46c0.02-0.79-0.2-1.59-0.3-2.39
				c-0.14-7.16,1.96-14.04,2.72-21.09c0.93-8.72,2.52-17.35,3.86-26.02c0.69-4.46,2.78-7.7,7.41-8.84c6.27-0.66,12.04,1.68,17.99,3
				c7.33,2,14.66,4,21.98,6c6.08,4.04,13.55,4.38,19.99,7.48c1.01,0.48,2,1.01,3,1.52c1.58,2.13,0.17,3.4-1.4,4.48
				c-1.94,1.34-3.42,3.07-4.95,4.85c-6.13,7.17-9.6,16.07-15.07,23.48c-3.95,5.35-6.01,12.53-12.93,15.81
				c-2.84,1.35-3.49,5.37-5.88,7.76c-6.57,6.58-11.59,14.64-19.2,20.25c-0.27,0.2-0.46,0.54-0.76,0.64
				c-6.9,2.46-7.69,8.93-9.56,14.65C227.49,390.33,225.23,395.49,224.01,400.99z"/>
			<path class="st75" d="M124.12,452.93c-1.15-1.89-3.71-1.39-5.05-2.96c-1.42-2.36-5.42-1.64-5.99-5.01
				c5.83,1.5,10.44,5.44,15.79,7.9c3.72,1.71,7.46,3.4,11.19,5.1c0.3,0.23,0.39,0.46,0.29,0.69c-0.1,0.23-0.2,0.34-0.3,0.34
				C134.37,457.95,129.82,453.95,124.12,452.93z"/>
			<path class="st55" d="M140.06,458.98c0-0.34,0.01-0.69,0.01-1.03c2.65,1.03,4.89,3.17,7.99,2.99c2.32,1.37,5.04,2.01,7.02,3.97
				c-0.16,0.16-0.32,0.31-0.49,0.47c-0.88,0.07-1.79,0.27-2.52-0.45C148.17,462.74,143.54,462.02,140.06,458.98z"/>
			<path class="st70" d="M287.95,492.93c7.05,0.09,14.17-0.7,20.99,1.89c-0.33,0.04-0.66,0.07-0.99,0.09c-2,0.75-4,0.77-5.99-0.01
				c-0.31-0.05-0.62-0.06-0.93-0.05c-3.61-1.26-7.46,0.35-11.06-0.93c-0.65-0.02-1.3-0.03-1.96-0.05
				C287.98,493.56,287.96,493.25,287.95,492.93z"/>
			<path class="st47" d="M336.99,497.87c-3.35,0.01-6.7,0.02-10.04,0.03c0-0.32-0.01-0.65-0.01-0.97
				C330.29,497.29,333.79,496.02,336.99,497.87z"/>
			<path class="st47" d="M348.99,498.86c-3.35-0.37-6.87,1.06-10.06-0.96C342.28,498.27,345.78,497.01,348.99,498.86z"/>
			<path class="st58" d="M323.02,496.86c-2.69-0.33-5.56,1-8.06-0.92C317.65,496.25,320.5,495.09,323.02,496.86z"/>
			<path class="st57" d="M301.96,494.9c2,0,3.99,0.01,5.99,0.01c0.01,0.31,0.06,0.62,0.14,0.92
				C306.03,495.63,303.77,496.72,301.96,494.9z"/>
			<path class="st24" d="M359.92,304.06c0,0.33,0,0.67,0,1c-6.87-0.29-13.71-0.65-18.99-5.98c5.19,0.01,9.87,2.58,14.99,2.99
				C357.25,302.73,358.59,303.4,359.92,304.06z"/>
			<path class="st55" d="M155.08,464.91c3.41-0.25,5.74,2.71,8.96,3.02c8.85,3.6,17.81,6.96,26.02,11.95
				c0.32,0.02,0.64,0.03,0.96,0.05c0.44,0.9,2.66,0.02,1.99,2.01c-3.99,0.17-6.84-3.76-10.97-3.05c-4.1-1.78-7.51-4.96-12-5.95
				c-4.32-2.03-9.01-3.24-13.02-5.96c-0.39-0.94-2.57-0.12-1.98-2.02L155.08,464.91z"/>
			<path class="st32" d="M155.05,464.96c0.66,0.67,1.32,1.35,1.98,2.02c-1.65-0.36-3.29-0.71-4.94-1.07
				c-0.02-0.33-0.02-0.65-0.02-0.98C153.06,464.94,154.06,464.95,155.05,464.96z"/>
			<path class="st76" d="M324.94,298.07c-6.7-2.23-13.65-3.73-19.99-6.99c2.66,0.33,5.33,0.67,7.99,1
				c4.93,2.94,10.75,3.04,15.99,4.99c6.06,1.22,12.06,2.59,17.54,5.63c2.56,2.92,1.37,5.69-0.68,8.05c-2.58,2.96-3.54,6.6-5.22,9.93
				c-2.33,4.64-5.04,9.21-7.52,13.84c-3.31,6.17-6.72,12.27-9.61,18.7c-2.16,4.81-5.64,9.28-9.09,13.48
				c-5.67,6.89-11.16,13.95-15.4,21.78c-2.31,4.27-6.15,7.11-9.38,10.02c-4.86,4.38-8.04,9.6-11.54,14.78
				c-0.38,0.56-0.84,1.02-1.42,1.38c-10.11,6.21-18.7,14.19-26.66,22.9c-1.38,1.51-3.15,2.46-4.97,3.26
				c-6.83,3.02-13.08,6.87-18.18,12.43c-0.79,0.86-1.83,1.42-2.91,1.88c-6.56,2.81-9.48,7.94-9.49,14.92
				c-0.65,9.06-6.32,11.77-14.07,6.74c-0.39-0.37-0.63-0.82-0.75-1.35c2.16-22.06,4.52-44.1,7.66-66.05
				c0.03-0.53,0.13-1.05,0.27-1.57c3.29-20.84,5.42-41.84,9.16-62.6c0.29-1.61-0.39-3.9,2.35-4.19c0.07,11.39-3.26,22.34-4.29,33.57
				c-1.64,17.88-5.01,35.54-6.38,53.47c-0.65,8.52-1.82,17-2.06,25.56c-0.08,2.66-2.33,5.22-0.74,8c0.61,1.07,1.1,2.76,2.55,2.8
				c1.69,0.04,2.47-1.44,2.9-2.94c2.53-8.89,7.48-17.05,8.02-26.54c3.22-3.91,7.36-6.98,10.5-10.9c2.81-3.5,6.59-5.01,10.5-5.66
				c2.53-0.42,0.81-1.12,0.85-1.91c0.09-1.83,0.29-3.97,2.37-4.48c1.92-0.48,2.82,1.13,3.13,2.28c1.04-2.88,1.04-6.65,5.84-7.79
				c2.9-0.69,5.67-2.42,7.59-5.08c0.77-1.06,1.35-2.28,2.49-3.09c2.13-1.52,4.26-3.02,6.93-3.42c-0.61-3.63,2.2-4.81,4.51-6.41
				c1.37-0.95,1.24-2.58,1.58-4.04c0.55-2.38,0.99-5.15,4.64-4.27c1.36,0.6,2.85,2.15,3.7-0.57c-0.25-2.42,0.51-4.28,2.17-6.21
				c3.04-3.52,4.6-8.09,7.92-11.55c1.19-1.25,1.93-2.51,3.79-2.49c3.74-0.2,2.98-2.46,2.18-4.74c0.1-0.33,0.4-0.57,0.47-0.85
				c2.26-8.72,11.1-13.56,13.19-22.36c0.3-1.27,0.9-2.55,0.62-3.86c-0.3-1.38,0.09-2.69,1.32-2.74c3.8-0.17,3.7-3.1,4.75-5.59
				c2.58-6.1,4.58-12.84,12.19-14.89c0.64-0.17,0.99-0.54,0.37-0.3c-0.06,0.02-0.4-0.47-0.73-0.62c-0.28-0.21-0.48-0.45-0.67-0.71
				c-0.46-0.63-0.67-2.45-1.72-0.36C327.59,301.32,326.34,299.62,324.94,298.07z"/>
			<path class="st76" d="M300.96,290.08c-2.7-0.54-5.54-0.49-7.99-2C295.97,287.38,298.68,287.85,300.96,290.08z"/>
			<path class="st16" d="M193.02,481.94c-0.66-0.67-1.33-1.34-1.99-2.01c0.68-0.02,1.36-0.03,2.04-0.05
				c1.36,0.6,2.23,2.15,3.95,2.07c0.33,0.33,0.66,0.66,0.99,1c0.32,0.69,0.63,1.39,0.95,2.08
				C196.61,484.7,194.96,483.05,193.02,481.94z"/>
			<path class="st71" d="M218.02,275.09c2.66,0,5.33,0,7.99,0c-0.34,0.41-0.6,8.22-0.28,8.79c0.5,0.88,0.8,1.84,0.68,2.85
				c-0.98,8.28-1.84,16.59-4.61,24.53c-4.07-0.18-4.01-3.24-3.98-6.02c0.06-5.86,0.83-11.68,0.22-17.58
				c-0.21-2.05-0.8-3.28-2.14-4.62C211.16,278.31,211.61,276.75,218.02,275.09L218.02,275.09z"/>
			<path class="st24" d="M221.02,311.06c1.99-8.26,3.32-16.64,4.37-25.06c0.18-1.41-0.88-2.8-2.38-3.35
				c-1.97-0.73-3.93-1.89-3.48-4.04c0.44-2.16,2.7-2.59,4.84-2.61c0.55,0,1.1-0.59,1.66-0.9c2.46-2,5.34-0.56,8-1c0,0.33,0,0.67,0,1
				c-1.22,1.37-2.69,2.5-3.81,3.96c-2.31,4.91-2.97,10.16-3.24,15.5c-0.06,0.52-0.18,1.02-0.34,1.51
				c-1.25,7.94-3.43,15.75-3.32,23.88c-0.23,1.09-0.27,2.24-1.01,3.17c-0.8,0.53-1.59,0.5-2.38-0.05
				c-2.25-3.57,0.18-7.09,0.13-10.64C220.24,311.88,220.56,311.42,221.02,311.06z"/>
			<path class="st34" d="M289.96,493.93c3.68,0.34,7.51-0.96,11.06,0.93c-1.03,0.04-2.06,0.07-3.1,0.11
				C295.29,494.46,292.41,495.9,289.96,493.93z"/>
			<path class="st77" d="M200.03,475.93c0.76,0.27,1.57,0.47,2.29,0.84c6.34,3.22,10.73,0.43,10.71-6.83
				c1.69-4.46,4.86-6.01,9.66-6.56c4.7-0.54,8.08-4.46,10.32-8.56c0.69-1.26,1.64-2.51,2.43-2.6c4.01-0.46,5.67-3.89,8.33-6.03
				c0.05-0.04,0.18-0.24,0.41-0.27c6.16-0.91,9.29-5.86,12.89-9.98c2.72-3.13,7.95-3.08,9.34-7.98c0.28-0.98,3.39-0.54,5.04-1.37
				c2.91-0.1,3.12-1.7,2.19-3.94c0.31-2.05,1.9-3.54,3.42-4.02c6.81-2.16,8.61-7.98,10.96-13.64c0.92-2.21,1.72-5.89,5.74-3.7
				c0.67,0.36,0.7,0.16,0.78-0.33c1.18-6.74,6.09-10.13,11.61-12.97c0.92-0.21,1.14-0.69,0.56-1.47c3.69-1.04,3.48-5.76,6.77-7.17
				c1.83-1.02,4.24-1.6,3.46-4.59c-0.91-2.16-2.17-4.35,1.18-5.68c1.39-0.55,1.48-2.06,2-3.27c1.23-2.86,2.41-5.71,5.29-7.52
				c1.82-1.15,3.41-2.79,1.82-5.35c-0.44-0.71-0.68-1.95,0.17-2.23c3.93-1.3,3.35-5.15,4.85-7.83c1.01-1.8,2.52-3.48,4.31-4.76
				c3.18-2.27,2.95-6.33,4.85-9.29c1.66-2.59-0.28-7.74,5.62-7.43c0.92,0.05,1.23-2.56,1.3-3.99c0.21-4.4,1.58-7.76,7.02-8.26
				c-3.27-2.55-6.34-4.32-9.43-6.07c-5.33-2.93-11.53-3.42-16.99-6c1,0,2,0,3,0c2.33,0.34,4.66,0.67,6.98,1.01
				c0.44,0.8,1.19,0.97,2.01,1c5.9,3.35,12.75,3.7,18.99,5.98c0.33,0,0.67,0,1,0c2.99,2.07,7.24,1.48,9.75,4.58
				c1.17,1.8,1.32,4.06-0.74,4.65c-6.64,1.93-7.42,8.27-9.75,13.02c-2.3,4.7-4.18,9.72-6.13,14.64
				c-3.87,9.78-8.87,18.93-14.39,27.78c-7.52,12.06-16.58,23.09-24.57,34.86c-3.03,4.46-6.09,9.52-11.16,12.51
				c-3.45,2.04-2.3,5.5-2.13,8.58c-0.97,2.98-3.33,5.36-3.64,8.66c-0.12,1.29-1.34,1.86-2.5,2.14c-4.3,1.04-7.12,4.16-9.62,7.38
				c-5.66,7.28-11.83,13.81-19.74,18.84c-5.51,3.51-10.63,7.87-14.63,13.19c-1.24,1.64-3.36,2.37-4.54,2.53
				c-6.32,0.85-12.59,3.09-19.11,1.48h0c-7.18,0.36-14.37-0.46-21.58,0.75C203.6,481.15,199.94,480.49,200.03,475.93z"/>
			<path class="st73" d="M230.01,278.08c0.88-1.6,1.98-2.92,4-2.99c0.67,0,1.33,0,2,0c-6.68,3.76-6.45,10.59-7.42,16.84
				c-1.93,12.48-3.74,24.98-5.64,37.47c-0.09,0.58-0.61,1.1-0.94,1.65c0,0,0,0,0,0c-1.93-2.67-1.82-5.33,0-8c0-1,0-2,0-2.99
				c1.38-8.32,2.73-16.64,4-24.98l0,0C227.25,289.39,227.08,283.37,230.01,278.08z"/>
			<path class="st39" d="M239.96,488.95c0.02,0.31,0.06,0.62,0.1,0.93c-2.68-0.35-5.56,1-8.05-0.95
				C234.66,488.94,237.31,488.94,239.96,488.95z"/>
			<path class="st55" d="M206.03,486.92c3.36,0.31,6.85-0.86,10.07,0.95c-0.36,0.03-0.72,0.06-1.09,0.09
				C212.03,487.45,208.83,488.92,206.03,486.92z"/>
			<path class="st70" d="M273.95,491.94c4.66,0.46,9.47-1.14,14.02,1c-3.66-0.01-7.32-0.02-10.98-0.02
				c-0.98-0.01-1.95-0.03-2.93-0.04C274.01,492.56,273.97,492.25,273.95,491.94z"/>
			<path class="st26" d="M221.02,311.06c0,0.33,0,0.67,0,1c-2.25,3.62-1.76,7.55-1.25,11.47c0.84,4.14-0.6,8.11-0.85,12.17
				c-1.84,7.08-2.62,14.34-3.88,21.51c-0.25,1.43,0.53,3.54-2.02,3.81c1.31-7.87,0.14-15.85,0.99-23.81
				c0.37-3.45-0.17-7.84-1.04-11.84c-1.08-4.97-0.21-10.46,0.45-15.65c0.26-2.01,1.06-3.42-0.88-5.09c-1.18-1.02-0.39-2.81,0.25-4.2
				c1.98-4.25,0.41-8.82,1.21-13.21c0.65-3.55-2.83-4.5-4.78-6.38c-0.76-0.73-2.34-0.96-1.71-2.59c0.51-1.32,1.37-1.75,2.89-2.11
				c2.54-0.6,4.99-1.25,7.61-1.06c-5.71,3.12-5.7,3.51-0.52,8.01c1.19,1.03,3.52,0.84,1.92,4.53c-1.13,2.61,0.09,7.81,0.15,11.69
				c0.02,1.41,2.43,4.69-0.85,6.52C218.21,306.12,219.21,309.68,221.02,311.06z"/>
			<path class="st78" d="M200.03,475.93c2,4.39,5.72,4.18,9.62,3.65c6.13-0.83,12.27-1.5,18.36,0.34c-0.33,0.33-0.67,0.67-1,1
				c-0.81,0.89-1.7,1.56-3,1c-5.13-1.95-10.44-1.31-15.57-0.53c-7.1,1.08-12-2.83-11.33-10.31c0.7-7.87,1.87-15.7,3.01-23.52
				c2.23-15.32,4.6-30.61,6.88-45.92c0.15-0.99,0.04-2.01,1.02-2.65c1.6,3.33,0.11,6.66,0,9.99l0,0
				c-2.88,18.97-5.52,37.97-7.03,57.12C200.74,469.38,199.51,472.57,200.03,475.93L200.03,475.93z"/>
			<path class="st79" d="M208.02,408.98c0-3.33,0-6.66,0-9.99c0.48-10.1,2.28-20.03,4-29.97c1.38-2.53-0.33-5.45,1-7.99c0,0,0,0,0,0
				c2.83-7.12,2.39-14.84,4-22.18c0.28-1.28,0.66-2.53,0.99-3.8c0.54-0.33,1-0.25,1.38,0.26c0,1.59,0.53,3.22-0.38,4.73
				c0,0.33,0,0.67,0,1c-2.17,7.25-2.85,14.77-3.96,22.21c-2.24,14.98-4.26,30-6.4,45C208.62,408.51,208.24,408.74,208.02,408.98z"/>
			<path class="st80" d="M224.01,481.92c1-0.33,2-0.67,3-1c5.47,2.31,11.49-0.03,16.99,2c0.34,0.22,0.45,0.44,0.34,0.67
				c-0.11,0.22-0.23,0.33-0.34,0.33c-6.67-0.19-13.4,0.81-19.99-1C224.01,482.59,224.01,482.26,224.01,481.92z"/>
			<path class="st26" d="M213.02,361.02c-0.44,2.65,1,5.54-1,7.99C212.46,366.36,211.02,363.48,213.02,361.02z"/>
			<path class="st67" d="M162.06,462.94c-1.58-0.16-2.98-0.7-4-2c0.67,0,1.33,0,2,0C161.01,461.32,161.68,461.98,162.06,462.94z"/>
			<path class="st15" d="M190.07,479.88c-8.67-3.98-17.35-7.96-26.02-11.95c0.68,0,1.35-0.01,2.03-0.01
				c7.29,3.15,14.59,6.3,21.87,9.47C189.04,477.87,190.02,478.49,190.07,479.88z"/>
			<path class="st65" d="M249,483.92c5.66,0.47,11.43-1.05,16.99,1C260.29,485.13,254.58,485.6,249,483.92z"/>
			<path class="st65" d="M244,483.92c0-0.33,0-0.67,0-1c1.68,0.24,3.6-0.67,5,1C247.33,485.05,245.66,485.05,244,483.92z"/>
			<path class="st5" d="M368.92,434.96c-0.41-1.81-0.39-3.54,1-5C369.67,431.65,370.58,433.56,368.92,434.96z"/>
			<path class="st24" d="M228.01,479.92c2.57-0.08,4.99-1.18,7.77-0.2c1.95,0.69,4.07-0.62,5.79-2.04c0.82-0.68,1.63-2,2.98-1.31
				c3.18,1.62,5.02-0.18,6.02-2.68c0.77-1.92,2.49-1.1,3.57-2.03c5.07-4.33,8.86-10.35,15.8-12.27c0.18-4.23,7.34-2.62,6.48-7.73
				c6.79-3.83,9.23-12.93,15.86-15.51c4.63-1.8,4.57-4.48,6.11-7.3c0.6-1.11,1.71-1.94,2.58-2.89c1.23-2.68,2.45-5.28,5.74-6.19
				c0.97-0.27,2.06-1.55,2.04-2.64c-0.07-5.28,5.5-7.23,6.75-11.71c0.22-0.79,1.53-1.29,2.12-0.95c3.94,2.26,3.16-4.13,6.22-3.3
				c0.1-1.17-1.3-1.58-0.9-3.35c0.97-4.32,4.12-6.41,7.1-8.77c0.72-0.57,1.88-0.62,2.23-1.71c3.2-10.06,11.57-16.98,15.94-26.34
				c1.04-2.23,2.68-4.19,2.71-6.84c0.01-1,0.48-1.92,1.14-2.71c2.7-3.23,7.16-11.66,8.03-15.38c0.34-1.45,0.58-2.79,1.74-3.99
				c0.53-0.55,1.95,1.46,1.24-0.44c-1.34-3.62,0.69-5.98,2.64-8.49c2.54-3.27,2.76-8.4,8.27-9.59c-1.16-1.75-2.68-2.55-4.07-3.49
				c-2.33-2.87-6.7-2.06-8.99-5c8.75,1.92,17.02,5.18,25.03,9.13c1.6,0.79,2.19,1.95,0.04,2.54c-3.32,0.91-4.81,3.37-5.01,6.27
				c-0.1,1.45-1.22,1.68-1.51,2.71c-0.27,0.95-3.92,1.28-0.4,2.9c0.2,0.09-0.31,2.25-0.35,2.25c-2.98-0.35-2.61,2.76-3.66,3.52
				c-2.92,2.11-0.48,5.21-2.3,7.32c-0.45,0.52-0.01,2.37-1.22,2.86c-4.59,1.87-5.75,5.25-5.5,9.98c0.18,3.25-3.15,5.35-4.47,8.32
				c-1.43,3.21-5.31,5.28-3.44,9.8c0.39,0.95-1.49,1.12-2.03,1.87c-1.15,1.57-4.68,1.92-2.74,5.13c-4.25,1.68-2.01,8.67-7.59,9.3
				c-0.34,0.04-0.93,0.64-0.9,0.7c2.87,5.49-3.87,6.32-4.77,9.89c-1.19,4.72-7.29,5.56-8.25,10.75c-0.14,0.77-0.81,1.39-0.22,2.57
				c0.57,1.15,0.09,2.14-1.4,2.56c-4.39,1.25-5.69,3.35-5.29,8.22c-1.43,0.17-1.48-1.6-3.08-2.02c1.57,4.02-2.82,3.34-4.24,5.4
				c-2.23,3.24-4.49,6.31-5.66,10.08c-0.34,1.11-0.79,1.94-1.98,1.65c-1.98-0.48-1.79-0.29-1.99,1.88c-0.22,2.4-2.83-1.38-4.47-0.1
				c1.52,5.82-2.89,11.32-9.17,11.16c0.62,1.31,1.19,2.54,1.98,4.22c-2.28-0.68-4.31-1.91-6.61-0.52c0.92,0.4,2.26,0.6,2.4,1.12
				c0.26,0.99-0.78,1.31-1.67,1.1c-2.28-0.53-2.53,0.16-2.31,2.45c0.19,2.08-2.23,3.86-3.81,4.03c-2.78,0.3-4.01,1.22-5.16,3.78
				c-0.85,1.89-1.27,3.73-1.85,5.64c-0.65,2.13-2.7-1.77-4.89,0.47c-1.46,1.49-3.07,3.38-5.06,4.68c-4.83,3.16-9.76,3.29-15.32,2.59
				c-6.2-0.78-12.56-0.24-18.85-0.37C231.44,480.86,229.48,481.56,228.01,479.92z"/>
			<path class="st81" d="M331.94,303.07c1.13-0.34,2.53-1.71,2.95,0.76c0.23,1.39-0.68,1.35-1.68,1.76
				c-4.04,1.66-9.02,2.26-8.72,8.73c0.1,2.14-3.95,3.1-3.74,5.96c0.28,3.8-1.22,5.18-5.07,5.46c-1.47,0.1,0.33,3.13-0.82,4.91
				c-2.57,3.99-2.09,9.4-6.97,12.62c-1.9,1.25-5.49,3.32-4.69,7.53c0.28,1.47-1.19,3.55-3.24,4.24c-0.43,1.76,0.38,4.02-2,5
				c-1.2,0.72-3.51,0.17-3.05,2.81c0.23,1.33-0.64,2.35-1.87,2.49c-2.33,0.28-2.84,1.82-3.1,3.71c-0.07,0.48-0.05,1.06-0.31,1.43
				c-2.11,3.06-4.71,5.81-5.67,9.55c-0.21-0.01-0.43-0.02-0.64-0.02c-1.05-0.23-2.04-0.19-2.82,0.7c-0.18,0.11-0.36,0.22-0.53,0.32
				c-3.28-0.34-3.62,1.81-3.4,4.21c0.21,2.28-0.87,4.61-2.55,4.89c-4.83,0.8-3.76,4.06-3.58,7.09c-3.27-1.19-9.69,1.92-11.41,6.66
				c-1.33,3.68-5.65,4.07-6.47,3.94c-6.83-1.11-1.96,2.5-1.83,4.41c-5.13-2.58-2.63,2.56-4.19,3.91c-1.05-1.12-1.01-3.14-2.92-3.48
				c-2.48,4.06-2.48,4.06,1.66,6.21c-3.77,0.36-6.67,1.09-9.53,2.14c-4.3,1.58-6.47,5.03-9.15,8.12c-0.22,0.25,0.06,0.94,0.11,1.43
				c-4.16-1.28-3.77,5.32-7.69,4.44c2.06-9.16,6.01-16.97,15.06-21.14c1.43-0.66,2.53-1.64,2.87-3.22c0.32-1.46,1.25-2.81,2.53-2.76
				c6.7,0.31,7.58-6.75,12.1-9.3c4.71-2.66,8.3-6.54,10.92-11.7c1.51-2.97,6.18-3.89,8.83-6.64c1.26-1.3,2.73-2.13,2.74-4.35
				c0.01-4.07,4.35-5.11,6.19-8.05c1.76-2.8,3.68-5.56,7-7.43c4.01-2.27,4.92-7.5,7.36-11.32c2.73-4.27,8.07-6.99,8.1-13.02
				c0-0.98,1.39-1.63,2.82-1.31c1.08,0.24,1.9-0.34,1.82-1.68c-0.16-2.87,2.24-4.72,2.99-7.09c2.29-7.2,10.58-11.01,10.65-19.35
				c0.01-1.08,0.66-2.03,1.64-2.33c3.58-1.09,3.33-3.48,2.29-6.21c2.2,0.66,3.97,1.87,5,4
				C330.75,302.11,331.23,302.81,331.94,303.07z"/>
			<path class="st82" d="M224.01,400.99c0.23-7.22,3.95-13.59,5.1-20.52c1.39-8.35,9.21-10.28,13.7-15.47
				c2.77-3.2,8.24-4.56,7.59-10.36c-0.04-0.4,0.86-1.3,1.3-1.29c5.32,0.18,7.49-5.23,8.48-7.75c2.62-6.63,9.39-8.99,12.68-15.32
				c3.14-6.03,7.49-12.37,11.34-18.41c3.86-6.07,7.63-11.69,13.55-15.75c1.19-0.81,1.16-1.89,1.19-3.05
				c3.28-0.35,5.84,1.82,8.81,2.52c1.18,0.28,1.21,0.92,1.14,1.77c-0.08,1.04-0.43,2.26-1.62,2.07c-2.47-0.4-3.71,0.55-4.19,2.88
				c-0.06,0.28-0.39,0.56-0.67,0.72c-5.98,3.48-5.03,3.04-8.59,9.34c-0.83,1.47-0.48,4.43-3.57,4.74c-0.33,0.03-3.81,3.05-1.06,6.07
				c2.07,2.27-1.12,2.61-2.34,3.75c-3.46,3.21-5.82,7.26-7.86,11.48c-0.28,0.57-0.69,1.08-1.03,1.62c-2.56,0.26-0.67,2-1,3
				c0.01,1.42,1.41,3.18-1,4c-2.49-0.37-4.05,0.8-5,3c-2.72,0.8-6.88-0.51-5.42,5.36c0.87,3.51-6.07,8.95-10.76,8.84
				c-2.05-0.05-1.45,0.36-1.62,1.77c-0.84,6.69-3.81,11.71-10.92,13.75c-1.58,0.45-4.83,0.96-4.27,4.54
				c0.11,0.69-1.45,2.6-3.44,2.01c-0.55-0.17-2.29-1.14-1.24,1.08c0.21,0.44,1.35,4.83-2.03,1.22c-0.91-0.97-1.39,0.99-2.08,1.76
				C226.45,393.47,226.56,397.87,224.01,400.99z"/>
			<path class="st76" d="M219.02,340.04c0-1.67,0-3.33,0-5c-1.8-3.89,1.93-7.51,0.57-11.38c0.14-0.2,0.29-0.4,0.43-0.6
				c0.66,0,1.33,0,1.99-0.01c0,2.67,0,5.33,0,8C219.8,333.63,221.02,337.37,219.02,340.04z"/>
			<path class="st82" d="M270.98,350.03c-1.4-2.93,1.4-3.54,2.82-4.59c1.23-0.92,2.02,0.24,2.18,1.59
				C276.1,351,274.06,351.38,270.98,350.03z"/>
			<path class="st82" d="M276.98,343.03c-3.32-1.62-0.55-3.68-0.78-5.86c1.72,0.69,1.05,2.16,1.78,2.86
				C278.76,341.41,278.58,342.46,276.98,343.03z"/>
			<path class="st83" d="M246,279.09c5.19,0.45,9.97,2.62,14.72,4.34c4.59,1.67,9.51,2,13.91,4.14c1.31,0.64,3.33,0.88,2.92,2.77
				c-0.39,1.77-2.41,4.05-3.71,3.45c-6.74-3.11-7.3,2.47-8.27,6.06c-0.74,2.73-1.93,3.29-4.18,3.56c-1.6,0.19-1.07,0.31-1.08,2.32
				c0,1.64-1.12,3.54-2.27,4.85c-3.23,3.68-3.34,3.58-1.56,5.87c-6.26,1.4-6.26,1.4-4.18,5.16c-1.8-0.27-3.88,0.42-4.8-3.2
				c-0.26,1.83-0.57,2.52-0.41,3.07c1.46,5.03-1.36,7.54-5.58,8.34c-1.97,0.38-0.93,2.87-2.8,2.59c0.11,3.91-2.65,6.86-3.44,10.59
				c-1.89,8.9-6.09,17.22-7.11,26.37c-0.25,2.21-1.55,2.81-3.24,3.02c-1.6,0.19-3.49-0.68-3.68-1.95c-0.23-1.57,0.09-3.44,0.32-5.06
				c1.79-12.36,2.12-24.89,3.99-37.21c1.99-13.06,2.59-26.36,6.47-39.1c1.48,0.55,2.16,1.85,1.79,3.14
				c-2.14,7.59-0.31,15.71-3.14,23.21c-0.86,2.28,0.38,4.53,0.62,6.8c0.47,3.32-0.42,6.52-0.89,9.75
				c-1.02,7.86-2.98,15.57-3.97,23.43c-1.83,2.1-0.17,4.8-0.96,5.93c0.34-0.99-0.4-3.26,0.55-5.32c1.12-4.48,1.56-9.11,3.02-13.51
				c4.07-4.02,3.49-9.78,5.24-14.66c3.53-9.81,5.41-20.16,8.46-30.15c1.34-4.42,3.02-8.4,7.8-10.25c2.76-1.07,2.68-2.45,0.1-4.01
				C248.82,282.35,245.84,282.32,246,279.09z"/>
			<path class="st84" d="M246,279.09c2.04,2.83,5.9,2.73,8.25,5.1c0.97,0.97,2.43,2.19,0.25,2.76
				c-11.06,2.89-10.94,12.96-13.31,21.04c-2.49,8.49-4.32,17.21-7.49,25.49c-1.22,3.18,0.92,7.72-3.7,9.57
				c-2.69-4.13,0.57-7.91,0.67-11.87c2.33-15.12,8.41-29.61,8.07-45.19c-2.51,3.61-2.6,7.77-3.24,11.76
				c-1.13,7.04-2.43,14.05-3.29,21.14c-0.16,1.32,0.07,3.21-2.21,3.18c-0.82-3.2-1.64-6.15,0.45-9.48c1.64-2.6,0.9-6.31,0.61-9.14
				c-0.5-4.96,2.82-9.49,0.94-14.36c0-0.67,0-1.33,0-2c1.11-1.87-0.25-4.15,1-6c0-0.33,0-0.67,0-1c1.42-0.88,2.61-2.07,4-3
				C240.1,277.33,243.5,276.18,246,279.09z"/>
			<path class="st83" d="M233.01,281.08c-0.32,2,0.81,4.24-1,6C231.58,284.95,231.15,282.83,233.01,281.08z"/>
			<path class="st83" d="M237,277.09c-0.88,1.6-1.97,2.92-4,3C233.89,278.48,234.98,277.16,237,277.09z"/>
			<path class="st29" d="M306.96,388c-0.62,1.16-0.98,2.92-2.34,3.04c-6.14,0.52-6.7,6.06-9.05,9.89c-0.59,0.97-0.9,2.44-1.98,2.44
				c-1.9,0.01-0.15-1.65-0.57-2.04c-0.7-0.65-1.35,0.16-2.04,0.65c-3.11,2.24-1.95,6.19-3.76,9.13c-1.33,2.15-5.97,3.07-3.65,7.12
				c-0.7,0.36-1.57,1.18-2.09,1c-3.89-1.38-5.43,1.67-7.5,3.75c0.64,1.98-0.13,3.27-2,4c-3.35,1.98-6.7,3.84-8.77,7.47
				c-0.89,1.55-2.62-0.86-4.31-0.15c3.37,4.13-2.06,2.93-2.84,4.73c-2.48,5.72-8.46,6.48-13.05,9.29c-1.46,0.89-3.59,2.56-2.5,5.64
				c-3.49-2.94-2.65-2.23-5.64,1.32c-3.79,4.49-7.48,10.25-14.84,9.81c-2.52-0.15-4.58-0.01-4.25,3.56
				c0.14,1.49-1.65,1.22-2.76,1.31c0.26-7.54,3.03-13.38,10.74-15.89c3.54-1.15,5.74-4.61,7.95-6.83c2.88-2.88,5.95-4.33,9.25-5.5
				c6.81-2.41,10.17-8.73,15.53-12.7c6.71-4.97,11.48-12.46,19.82-15.31c-0.34-4.06,5.57-4.81,4.84-9.12
				c-0.09-0.54,0.33-1.62,0.7-1.71c6.24-1.56,7.63-8.91,13.31-11.09c2.07-0.8,1.68-3.1,2.7-4.55c4.99-7.11,9.98-14.21,15.18-21.18
				c3.99-5.35,8.15-10.66,10.62-17.47c1.57-4.33,4.07-9.39,7.09-13.48c1.98-2.69,4.07-5.09,4.28-8.57c0.07-1.09,0.74-1.87,1.67-2.32
				c2.61-1.25,3.24-3.37,3.35-6.12c0.1-2.51,1.51-4.55,3.39-6.4c2.32-2.29,4.9-4.82,2.5-8.62c4.82-0.72,7.03,4.39,11.24,5.03
				c-0.07,0.29-0.1,0.8-0.22,0.82c-7.3,1.45-7.11,7.9-8.78,13.1c-0.19,0.6,0.33,2.31-0.81,1.49c-1.76-1.28-2.45-2.12-3.43,0.67
				c-1.62,4.63-1.79,4.57,0.55,6.77c-5.38-0.4-3.38,4.58-5.14,6.84c-0.2,0.26,0.68,1.06-0.16,1.57c-5.97,3.62-6.05,3.61-7.35,9.33
				c-0.25,1.12-0.03,1.19-1.42,1.29c-1.86,0.14-2.96,1.6-1.49,3.91c0.89,1.4,1.89,2.77-1.36,4.18c-3.2,1.39-5.61,5.13-6.6,9.18
				c-0.28,1.17,0.08,3.13-3.01,3.31c-3.21,0.19,1.29,2.86-0.01,4.44c-1.38,0.85-2.76,1-4.26-0.14c-0.09,1.76-0.77,3.47,0.26,5.14
				c-0.48,1.24-2.62,1.09-2.5,2.75c0.24,3.33-2.19,3.69-4.5,4.24C306.22,387.33,306.23,387.66,306.96,388z"/>
			<path class="st79" d="M200.03,475.93c-2.6-5.2,0.02-10.37,0.49-15.42c1.37-14.73,3.65-29.36,5.47-44.05
				c0.32-2.62,0.67-5.17,2.03-7.48c0.87,7.17-1.69,13.98-2.26,21.01c-0.95,11.79-2.48,23.53-3.72,35.3
				C201.66,468.9,201.52,472.54,200.03,475.93z"/>
			<path class="st85" d="M297.96,360.02c1.58-1.3-0.64-4.12,2-5c2.55,0.65,1.88,2.61,1.24,4
				C300.74,360.02,299.68,361.85,297.96,360.02z"/>
			<path class="st81" d="M283.97,380c0.18,0.87,1.45,2.14,0.16,2.49c-1.37,0.37-3.38,0.65-4.16-1.49
				C280.99,379.39,282.45,379.6,283.97,380z"/>
			<path class="st81" d="M331.94,303.07c-1.44,1.22-1.48-0.38-2-1c0.08-0.57,0.06-1.44,0.83-1.26
				C331.83,301.05,331.85,302.14,331.94,303.07z"/>
			<path class="st76" d="M226.01,295.07c-0.25,8.5-1.35,16.86-4,24.98C221.93,311.5,223.67,303.24,226.01,295.07z"/>
			<path class="st76" d="M230.01,278.08c-1.9,5.53-1.67,11.56-4,16.99C225.95,289.08,226.25,283.18,230.01,278.08z"/>
			<path class="st71" d="M219.02,323.05c-0.18-2.89-0.73-5.73-0.45-8.69c0.18-1.9,1.07-2.13,2.44-2.3c-0.33,3.66-0.67,7.33-1,10.99
				c0,0,0,0,0,0C219.68,323.51,219.35,323.53,219.02,323.05z"/>
			<path class="st79" d="M369.91,310.06c2.77-0.47,4.07,1.85,6.33,3.38c-4.39,1.82-6.35,5.03-8.51,9.18
				c-2.08,3.99-5.06,6.86-2.81,11.89c-1.77-0.69-3.68-2.86-3.7,0.65c-0.01,2.97-1.75,5.15-2.61,7.7c-0.93,2.75-4.01,5.4-1.32,9.24
				c-3.86-1.78-5.51-0.41-5.33,3.18c0.13,2.67-1.42,4.69-2.75,6.52c-3.47,4.76-6.08,9.98-8.74,15.17c-1.27,2.48-5.34,2.19-5.39,5.73
				c-0.08,5.51-4.62,7.72-8.1,10.58c-2.62,2.15-3.82,4.31-2,7.5c0.38,0.67,0.13,1.09-1.17,1c-0.89-0.06-1.26,0.13-1.39,0.83
				c-0.45,2.55-1.1,4.55-4.42,2.87c-0.61-0.31-2.46-0.1-2.24,1.2c0.64,3.94-3.71,4.41-4.76,7.37c-1.27,3.57-2.12,8.1-7.48,8.63
				c-1.02,0.1,0.89,4.06-2.55,3.3c-1.67-4.76-1.53-8.84,3.98-11.03c0.58-0.23,1.22-0.69,1.52-1.22c3.35-5.94,8.41-10.6,12.11-16.36
				c2.61-4.07,5.49-8.2,8.67-12.06c6.33-7.65,12.04-16.03,16.58-24.84c2.42-4.71,4.44-9.28,7.85-13.52
				c1.58-1.97,1.43-6.09,3.01-9.23c2.99-5.91,4.86-12.38,7.42-18.52c1.03-2.46,2.81-4.59,5.68-5.07
				C370.47,313.66,371.29,312.51,369.91,310.06z"/>
			<path class="st29" d="M313.95,380c-0.42-1.03-4.51,0.36-1.84-2.62c1.43-1.6-0.02-3.12,0.44-5.51c1.18,3.03,3.55,2.46,5.4,3.14
				C319.8,379.22,316.31,379.16,313.95,380z"/>
			<path class="st29" d="M271.98,426.97c0.67-1.33,1.33-2.66,2-4c4.55,1.2,0.37,3.5,0.15,4.74
				C273.8,429.5,272.57,427.89,271.98,426.97z"/>
			<path class="st29" d="M306.96,388c-0.9-0.16-2.02,0.36-2.62-0.86c0.83-1.07,1.78,0.16,2.62-0.14
				C307.64,387.33,307.64,387.66,306.96,388z"/>
			<path class="st24" d="M219.02,323.05c0.33,0,0.67,0,1,0c1.74,4.17-1.69,7.91-1,11.99c-0.33,0-0.67,0-1,0
				C218.35,331.04,218.68,327.05,219.02,323.05z"/>
			<path class="st76" d="M283.97,380c-1.33,0.33-2.66,0.67-4,1c0.19-0.84-0.52-2.11,0.87-2.4
				C282.13,378.33,283.47,378.33,283.97,380z"/>
			<path class="st86" d="M230.01,322.05c1.33-7.56,2.69-15.11,3.98-22.68c0.74-4.38,1.4-8.77,2-13.17c0.22-1.62,0.8-3.26,2.37-3.37
				c1.82-0.12,2.21,1.96,2.43,3.26c0.7,4.14-0.33,8.28-1.14,12.25c-2.24,10.96-5.06,21.81-7.65,32.7c-0.75,1.05-0.95,3.76-2.98,1
				C229.51,328.73,230.41,325.45,230.01,322.05z"/>
			<path class="st87" d="M229.02,332.04c1.48,1.12,2.08-0.39,2.98-1c-0.27,4.06-2.77,7.75-1.99,11.99
				c-1.72,4.21-1.65,8.97-3.99,12.99l0,0C226.11,347.92,228.21,340.06,229.02,332.04z"/>
			<path class="st88" d="M226.01,356.02c-0.21,2.11,0.63,4.44-1.36,6.19C225.31,360.19,224.33,357.83,226.01,356.02
				C226.02,356.02,226.01,356.02,226.01,356.02z"/>
		</g>
	</g>
</g>
</svg>
