<?xml version="1.0" encoding="utf-8"?>
<!-- Generator: Adobe Illustrator 24.0.0, SVG Export Plug-In . SVG Version: 6.00 Build 0)  -->
<svg version="1.1" id="Layer_1" xmlns="http://www.w3.org/2000/svg" xmlns:xlink="http://www.w3.org/1999/xlink" x="0px" y="0px"
	 viewBox="0 0 612 792" style="enable-background:new 0 0 612 792;" xml:space="preserve">
<style type="text/css">
	.st0{clip-path:url(#SVGID_2_);}
	.st1{fill:#FEFEFE;}
	.st2{fill:#B3B3B3;}
	.st3{fill:#D6D6D6;}
	.st4{fill:#C0C0C0;}
	.st5{fill:#C7C7C7;}
	.st6{fill:#CCCCCC;}
	.st7{fill:#A2A2A2;}
	.st8{fill:#A8A8A8;}
	.st9{fill:#CFCFCF;}
	.st10{fill:#9B9B9B;}
	.st11{fill:#828282;}
	.st12{fill:#5D5D5D;}
	.st13{fill:#9E9E9E;}
	.st14{fill:#959595;}
	.st15{fill:#6D6D6D;}
	.st16{fill:#767676;}
	.st17{fill:#949494;}
	.st18{fill:#D0D0D0;}
	.st19{fill:#9C9C9C;}
	.st20{fill:#ACACAC;}
	.st21{fill:#ADADAD;}
	.st22{fill:#646464;}
	.st23{fill:#A4A4A4;}
	.st24{fill:#747474;}
	.st25{fill:#979797;}
	.st26{fill:#BBBBBB;}
	.st27{fill:#BEBEBE;}
	.st28{fill:#DADADA;}
	.st29{fill:#DDDDDD;}
	.st30{fill:#D4D4D4;}
	.st31{fill:#E0E0E0;}
	.st32{fill:#D8D8D8;}
	.st33{fill:#D2D2D2;}
	.st34{fill:#B7B7B7;}
	.st35{fill:#BCBCBC;}
	.st36{fill:#AFAFAF;}
	.st37{fill:#B5B5B5;}
	.st38{fill:#B2B2B2;}
	.st39{fill:#AEAEAE;}
	.st40{fill:#F0F0F0;}
</style>
<g>
	<defs>
		<rect id="SVGID_1_" x="106" y="266" width="288" height="238"/>
	</defs>
	<clipPath id="SVGID_2_">
		<use xlink:href="#SVGID_1_"  style="overflow:visible;"/>
	</clipPath>
	<g class="st0">
		<g>
			<path class="st1" d="M393.89,323.05c0,58.95-0.04,117.91,0.1,176.86c0.01,3.42-0.67,4.1-4.09,4.09
				c-93.27-0.12-186.54-0.12-279.8,0c-3.42,0-4.1-0.67-4.09-4.09c0.13-76.6,0.13-153.21,0-229.81c-0.01-3.42,0.67-4.1,4.09-4.09
				c93.27,0.12,186.54,0.12,279.8,0c3.42,0,4.15,0.66,4.1,4.09c-0.23,15.65-0.1,31.31-0.1,46.96c-0.38,0.34-0.82,0.44-1.31,0.34
				c-1.97-1.46-2.94-3.85-4.94-5.29c-5.36-4.5-12.1-5.15-18.51-6.77c-13.03-3.29-26.13-6.22-39.33-8.73
				c-2.14-0.12-4.08-1.24-6.23-1.28c-9.54-4.32-19.85-5.69-29.95-7.88c-16.39-4.65-33.16-7.7-49.65-11.92
				c-3.4-0.87-6.88-0.94-10.36-0.92c-5.15-0.09-10.3-0.17-15.4-0.91c-1.75-0.05-3.5,0.04-5.26-0.03c-2.66-0.07-5.33-0.06-7.99-0.07
				c-5.66,0.14-11.21-1.42-16.89-1c-2.69,0-5.38,0-8.06,0c-7.1,0.5-14.1-1.32-21.19-1c-3.43,0.01-6.88-0.05-10.25,0.75
				c-2.12,0.34-4.11,0.87-4.69,3.37c-0.78,1.07-1.78,1.99-2.18,3.31c-0.42,0.87-0.8,1.76-1.05,2.7c-1.5,8.97-2.94,17.94-4.67,26.86
				c-2.67,12.36-4.39,24.89-6.58,37.33c-0.23,1.33-0.14,2.65,0.15,3.97c0.3,3.02-0.89,5.69-1.99,8.38
				c-1.54,3.85-1.41,7.85-1.09,11.88c0.63,3.08-2.18,4.98-2.63,7.67c-0.32,1.92-0.67,3.84-0.37,5.81
				c-2.08,8.71-4.36,17.39-4.9,26.39c-0.37,5.76-2.89,11.14-2.99,16.96c-0.02,1.02-0.31,2.05-0.08,3.09
				c0.66,2.72-0.73,5.2-1.47,7.53c-1.28,4.03-1.31,7.5,1.21,10.91c0.46,3.05,3.19,3.63,5.35,4.61
				c12.69,5.79,25.58,11.09,38.49,16.34c5.65,2.3,11.06,5.27,17.26,5.98c1.21,0.33,2.32,0.98,3.57,1.22
				c4.62,3.64,10.28,5.13,15.55,7.44c5.65,3.21,12.09,3.68,18.21,4.05c14.16,0.86,28.25,2.61,42.42,3.27
				c3.29,0.15,6.5,1.19,9.84,0.95c4.13-0.27,8.14,0.94,12.25,0.98c14.28,1.3,28.56,2.57,42.84,3.83c8.6,0.76,17.22,1.3,25.82,2.11
				c2.77,0.26,5.31-0.45,7.81-1.48c1.68-0.7,3.1-1.8,4.36-3.1c3.18-3.63,2.8-8.28,3.64-12.59c2.27-10.72,3.91-21.55,5.85-32.33
				c1.89-9.95,3.92-19.87,5.05-29.94c4.65-21.29,7.87-42.85,11.82-64.27c1.69-9.16,3.05-18.38,4.99-27.49
				C390.77,326,390.59,323.23,393.89,323.05z"/>
			<path class="st2" d="M393.89,323.05c-3.3,7.21-3.49,15.11-4.9,22.72c-4.25,23-8.21,46.05-12.34,69.08
				c-0.32,1.76-1.09,3.44-1.66,5.16c-0.53,0.36-1.04,0.32-1.52-0.1c-1.42-2.77,0.23-5.54,0.01-8.31
				c4.78-27.4,10.01-54.72,14.66-82.14c0.61-3.6,2.2-6.94,2.47-10.62c0.09-1.2,0.85-2.17,2.37-1.89c0.31,0.03,0.61,0.06,0.91,0.11
				C393.89,319.05,393.89,321.05,393.89,323.05z"/>
			<path class="st3" d="M234.03,273.06c9.67-0.78,18.58,2.88,27.73,4.96c10.8,2.46,21.74,4.39,32.25,7.99
				c0.98,0.89,2.02,1.77,0.41,3.02c-6.1,0.15-11.8-2.16-17.76-2.89c-11.88-3.95-23.71-8.11-36.5-7.79
				c-0.82-0.06-1.64-0.07-2.46-0.02c-5.94-0.49-5.93-0.49-7.46,5.61c-2.36,9.44-2.94,19.18-4.76,28.72
				c-1.14,5.95-2.07,12.05-2.11,18.21c-4.14,8.82-2.67,18.59-4.67,27.8c-1.86,8.55-2.67,17.33-3.97,26
				c-1.98,5.7-2.34,11.68-2.68,17.59c-0.52,9.09-3.59,17.8-3.78,26.87c-0.11,5.3-0.96,10.46-1.74,15.64
				c-1.77,9.13-1.33,18.49-2.81,27.66c-0.21,1.29,0.47,2.3,1.71,2.72c1.36,0.45,2.64,0.24,3.57-0.99c1.24-1.62,1.6-3.63,2.34-5.47
				c2.79-7,5.53-13.62,14.03-16.11c4.27-1.25,7.79-4.94,11.44-7.84c7.98-6.34,16.81-11.7,23.78-19.2
				c4.21-4.52,8.59-8.75,13.46-12.49c6.35-4.88,10.31-11.9,15.91-17.51c9.75-9.76,17.26-21.46,24.94-32.81
				c7.4-10.93,13.92-22.55,19.55-34.61c2.72-5.84,5.12-11.9,8.88-17.27c1.92-2.74,0.62-6.55-2.71-6.89
				c-4.98-0.51-8.76-4.01-13.6-4.55c-1.66-0.62-3.32-1.24-4.96-1.88c-1.76-0.68-3.31-1.59-1.99-3.9c1.4-0.8,2.69-0.56,3.91,0.4
				c2,0.35,3.99,0.7,5.99,1.06c3.07,1.54,6.73,1.11,9.73,2.92c6.25,2.25,12.54,4.41,18.28,7.85c3.67,2.2,4.22,3.95,1.6,7.16
				c-5.25,6.43-8.29,13.96-11.17,21.57c-0.67,1.77-1.57,3.27-2.81,4.64c-2.27,2.5-3.87,5.25-4.58,8.68
				c-0.82,3.98-4.18,6.68-6.09,10.18c-1.97,3.62-4.34,7.08-6.77,10.46c-0.78,1.08-1.78,2.09-2.07,3.38
				c-2.28,10.17-10.22,16.37-16.51,23.74c-6.25,7.32-12,15.06-18.72,21.96c-6.77,6.95-12.21,15.29-21,20.14
				c-1.47,0.81-3.03,1.78-3.74,3.23c-3.41,6.85-9.9,9.69-15.99,13.4c-4.61,2.81-8.95,6.13-13.53,9.09
				c-5.45,3.53-11.5,5.88-16.79,9.59c-1.09,0.76-2.21,1.45-3.17,2.38c-5.07,4.92-10.8,5.18-16.95,2.29
				c-0.62-0.6-0.94-1.33-1.05-2.18c0.4-10.28,2.62-20.37,2.88-30.66c-0.33-11.15,2.45-21.96,3.73-32.94
				c0.5-4.26,1.38-8.47,1.25-12.79c0.04-12.97,3.17-25.61,4.34-38.46c5.9-13.74,4.43-28.79,7.58-43.04
				c1.97-8.9,2.68-18.04,4.31-27.02c0.54-3,0.29-5.88-0.4-8.86c-0.96-4.16,1.32-7.11,5.61-7.41
				C230.08,274.28,232.18,274.3,234.03,273.06z"/>
			<path class="st4" d="M187.99,271.24c5.71-0.49,11.37,0.28,17.03,0.85c0.28,1.89-1.09,2.26-2.43,2.39
				c-1.76,0.17-3.46,0.55-5.19,0.87c-7.18,1.34-7.18,1.31-5.58,8.16c0.31,1.31,0.26,2.62,0.17,3.96
				c-1.59,24.69-2.14,49.37-1.02,74.12c0.79,17.4,1.11,34.81,3.53,52.09c0.78,5.59,1.76,11.14,2.45,16.75
				c1.16,9.4,1.67,18.78,0.65,28.21c-0.03,0.52-0.06,1.05-0.09,1.57c-0.63,4.9-2.16,9.73-1.09,14.76c-0.18,3.11,4.34,4.13,3.39,7.58
				c-0.26,0.43-0.62,0.75-1.09,0.95c-3.7-0.34-5.09-3.53-7.21-5.83c-1.48-1.92-3.53-3.41-4.39-5.81c-4.5-7.37-4.08-15.94-5.62-23.97
				c-3.02-15.69-4.33-31.64-5.31-47.59c-1.03-16.93-2.8-33.85-2.08-50.82c0.5-11.6,0.21-23.2,1.05-34.83
				c0.65-9.1,1.08-18.3,1.47-27.47c0.08-1.94-0.15-3.89-1.23-5.71c-2.93-4.96-2.73-5.51,2.46-8.88
				C181.11,271.26,184.8,273.12,187.99,271.24z"/>
			<path class="st5" d="M196.03,459.94c2.05-19.14-3.72-37.53-5.35-56.32c-0.63-7.27-1.25-14.55-1.61-21.84
				c-0.63-12.74-1.35-25.49-1.49-38.25c-0.2-18.54,0.36-37.09,1.82-55.58c0.18-2.27,0.04-4.19-1.25-6.13
				c-3.19-4.76-1.75-7.87,4.07-8.55c3.12-0.37,6.32-0.1,9.47-0.28c1.12-0.06,2.22-0.59,3.33-0.91c2.66,0.02,5.32,0.04,7.98,0.06
				c1.15,2.69-0.77,2.88-2.61,3.42c-4.96,1.45-6.13,2.96-5.22,7.92c1.82,9.94,0.09,19.85,0.21,29.78c0.24,21.22-0.1,42.44,1.7,63.65
				c0.98,11.59,0.03,23.35-1.59,34.93c-0.62,4.42-0.71,8.93-1.91,13.26c-1.54,10.3-2.49,20.67-4.06,30.97
				C199.22,458.09,198.79,460.1,196.03,459.94z"/>
			<path class="st5" d="M392.98,316.94c-3.13,10.04-4.18,20.49-6.1,30.77c-4.01,21.42-7.99,42.84-11.98,64.26
				c-2.99,23.69-7.96,47.02-12.57,70.41c-2.03,10.3-4.68,12.05-15.08,10.93c-9.19-0.99-18.36-1.5-27.67-1.42
				c-6.32,0.05-12.9-0.54-19.31-0.73c-5.78-0.17-11.55-0.64-17.33-0.74c-21.29-0.38-42.43-3.2-63.69-4.06
				c-1.52-0.06-3.06-0.2-3.51-2.09c0.89-2.27,2.93-1.84,4.65-1.82c8.4,0.11,16.81-0.41,25.19,0.78c6.88,0.98,13.84-0.06,20.76,0.21
				c0.54-0.01,1.09,0.01,1.63,0.05c3.26,0.7,6.56,0.94,9.9,0.93c11.31-0.05,22.62,0.04,33.92,0.21c9.56,0.14,15.96-3.79,21.41-11.12
				c6.42-8.63,13.17-17.04,20.3-25.12c0.99-1.12,2.14-2.15,2.82-3.48c6.64-12.98,13.87-25.66,15.35-40.7
				c0.66-6.7,2.69-13.3,4.48-19.84c2.31-8.45,4.31-16.88,4.15-25.75c-0.07-3.65,1.45-7.13,2.58-10.6c0.3-0.74,0.47-1.5,0.53-2.29
				c1.18-4.32,2.24-8.67,2.98-13.09c0.34-2.02,0.28-3.95-0.58-5.84c-1.04-4.12,2.72-7.18,2.44-11.13c-0.11-1.25-0.7-2.47-0.24-3.76
				c0.42-0.69,0.94-1.15,1.82-0.82C391.22,312.87,392.53,314.68,392.98,316.94z"/>
			<path class="st6" d="M202.03,424.97c3.63-16.7,3.65-33.54,2.28-50.49c-0.72-8.91-1.29-17.88-1.19-26.81
				c0.19-17.37-1.18-34.74,0.52-52.15c0.47-4.85,0.49-10.49-3.35-15.14c-2.46-2.98,0.66-4.17,3.1-5.07
				c3.17-1.17,7.09-0.06,9.62-3.16c1.69,0.01,3.39,0.01,5.08,0.02c1.5,1.22,4.7-0.89,4.97,1.71c0.31,3.05-2.77,3.09-5.02,3.58
				c-2.7,0.59-4.57,2.07-2.74,4.87c2.83,4.34,2.09,9.15,1.52,13.54c-1.1,8.45-0.49,16.88-0.4,25.27c0.14,12.97-1.63,25.73-2.7,38.58
				c-0.04,0.48-0.39,0.9-0.68,1.31c-0.25,11.01-2.93,21.69-4.4,32.53c-0.24,1.81-0.4,3.62-0.6,5.43c-0.63,7.18-2.14,14.23-3,21.37
				c-0.21,1.74,0.11,3.66-1.52,4.98C202.95,425.47,202.46,425.35,202.03,424.97z"/>
			<path class="st7" d="M139.11,280.11c0.35-0.65,0.7-1.3,1.05-1.95c3.83,1.46,3.92,4.61,3.48,7.9
				c-1.64,12.49-3.15,24.98-3.71,37.59c-1.12,25.06-2.45,50.09-1.61,75.2c0.58,17.29,1.73,34.53,3.08,51.76
				c0.06,0.82,0.25,1.88-0.26,2.75c-3.74,3.95-6.38-0.46-9.51-1.26c-0.5-0.36-0.94-0.77-1.35-1.23c-2.93-3.75-3.42-8.18-3.65-12.71
				c-0.83-15.77-1.15-31.56-1.42-47.34c-0.15-8.64,1.37-17.27,1.12-25.97c-0.07-2.3,0.41-4.62-0.38-6.89
				c0.39-2.65,0.78-5.3,1.17-7.95c2.83-10.31,3.92-20.94,5.88-31.42c0.63-3.39,1.23-6.8,1.62-10.23
				C136.32,298.98,138.26,289.63,139.11,280.11z"/>
			<path class="st8" d="M142.01,273.92c1.22-1.77,3.02-2.51,5.05-2.86c1,0.26,1.56,0.91,1.68,1.93c-0.08,1.29-1.01,2.65-0.41,3.8
				c4.18,8.03,0.93,16.24,0.45,24.28c-0.89,14.77-2.23,29.52-2.58,44.32c-0.31,12.82-0.78,25.67-0.54,38.46
				c0.27,14.53,0.22,29.13,2.18,43.62c1.12,8.28,0.98,16.71,2.17,25.02c0.33,2.29,1.23,3.7,3.37,4.35c0.99,0.42,2.01,0.81,2.92,1.4
				c2.46,1.8,5.27,2.89,8.12,3.91c0.91,0.2,1.88,0.14,2.74,0.58c1.47,1.28,3.14,2.26,4.88,3.13c1.46,0.98,2.99,1.82,4.54,2.65
				c1.52,0.8,2.61,1.9,1.67,3.83c-2.08,1.89-4.03,0.43-5.96-0.28c-9.75-3.59-18.58-8.95-27.48-14.2c-2.53-3.23-3.54-6.87-3.82-10.96
				c-0.94-13.54-2.08-27.09-2.59-40.64c-0.56-14.86-0.64-29.76-0.15-44.65c0.45-13.72,1.23-27.43,1.77-41.15
				c0.41-10.43,1.61-20.82,3.2-31.13c0.61-3.99,0.66-7.61-1.24-11.16C141.18,276.72,141.19,275.33,142.01,273.92z"/>
			<path class="st8" d="M142.01,273.92c7.43,11.44,1.22,23.31,0.66,34.87c-0.6,12.41-1.08,24.86-2,37.27
				c-1.01,13.78-0.94,27.61-0.49,41.4c0.62,18.91,0.9,37.85,2.95,56.7c0.5,4.64-0.25,9.39,3.94,12.78c-3.57,1.9-5.4-0.28-6.99-3
				c-2.07-9.3-2.03-18.83-2.78-28.24c-1.64-20.73-1.72-41.56-1.11-62.35c0.57-19.42,1.84-38.81,3.01-58.21
				c0.32-5.29,1.69-10.48,2.26-15.79c0.43-3.95,0.18-7.59-1.3-11.2C139.92,276.37,140.49,274.94,142.01,273.92z"/>
			<path class="st9" d="M213.02,361.02c0.65-10.62,1.67-21.27,0.88-31.88c-0.67-8.95,0.81-17.88-0.53-26.84
				c-0.57-3.82,0.94-7.79,1.07-11.79c0.12-3.51-0.58-6.05-2.94-8.5c-3.57-3.7-3.31-4.59,1.72-6.1c2.65-0.8,5.42-1.18,8.26-1.77
				c-0.78-1.62-2.54-0.99-3.41-1.97c5.36-0.46,10.64,0.5,15.95,0.89c-1.41,2.13-3.73,2.58-5.93,3.36c-2.88,1.03-4.48,2.77-2.95,6.09
				c1.16,2.53,0.8,5.16,0.32,7.83c-3.25,17.95-5.32,36.1-9.13,53.96c-0.82,3.87-0.92,7.9-1.28,11.86
				C214.9,358.02,214.67,359.8,213.02,361.02z"/>
			<path class="st10" d="M125.95,357.97c2.63,1.41,2.1,3.94,2.11,6.2c0.04,15.64-0.18,31.28,0.09,46.92
				c0.2,11.45,0.58,22.92,1.84,34.33c0.23,2.06,0.92,3.87,2.09,5.53c-4.72,1.88-7.66-0.93-10.51-3.98
				c-3.86-8.29-1.88-17.19-2.7-25.79c-1.18-12.4,0.64-24.58,2.71-36.73c1.02-4.75,1.62-9.59,2.67-14.35
				C123.67,365.89,124.67,361.91,125.95,357.97z"/>
			<path class="st11" d="M178.8,477.97c-0.8-0.25-1.6-0.5-2.41-0.74c-20.03-9.1-40.64-16.87-60.49-26.39
				c-0.9-0.43-1.81-0.75-2.76-1.01c-3.4-4.21-1.83-8.85-1.12-13.4c0.33-2.14,0.79-4.25,1.18-6.38c2.92-0.25,2.61,2.39,2.31,3.54
				c-2.22,8.7,3.7,12.53,9.73,15.58c4.48,2.26,9.14,4.43,14.03,5.87c11.41,6,22.93,11.82,34.85,16.74c4.7,1.94,9.73,3.12,14.37,5.34
				c1.95,0.93,4,1.65,5.74,2.97c1.12,1.23,3.36,1.64,2.92,4.01c-0.62,0.55-1.33,0.71-2.13,0.52
				C189.56,482.56,184.24,480.12,178.8,477.97z"/>
			<path class="st12" d="M113.14,449.83c2.01-2.25,4.05-0.63,5.85,0.17c17.11,7.62,34.18,15.35,51.25,23.06
				c2.28,1.03,4.36,2.38,6.15,4.17c-2.55,1.6-4.43-0.65-6.36-1.42c-16.13-6.43-32.14-13.16-48.24-19.65
				C118.31,454.75,115.32,452.91,113.14,449.83z"/>
			<path class="st13" d="M360.2,496.23c-0.68,1.38-1.81,2.23-3.25,2.7c-8.21,1.63-16.29-0.37-24.43-0.76
				c-15.11-0.73-30.11-2.83-45.23-3.33c-4.74-1.28-9.62-0.75-14.43-1.09c-4.92-1.78-10.17-1.09-15.21-1.56
				c-9.66-0.89-19.35-1.93-29.06-2.31c-1.53-0.06-3.51,0.44-3.69-2.1c1.37-1.68,3.31-1.42,5.08-1.29c19.86,1.46,39.71,2.98,59.6,4.1
				c17.01,0.96,34.02,2.1,51.02,3.2c5.38,0.35,10.87,1.04,16.34,0.62C358.25,494.59,360.15,493.73,360.2,496.23z"/>
			<path class="st14" d="M122.08,383c-0.11,8.98-2.76,17.76-2.02,26.82c0.79,9.61,1.24,19.24,1.11,28.9
				c-0.04,2.84,0.88,5.58,1.91,8.23c-4.53-0.29-7.91-3.98-7.82-9c0.16-9.33-0.16-18.7,1.98-27.9c-0.36-9.27,2.7-18.03,4.02-27.04
				C121.54,382.7,121.81,382.7,122.08,383z"/>
			<path class="st15" d="M287.02,493.89c23.31,1.68,46.62,3.37,69.93,5.05c-2.87,2.14-6.22,2.21-9.53,1.92
				c-23.13-1.97-46.26-4.03-69.38-6.05C280.79,492.13,283.97,493.64,287.02,493.89z"/>
			<path class="st16" d="M224.96,487.95c9.89,2.08,20.02,1.78,30,2.96c6.05,0.72,12.2,0.47,18.17,1.92
				c-2.17,1.78-4.88-0.35-7.1,0.99c-18.37-1.48-36.73-3-55.1-4.41c-5.99-0.46-11.93-0.9-17.17-4.27c0.12-0.77,0.59-1.16,1.33-1.25
				c0.65,0.01,1.31,0.01,1.96,0.02c8.84,0.71,17.6,2.12,26.44,2.83C224.15,486.8,224.61,487.37,224.96,487.95z"/>
			<path class="st17" d="M117.24,410.05c-0.4,8.17-0.81,16.37-0.06,24.52c0.44,4.71-0.38,10.33,5.9,12.38
				c2.77,1.85,5.81,3.07,8.99,4c0,0,0,0,0,0c1.96,2.19,5.92,1.59,6.99,5.01c-7.92-2.48-15.25-6.18-22.23-10.63
				c-3.47-2.21-4.3-5.2-3.34-8.99c0.54-2.11,0.9-4.24-0.29-6.28C114.27,423.33,114.58,416.45,117.24,410.05z"/>
			<path class="st6" d="M389.83,311.11c-0.31,0.32-0.63,0.63-0.94,0.95c-4.24,1.38-7.47-2.32-11.45-2.28
				c-3.33-0.38-6.42-1.85-9.77-2.13c-4.39-0.81-9-0.75-12.96-3.25c-5.16-2.08-10.42-3.84-15.78-5.32c-2.7-1.95-6.67-1.06-8.95-3.95
				c5.97-0.59,11.31,2.17,16.95,3.28c10.53,2.07,20.94,4.76,31.4,7.22C382.55,306.61,386.47,308.28,389.83,311.11z"/>
			<path class="st18" d="M294.96,288.08c-0.32-0.69-0.63-1.38-0.95-2.07c9.4,1.39,18.51,4.08,27.75,6.19
				c1.05,0.24,1.73,0.94,2.22,1.86c-1.35,0-2.69,0.01-4.04,0.01c-4.17,3.19-8.03,0.04-12.02-0.58c-3.15-1.28-6.64-1.31-9.77-2.6
				C296.81,290.34,294.63,290.6,294.96,288.08z"/>
			<path class="st19" d="M135.08,308.06c-1.05,13.39-4.27,26.44-6.19,39.69c-0.15,1.06-0.87,1.75-1.77,2.26
				c0.99-11.54,3.9-22.77,5.44-34.22c0.35-2.6,1.07-5.15,1.63-7.73C134.48,307.74,134.78,307.74,135.08,308.06z"/>
			<path class="st20" d="M369.98,450.12c-1.44,11.12-3.26,22.17-5.89,33.08c-1.26-0.34-1.78-1.29-2.05-2.46
				c2.05-11.05,3.54-22.21,6.84-33C370.62,447.9,370.58,448.88,369.98,450.12z"/>
			<path class="st21" d="M369.98,450.12c-0.35-0.72-0.71-1.45-1.06-2.17c-0.57-6.7,1.86-12.95,3.02-19.38
				c0.52-2.88,0.21-5.99,1.98-8.59c0.36,0.01,0.72,0.02,1.09,0.02C374.39,430.22,372.34,440.2,369.98,450.12z"/>
			<path class="st13" d="M135.08,308.06c-0.3,0-0.6,0-0.9,0.01c1.37-9.37,2.72-18.74,4.93-27.96c1.37,2.06,0.4,4.17,0.03,6.21
				C137.81,293.57,137.31,300.98,135.08,308.06z"/>
			<path class="st22" d="M195.08,483.9c-0.44,0.42-0.89,0.83-1.33,1.25c-5.06-2.22-10.9-2.84-14.95-7.18
				C184.85,478.23,189.83,481.44,195.08,483.9z"/>
			<path class="st21" d="M158.04,270.21c7.36-0.65,14.63,0.85,21.96,0.91c-0.67,2.79-3.23,1.72-4.92,2.41
				c-2.89,0.16-5.8-0.05-8.67,0.46c-1.16,0.08-2.3-0.18-3.45-0.25c-1.68-0.27-3.51,0.12-4.95-1.16
				C157.45,271.79,157.4,270.99,158.04,270.21z"/>
			<path class="st23" d="M362.93,480.93c0.39,0.76,0.78,1.51,1.16,2.27c-0.27,4.65-0.71,9.25-3.89,13.03
				c-0.7-0.54-1.48-0.61-2.3-0.34c-0.4-0.35-0.67-0.78-0.79-1.3C360.23,490.54,360.42,485.24,362.93,480.93z"/>
			<path class="st24" d="M266.02,493.83c2.23-1.28,4.72-0.78,7.1-0.99c4.63,0.39,9.37-0.74,13.9,1.05c-3,0.25-6.11-0.54-8.99,0.92
				C274.03,494.48,270.03,494.15,266.02,493.83z"/>
			<path class="st25" d="M122.08,383c-0.27,0-0.55,0-0.82,0c0.68-4.38,0.61-8.92,2.98-12.91C124.43,374.55,124.16,378.93,122.08,383
				z"/>
			<path class="st23" d="M158.04,270.21c0,0.63,0.01,1.25,0.01,1.88c-0.27,0.51-0.66,0.89-1.18,1.16c-1.37,0.42-2.79,0.32-4.19,0.37
				c-1.65-0.16-3.5,0.28-4.62-1.52c-0.34-0.34-0.68-0.68-1.01-1.03C150.59,269.15,154.36,270.2,158.04,270.21z"/>
			<path class="st26" d="M175.05,272.09c1.71-0.01,3.44,0.04,4.95-0.97c2.66,0.04,5.33,0.08,7.99,0.11
				c-2.46,3.16-5.94,1.35-8.95,1.85c-1.21,0.71-2.46,0.96-3.8,0.4C174.78,273.08,174.71,272.62,175.05,272.09z"/>
			<path class="st27" d="M362.93,480.93c-0.87,4.95-1.25,10.07-5.01,13.98c-4.87,1.72-9.87,0.61-14.73,0.26
				c-18.87-1.32-37.76-2.3-56.62-3.82c-16.36-1.32-32.74-2.28-49.1-3.65c-10.23-0.86-20.54-1.09-30.8-1.81
				c-2.79-0.2-6.08,0.57-7.63-2.96l0.02-0.03c5.81-2.14,11.42-1.01,16.97,1.03c5.75,2.2,11.86,1.14,17.76,1.59
				c17.05,1.31,34.07,3.07,51.19,3.45c11.1,0.25,22.18,1.39,33.27,1.3c7.63-0.06,15.23,0.32,22.84,0.29c4.6-0.02,9,2.27,13.78,0.57
				c2.68-0.95,4.37-2.16,4.9-4.92c3.04-15.85,5.8-31.75,9.24-47.51c1.94-8.91,3.01-18.02,5.9-26.71c0.14,2.72-0.26,5.38-0.99,8
				c-1.67,9.32-3.33,18.65-5,27.97C366.92,458.94,364.92,469.94,362.93,480.93z"/>
			<path class="st28" d="M294.96,288.08c4.04,2.26,8.86,2.03,12.99,3.99c6.55,1.83,13.01,3.93,19.34,6.43
				c0.49,0.11,0.95,0.27,1.4,0.49c8.69,4.49,8.69,4.49,1.24,11.38c-1.24,1.15-2.27,2.46-2.94,3.99
				c-3.56,8.19-8.19,15.79-12.75,23.42c-5.86,9.81-11.91,19.49-18.72,28.71c-7.47,10.11-15.62,19.68-23.98,28.95
				c-5.15,5.71-10.44,11.81-17.54,15.7c-2.86,1.57-5.23,4.1-7.66,6.3c-3.28,2.96-6.55,5.54-10.88,6.67
				c-1.46,0.38-2.63,1.48-3.48,2.73c-2.18,3.19-4.92,5.82-7.93,8.2c-4.43,3.52-4.69,9.14-6.67,13.84c-1.72,4.1-3.83,8.06-5.06,12.4
				c-0.54,1.92-1.84,3.84-4.27,3.37c-2.14-0.42-3.6-2.2-3.39-4.34c0.5-5.1-0.33-10.3,1.17-15.32c1.44-20.45,4.79-40.67,7.19-61
				c2-13.86,4.12-27.71,5.92-41.6c0.56-4.28,0.83-8.54,3.07-12.36c2.82,2.2,1.64,5.33,1.3,7.86c-0.86,6.37-1.4,12.8-2.8,19.1
				c-1.41,6.38-1.47,12.9-1.98,19.38c-1.01,13.08-2.58,26.11-3.85,39.17c-0.21,2.1-0.68,4.29,0.68,6.58
				c2.22-0.86,2.58-2.89,2.98-4.71c0.98-4.39,2.8-8.59,3.69-12.92c1.72-8.32,6.81-13.88,13.38-18.38
				c5.09-3.49,10.36-7.13,14.1-11.73c4.68-5.75,11.61-9.4,14.86-16.37c0.55-1.18,1.31-2.43,2.37-3.18
				c9.67-6.88,14.28-17.56,20.84-26.85c5.17-7.32,9.51-15.16,14.9-22.3c0.2-0.27,0.44-0.5,0.63-0.77c4.91-6.71,4.61-7.58-3.21-9.97
				c-6.76-2.07-13.46-4.35-19.9-7.28c-1.46-0.67-3.82-0.88-3.04-3.58C282.97,285.41,288.97,286.75,294.96,288.08z"/>
			<path class="st29" d="M276.98,284.08c7.18,4,15.36,5.2,22.91,8.17c3.39,1.34,7.08,1.96,10.16,4.03c1.61,1.08,3.05,2.6,0.66,4.29
				c-5.03,3.55-8.06,8.79-11.02,13.84c-7.24,12.37-14.64,24.83-24,35.45c-5.95,6.75-12.38,13.58-18.47,20.25
				c-8.62,9.44-19.83,15.51-28.12,24.79c-4.68,5.23-5.63,12.98-7.44,19.85c-0.98,3.73-1.96,7.38-3.92,10.7
				c-0.8,1.35-1.05,3.77-3.05,3.44c-2.38-0.4-2.44-2.89-2.58-4.85c-0.53-7.34,0.78-14.57,1.39-21.84
				c1.87-22.01,5.12-43.85,8.37-65.69c0.32-2.12,0.1-4.32,0.14-6.48c-0.49-6.06,1.13-11.88,2.05-17.78c1.55-10,3.1-20.01,4.98-29.95
				c0.88-4.63,3.58-7.8,8.97-7.23c0.62,0.95,0.67,2.08-0.08,2.78c-4.99,4.66-4.7,11.08-5.76,17.03
				c-2.38,13.32-4.05,26.76-5.91,40.15c-1.59,11.44-3.28,22.94-2.94,34.57c0.06,2.09-0.13,4.23,0.64,6.66
				c3.56-7.49,5.71-15.08,7.3-22.62c2.61-12.33,9.97-20.72,19.65-27.72c1.22-0.88,2.69-1.59,3.35-2.92
				c4.02-8.14,11.12-14.2,14.98-22.45c0.99-2.11,2.4-3.98,4.16-5.56c3.9-3.51,3.77-4.7-1.38-6.27c-7.79-2.38-15.57-4.8-23.39-7.11
				c-2.42-0.72-4.68-1.72-6.82-3.01c-1.29-0.78-2.66-1.6-1.8-3.52C252.6,276.96,264.69,280.91,276.98,284.08z"/>
			<path class="st30" d="M338.93,299.07c5.67-0.04,10.67,2.61,15.99,4c4.58,0.94,8.71,3.32,13.32,4.15
				c1.99,0.83,4.02,1.52,5.58,3.18c1.75,1.85,2.23,3.76,0.53,5.76c-6.6,7.79-9.67,17.41-13.43,26.58c-2.04,4.98-4.86,9.37-7.4,14.01
				c-5.73,10.5-11.84,20.78-17.56,31.28c-0.81,1.49-1.89,2.76-3.13,3.86c-3.27,2.92-5.82,6.24-7.5,10.39
				c-1.79,4.43-6.95,6.13-9.2,10.33c-4.52,8.44-12.67,14-17.58,22.14c-0.7,1.16-1.8,1.94-2.97,2.62c-3.22,1.86-5.91,4.4-8.21,7.23
				c-10.1,12.41-23.08,21.46-35.76,30.84c-4.66,3.45-10.24,4.59-15.89,4.92c-7.96,0.46-15.98-0.65-23.9,0.99
				c-1.09,0.06-2.17,0.05-3.26,0.05c-3.24-0.27-7.21,0.67-7.54-4.49c5.81,1.57,11.25,2.07,14.61-4.49c0.39-0.75,1.59-1.12,2.46-1.59
				c7.52-4.1,15.57-7.46,22.42-12.48c6.13-4.49,12.51-8.42,18.91-12.41c1.02-0.63,1.54-2.1,2.23-3.21c2.13-3.46,4.7-6.46,8.57-8.03
				c2.22-0.9,4.05-2.32,5.57-4.11c9.82-11.59,20.67-22.24,29.99-34.32c4.61-5.97,10.08-11.41,14.8-17.41
				c0.71-0.91,1.71-1.85,1.87-2.88c1.56-9.85,9.14-16.33,13.93-24.31c1.96-3.26,0.74-7.21,3.79-9.82c4.71-4.03,6.86-9.77,8.81-15.36
				c1.91-5.47,4.81-10.2,8.52-14.45c2.38-2.72,1.21-4.14-1.3-5.29C350.48,304.14,344.7,301.63,338.93,299.07z"/>
			<path class="st31" d="M240,275.09c8.83,4.93,18.75,6.74,28.23,9.76c4.14,1.32,8.28,2.53,12.01,4.8c1.14,0.69,2.34,1.51,2.17,3.08
				c-0.18,1.63-1.52,2.06-2.87,2.3c-5.15,0.9-7.63,4.27-8.62,9.11c-0.19,0.94-0.47,2.22-1.15,2.66c-7.07,4.59-9.26,12.71-13.9,19.04
				c-1.22,1.67-3.12,1.82-4.5,2.9c-7.41,5.76-14.13,11.92-16.56,21.7c-2.4,9.67-5.6,19.13-8.48,28.68
				c-0.29,0.95-0.76,1.85-1.26,2.71c-0.55,0.97-0.93,2.4-2.41,2.11c-1.41-0.28-1.49-1.66-1.54-2.81
				c-0.36-7.98-0.79-15.99,0.24-23.91c3.09-23.74,6.54-47.44,9.62-71.18c0.65-4.98,3.37-8.15,7.03-10.94
				C238.67,275.09,239.34,275.09,240,275.09z"/>
			<path class="st32" d="M327.94,298.07c6.96,1.26,13.34,4.07,19.51,7.39c2.58,1.39,3.65,2.87,0.27,4.86
				c-2.83,1.66-4.22,4.66-5.62,7.49c-4.4,8.93-7.95,18.38-13.23,26.74c-5.55,8.78-10.2,18.08-16.78,26.37
				c-6.54,8.24-12,17.49-19.32,25.11c-7.05,7.33-12.04,16.57-21.09,22.11c-3.29,2.01-5.79,5.36-8.38,8.43
				c-5.06,5.98-11.57,10.38-18,14.83c-5.45,3.77-10.6,7.97-15.89,11.98c-0.92,0.7-1.8,1.81-2.81,1.97
				c-8.69,1.31-11.71,7.83-14.23,14.96c-0.6,1.7-1.39,3.4-2.44,4.85c-1.18,1.63-3.05,1.96-4.95,1.29c-1.54-0.54-2.76-1.75-2.57-3.33
				c1.09-9.04,0.21-18.26,2.63-27.17c0.14,0.19,0.29,0.37,0.43,0.56c0,3.98,0.42,7.97-0.39,11.92c-0.1,0.48-0.05,1-0.03,1.49
				c0.12,2.43,1.02,5.26,3.01,5.8c2.36,0.64,3.13-2.5,3.83-4.31c2.73-7.05,6.48-13.69,8.37-21.07c0.47-1.86,1.84-2.81,3.66-3.6
				c8.88-3.89,17.81-8.04,24.2-15.51c5.21-6.09,11.68-10.42,18.25-14.37c6.71-4.04,9.64-10.81,14.61-16.01
				c4.8-5.02,7.4-12.06,14.12-15.32c2-0.97,3.64-2.8,3.85-4.98c0.43-4.36,2.86-7.32,5.94-9.94c5.39-4.57,6.8-11.56,10.46-17.21
				c6.62-10.21,12.82-20.8,16.73-32.49c0.32-0.96,1.13-1.61,1.81-2.35c3.27-3.55,2.93-5.39-1.56-7.19c-1.57-0.63-3.01-1.34-4.36-2.3
				v0c-0.36-0.22-0.48-0.44-0.36-0.67C327.7,298.18,327.82,298.07,327.94,298.07z"/>
			<path class="st33" d="M201.03,476.93c1.99,2.79,4.94,3.03,8,3c0.25,2.56-1.65,2.66-3.38,2.95c-7.5-1.13-11.1-6.52-9.9-14.18
				c0.76-4.87,2.25-9.55,2.93-14.46c1.36-9.76,2.51-19.57,4.35-29.26c1.86-6.48,2.41-13.2,3.48-19.82c0.34-2.09,0.28-4.29,1.51-6.16
				c0.12,11.86-2.7,23.38-4.21,35.05c-0.47,3.64-0.86,7.25-0.79,10.91c-1.04,10.32-3.15,20.54-3,30.98
				C200.36,476.26,200.7,476.59,201.03,476.93z"/>
			<path class="st32" d="M213.02,384c-0.71,16.21-3.38,32.2-5.48,48.24c-0.6,4.57,0.56,9.33-1.51,13.71c-0.33,0.68-0.67,0.68-1,0
				c0.71-16.07,3.46-31.91,5.51-47.83C211.15,393.39,211.08,388.51,213.02,384z"/>
			<path class="st30" d="M200.03,475.93c-2.18-3.7-0.3-7.44,0.08-11.09c0.69-6.66,0.57-13.46,2.92-19.89
				C203.05,455.38,201.1,465.61,200.03,475.93z"/>
			<path class="st32" d="M327.94,298.07c0,0.33,0,0.67,0,1c-6.87-1.73-13.58-3.94-19.99-7c4,0.67,7.99,1.34,11.99,2
				C321.99,296.64,325.5,296.3,327.94,298.07z"/>
			<path class="st34" d="M175.05,272.09c0,0.33,0,0.66,0,1c-0.27,1.59-1.5,2.52-2.48,3.62c-2.2,1.15-3.19,2.7-1.47,4.96
				c1.28,1.69,1.14,3.71,0.92,5.47c-3.39,27.76-3.03,55.65-2.95,83.52c0.05,15.16,1.95,30.2,2.77,45.31
				c0.85,15.62,3.65,30.97,5.89,46.4c0.45,3.07,1.8,5.2,5.21,5.33c2.98,0.63,4.03,3.51,6.09,5.22c1.59,1.08,3.33,2,4,4
				c-3.92,1.41-6.54-1.54-9.48-3.04c-4.1-2.08-7.92-4.71-11.8-7.2c-4.16-2.36-6.3-6.15-6.74-10.67c-2.11-21.78-4.85-43.5-5.54-65.42
				c-0.57-18.19-0.87-36.38-0.28-54.56c0.53-16.3,1.59-32.59,3.27-48.83c0.23-2.26,0.55-4.42-0.7-6.59
				c-2.64-4.59-2.24-5.63,2.49-7.65c0.61-0.26,1.23-0.51,1.8-0.86C169.05,272.1,172.05,272.1,175.05,272.09z"/>
			<path class="st35" d="M172.05,274.09c1-0.33,2-0.67,3-1c1.33,0,2.67,0,4,0c-3.55,2.27-4.34,4.8-1.84,8.67
				c2.39,3.7,0.97,8.18,0.67,12.21c-1.28,17.39-1.8,34.79-1.88,52.22c-0.17,34.26,2.45,68.32,7.46,102.16
				c1.22,8.23,1.92,16.8,5.58,24.58c-2-1-4-2-6-3c-0.95-1.06-2.22-1.91-2.41-3.5c-0.36-7.11-2.57-13.92-3.64-20.94
				c-2.05-13.49-3.06-27.06-4.25-40.59c-2.15-24.45-2.66-48.98-2.02-73.54c0.25-9.76,1.31-19.49,0.45-29.32
				c-0.51-5.86,1.4-11.85,0.81-17.86c-0.37-1.28-0.97-2.33-1.71-3.47C168.56,278.1,168.36,275.46,172.05,274.09z"/>
			<path class="st36" d="M173.05,466.93c6.66,3.33,13.33,6.66,19.99,9.99c1.86,2.13,3.52,4.48,5.99,6
				c5.71,3.6,12.28,2.19,18.41,2.81c17.48,1.75,35.03,2.82,52.57,3.99c13.57,0.91,27.16,1.46,40.73,2.36
				c15.72,1.03,31.39,2.77,47.17,2.82c0,0.33-0.01,0.66-0.02,0.99c-6.6,1.12-13.19-0.02-19.76-0.34
				c-12.75-0.63-25.48-1.71-38.21-2.64c-16.7-1.22-33.4-2.64-50.11-3.64c-8.28-0.5-16.52-1.86-24.85-1.31
				c-9.38-0.83-19.06,0.41-27.92-4.04c-1-0.99-2.01-1.99-3.01-2.98c-4.33-3-9.6-4.04-14.09-6.72c-0.89-0.54-2.4-0.57-1.9-2.27
				c-1.71-2.54-5.42-2.28-6.99-5C171.71,466.29,172.38,466.37,173.05,466.93z"/>
			<path class="st6" d="M203.03,424.97c-1,14.67-3.69,29.12-5.67,43.66c-1.07,7.84,1.67,12.26,8.67,13.29
				c11.43-3.32,22.96-0.24,34.44-0.5c2.93,0.04,5.86-0.09,8.79,0.1c4.39,0.88,8.83,0.83,13.27,0.95c1.79,0.05,4.2-0.59,4.45,2.44
				c-5.57,0.25-11.21,1.15-16.7,0.6c-11.41-1.15-22.82-1.63-34.27-1.6c-5.69,0.13-11.36,0.01-16.97-1.03
				c-1.34-2.32-2.68-4.64-4.01-6.97c-1-5.41,1.21-10.62,1-15.99c0,0,0,0,0,0c3.05-4.52,2.34-9.84,3.11-14.84
				c1.03-6.7,1.93-13.42,2.88-20.14C202.36,424.97,202.7,424.97,203.03,424.97z"/>
			<path class="st5" d="M196.03,459.94c1.13,5.42-0.61,10.66-1,15.99C192.94,470.45,195.05,465.23,196.03,459.94z"/>
			<path class="st6" d="M384.9,348.03c-2.81,18.06-6.17,36.01-10.27,53.83c-1.26,5.49-1.43,11.18-3.33,16.57
				c-5.05,14.34-11.79,27.51-22.05,39.07c-6.3,7.1-12.38,14.53-18.03,22.21c-3.88,5.27-9.06,7.12-15.11,7.16
				c-8.97,0.05-17.94,0.29-26.91-0.63c-5.25-0.54-10.6-0.09-15.91-0.19c-1.81-0.03-3.68-0.06-5.3-1.12
				c-0.44-1.95,0.93-2.29,2.3-2.39c1.99-0.15,3.96,0.07,5.96,0.25c12.26,1.14,22.9-1.71,31.36-11.55c5.16-6,10.26-12.14,16.47-17.22
				c2.8-2.29,4.97-5.44,6.91-8.47c7.98-12.45,18.04-23.35,26.17-35.67c1.38-2.09,2.7-4.18,3.83-6.41
				c3.51-6.95,6.84-13.98,10.65-20.8c5.08-9.09,6.27-19.72,9.71-29.5C382.08,351.11,381.42,348.16,384.9,348.03z"/>
			<path class="st18" d="M249,482.92c-3,0-6,0-8.99,0c-3.02-1.06-6.15-0.2-9.2-0.52c-1.14-0.12-2.81,0.63-2.96-1.5
				c2.81-1.91,5.98-0.58,8.95-0.98c4.64-0.47,9.22-0.3,13.88,0.3c15.19,1.96,26.31-5.71,35.95-16.13
				c9.7-10.48,19.02-21.34,29.1-31.43c6.46-6.47,11.36-13.93,16.31-21.33c3.95-5.9,8.7-11.17,12.28-17.39
				c7.53-13.11,15.83-25.68,21.94-39.7c4.84-11.11,9.32-22.49,15.2-33.14c2.07-3.75,3.08-6.65-1.87-8.62
				c-0.64-0.25-0.91-0.94-1.07-1.61c0.01-0.52,0.21-0.95,0.6-1.29c4.44,0.15,8.21,1.63,10.78,5.47c0.68,3.76-2.39,7.17-1,10.99
				c-0.5,0.6-0.67,1.34-0.89,2.07c-3.32,13.1-5.37,26.68-12.26,38.57c-8.06,13.93-16.09,27.88-23.81,42.01
				c-3.81,6.97-10.26,12.17-14.3,19.09c-5.22,8.92-12.93,15.94-18.87,24.38c-3.23,4.58-7.61,9.15-12.64,12.49
				c-0.7,0.46-1.51,0.92-1.86,1.64c-3.34,6.99-10.61,9.78-15.75,14.85c-1.74,1.72-4.09,2.71-6.37,2.64
				C271.11,483.41,260.03,483.9,249,482.92z"/>
			<path class="st9" d="M249,482.92c6.98,0,14.02-0.56,20.93,0.14c9.19,0.93,16.26-2.19,22.83-8.35
				c6.18-5.8,11.34-12.64,17.75-18.04c7.61-6.4,12.43-14.94,18.99-22.11c6.11-6.68,10.93-14.56,16.2-21.97
				c11.64-16.35,20.02-34.69,30.48-51.79c4.05-6.63,5.9-14.41,7.83-21.98c1.02-4.02,1.65-8.16,3.88-11.78
				c1.21,4.83-1.42,9.17-1.89,13.8c-0.16,1.64-0.15,3.59-1.11,5.18c0,0.67,0,1.33,0,2c-2.85,6.26-3.41,13.14-5.3,19.68
				c-2.36,8.16-4.66,16.13-9.83,23.2c-2.98,4.08-4.19,9.4-6.68,13.9c-4.74,8.56-10.61,16.33-16.85,23.88
				c-4.09,4.95-7.4,10.54-11.34,15.63c-3.61,4.66-6.71,9.67-11.39,13.61c-4.61,3.88-8.98,8.42-12.49,13.23
				c-9.02,12.33-21.2,14.86-35.19,13.52c-2.6-0.25-5.27-0.95-7.84,0.25c-0.33,0-0.67,0-1,0c-3.44-1.75-7.14-0.75-10.73-0.99
				C253.81,483.77,251.28,484.28,249,482.92z"/>
			<path class="st6" d="M384.9,346.03c1-6.33,2-12.66,3-18.99c0.33-0.33,0.67-0.67,1-1C388.56,332.91,387.35,339.59,384.9,346.03z"
				/>
			<path class="st9" d="M389.89,315.05c-3.24-2.59-6.81-4.46-10.99-4.99c-0.93-0.37-1.58-0.87-1-2c4.03,0.32,7.48,2.25,10.99,3.99
				C389.23,313.06,389.56,314.06,389.89,315.05z"/>
			<path class="st10" d="M178.04,471.94c3.34,2.79,7.64,3.62,11.41,5.53c1.77,0.9,3.56,1.64,4.58,3.47
				c-13.71-4.52-26.37-11.48-39.59-17.13c-5.28-2.26-10.99-3.78-15.37-7.85c-2.03-2.09-5.3-2.45-6.99-5.01c2.67,1,5.33,2,8,3
				c2.33,1,4.66,2,6.99,3C156.71,463.34,166.91,468.59,178.04,471.94z"/>
			<path class="st37" d="M173.05,466.93c-0.67,0-1.34,0-2,0c-1.66-0.67-3.33-1.34-4.99-2.01c-5.11-3.38-6.29-8.84-6.89-14.23
				c-2.01-17.91-3.3-35.9-4.28-53.88c-0.49-9.04-0.71-18.17-0.1-27.28c0.29-4.3-0.66-8.61-0.56-13.01
				c0.31-14.53,1.05-29.03,1.97-43.53c0.59-9.35,1.41-18.67,2.13-28.01c0.12-1.59,0.34-2.95-0.73-4.57
				c-3.18-4.82-2.46-6.27,3.11-7.56c0.8-0.19,1.65-0.26,2.35-0.76c1,0,2,0,3,0c-3.46,2.61-5.95,5.3-1.95,9.59
				c0.85,0.91,0.93,2.86,0.82,4.29c-0.48,6.44-1.24,12.87-1.75,19.31c-1.35,16.85-1.97,33.73-2.11,50.63
				c-0.24,27.73,1.46,55.35,4.8,82.88c0.56,4.61,0.91,9.25,1.18,13.88C167.36,458.17,168.74,463.15,173.05,466.93z"/>
			<path class="st38" d="M163.06,272.1c-1.29,0.75-2.56,1.51-3.86,2.24c-1.55,0.87-2.42,2.37-1.22,3.67
				c4.06,4.4,2.26,9.54,1.79,14.27c-1.45,14.86-1.8,29.78-2.75,44.66c-1.18,18.51-0.13,37,0.14,55.49
				c0.17,11.42,1.18,22.85,2.2,34.24c0.92,10.19,2.5,20.33,3.52,30.52c0.3,3.03,2.41,5.05,3.17,7.75c-0.67-0.33-1.33-0.66-2-0.99
				c-8.53-3.27-8.9-10.8-9.51-18.2c-0.94-11.3-2.16-22.6-2.76-33.88c-0.62-11.55-2.05-23.13-1.12-34.77
				c0.46-5.72-0.06-11.47-0.17-17.2c-0.25-13.18,0.83-26.32,1.37-39.46c0.46-10.98,1.84-21.99,2.67-33.01
				c0.16-2.14,0.1-4.31-0.78-6.37c-2.7-6.31-2.68-6.32,3.31-8.95c0.33,0,0.66,0,1,0C159.72,272.09,161.39,272.09,163.06,272.1z"/>
			<path class="st21" d="M148.07,272.09c1.66,0,3.33,0,4.99,0c-0.25,2.78-2.39,5.57,0.03,8.35c0.92,7.62,0.43,15.18-0.83,22.71
				c-1.13,6.74-0.85,13.57-1.4,20.36c-0.99,12.23-1.73,24.5-1.33,36.8c0.21,6.64-0.95,13.36-0.56,19.87
				c0.6,10.09,0.09,20.21,1.15,30.28c1.61,15.34,1.93,30.81,4.39,46.07c0.13,0.83-0.02,1.66-0.46,2.4
				c-4.01-0.74-5.96-3.25-6.33-7.22c-0.86-9.42-2.01-18.82-2.59-28.25c-0.77-12.42-1.87-24.9-1.47-37.31
				c0.74-23.06-0.17-46.16,2.06-69.21c1.04-10.72,1.75-21.5,2.87-32.23c0.18-1.76-0.29-3.32-1.13-4.77
				C145.88,277.16,146.05,274.58,148.07,272.09z"/>
			<path class="st36" d="M151.06,279.09c-1.8-3.04,0.16-5,2-6.99c1.33,0,2.67,0,4,0c-3.36,2.59-4.01,4.78-1.29,8.98
				c2.31,3.57,0.14,8.68-0.05,13.11c-0.51,11.76-2.23,23.42-2.76,35.2c-0.95,21.05-1.1,42.11-0.53,63.14
				c0.42,15.39,2.14,30.74,3.26,46.11c0.17,2.32,0.19,4.64,0.4,6.96c0.62,6.99,1.24,14,7.97,18.35c-2.93-0.79-5.63-2.06-7.99-4
				c-3.01-3.32-3.31-7.62-3.75-11.68c-0.55-5.09-0.93-10.24-1.1-15.33c-0.4-11.76-2.61-23.37-2.25-35.19
				c0.3-9.95-1.08-19.9-0.4-29.89c0.64-9.4,0.02-18.84,0.55-28.24c0.94-16.72,1.37-33.47,3.73-50.09
				C153.34,285.96,153.86,282.19,151.06,279.09z"/>
			<path class="st39" d="M151.06,279.09c3.54,2.14,3.31,5.61,2.81,8.9c-2.86,18.93-3.84,38.06-4.1,57.11
				c-0.19,13.84-0.13,27.77-0.09,41.62c0.05,20.33,3.05,40.39,3.44,60.63c0.09,4.37,1.51,8.49,2.93,12.58c-0.67-0.33-1.33-0.67-2-1
				c-3.67-8.47-3.1-17.61-3.86-26.47c-1.41-16.35-3.21-32.79-2.73-49.13c0.5-17.07-0.21-34.18,1.24-51.24
				c1.01-11.89,1.53-23.83,2.4-35.73C151.53,290.6,152.99,284.84,151.06,279.09z"/>
			<path class="st33" d="M367.91,308.06c-4.63-0.87-8.75-3.1-12.99-4.99c4.53,0.13,8.61,2.23,12.99,3c0.56,0.82,2.8,0.17,1.96,2.23
				C369.16,308.7,368.51,308.63,367.91,308.06z"/>
			<path class="st18" d="M369.91,308.06c-0.67-0.66-1.33-1.33-2-1.99c3.33,0.66,6.66,1.33,9.99,1.99c0.33,0.67,0.67,1.33,1,2v0
				c-0.67,1-1.67,1.37-2.81,1.46C373.63,311.09,371.59,309.91,369.91,308.06z"/>
			<path class="st32" d="M205.03,445.95c0.33,0,0.67,0,1,0c0.03,4.49,0.01,8.98,0.13,13.47c0.04,1.52,0.46,3.21,2.29,3.39
				c1.6,0.16,2.14-1.36,2.6-2.61c2.4-6.55,5.52-12.84,7.08-19.7c0.56-2.47,1.4-4.83,3.4-6.52c3.56-3,6.99-6.1,9.44-10.16
				c0.48-0.79,1.44-1.61,2.31-1.8c7.86-1.71,11.92-9.04,18.32-12.44c6.26-3.32,9.45-9.55,15.45-12.9c3.01-1.68,5.59-4.84,7.37-7.9
				c5.77-9.9,14.85-17.06,21.08-26.69c7.08-10.97,14.24-21.82,20.74-33.18c2.85-4.98,5.01-10.31,8.03-15.2
				c1.7-2.75,3.34-5.35,6.24-6.9c3.54-1.89,3.59-3.54-0.11-5.34c-0.98-0.47-1.65-1.59-2.46-2.41c3.65,1.11,7.52,1.73,10.57,4.26
				c1.79,1.49,3.42,4.09,0.62,5.21c-5.67,2.26-5.67,7.74-8,11.87c-5.41,9.59-10.01,19.6-16.29,28.76
				c-2.81,4.09-3.91,9.34-7.87,12.87c-2.99,2.67-5.56,5.63-5.74,10.02c-0.04,1.06-0.71,2.59-1.55,3.03
				c-6.03,3.18-9.19,9.13-13.75,13.71c-3.3,3.31-5.91,7.17-8.23,11.1c-3.89,6.57-10.68,9.55-16.45,13.41
				c-5.4,3.61-9.51,8.2-13.81,12.69c-2.03,2.12-3.89,3.81-6.7,4.74c-6.23,2.08-10.42,7.7-17.17,9.51
				c-2.53,0.68-3.74,6.59-5.38,10.19c-3.04,6.64-5.93,13.35-8.95,20.01c-0.52,1.15-1.02,2.88-2.63,2.58
				c-1.98-0.37-1.32-2.34-1.56-3.73C203.73,461.52,205.17,453.73,205.03,445.95z"/>
			<path class="st33" d="M369.91,308.06c2,0.67,4,1.33,6,2c8.73,4.38,8.4,4.23,4.35,13.05c-5.1,11.08-10.08,22.24-15.34,33.22
				c-3.48,7.27-7.03,14.6-11.07,21.65c-7.06,12.31-15.26,23.91-23.56,35.32c-3.77,5.19-8.72,9.86-12.84,15.04
				c-3.4,4.28-6.7,8.67-11.13,12c-0.53,0.4-1.07,0.9-1.28,1.51c-1.99,5.89-6.89,9.19-11.38,12.83c-2.1,1.69-3.96,3.54-5.3,5.9
				c-1.02,1.8-2.46,3.07-4.43,3.83c-2.56,0.98-4.49,2.79-6.02,5.06c-5.04,7.49-12.52,10.66-21.13,11.37
				c-3.94,0.32-7.95,0.23-11.94-0.31c-2.21-0.3-4.61-0.61-6.83,0.39c-3.33,0-6.66,0-9.99,0c-5.43,1.21-10.74,0.57-15.99-1
				c5.5-2.02,11.28-1.35,16.78-0.84c13.49,1.25,22.92-6.01,32.36-13.82c8.93-7.39,17.62-14.93,25.78-23.28
				c6.88-7.04,13.01-14.85,20.5-21.34c2.98-2.58,3.82-6.94,6.89-9.68c7.08-6.31,11.27-14.95,17.58-22
				c5.52-6.17,9.09-14.2,12.97-21.69c2.83-5.45,5.86-10.73,9.13-15.92c4.34-6.89,6.31-14.89,9.78-22.21c2.07-4.36,3.84-9,7.01-12.52
				c3.01-3.36,3.12-5.13-1.03-6.94c-0.72-0.31-1.24-1.07-1.85-1.62C368.58,308.06,369.24,308.06,369.91,308.06z"/>
			<path class="st9" d="M212.02,479.92c5.35,0.05,10.61,1.52,15.99,1c3.75,2.17,8.24-0.17,11.99,2c-8.47,0.53-16.87-0.8-25.3-1.2
				c-2.94-0.14-5.77,2.12-8.67,0.2c1-0.67,2-1.33,3-2C210.02,479.92,211.02,479.92,212.02,479.92z"/>
			<path class="st40" d="M226.04,353.73c0.69-5.4,1.28-10.81,2.09-16.19c2.5-16.58,5.07-33.15,7.69-49.71
				c0.29-1.81,0.07-4.75,2.81-4.41c2.29,0.28,2.32,3.02,2.28,4.97c-0.1,5.01-1.25,9.86-2.44,14.71c-3.46,14.19-6.85,28.4-9.47,42.78
				c-0.5,2.74-1.3,5.42-1.97,8.12C226.7,353.9,226.37,353.81,226.04,353.73z"/>
			<path class="st26" d="M172.05,274.09c-2.82,3.53-0.44,5.77,2,7.99c1.28,6.78-0.15,13.55-0.8,20.19
				c-0.77,7.91-1.01,15.86-1.37,23.73c-0.54,11.88-0.68,23.85-0.29,35.77c0.59,17.88,1.72,35.73,2.98,53.58
				c1.17,16.57,4.16,32.87,6.72,49.23c0.13,0.81,0.24,1.65,0.75,2.35c0.33,1,0.67,2,1,3c-5.02-0.9-7.2-4.24-7.89-9
				c-2.09-14.46-3.72-28.98-5.34-43.5c-3.15-28.18-3.02-56.39-2.67-84.62c0.18-14.43,0.71-28.88,2.67-43.23
				c0.41-2.98,0.41-5.89-1.22-8.7C165.66,275.79,166.14,274.98,172.05,274.09z"/>
			<path class="st35" d="M182.04,466.93c-1.32-1.41-1.72-3.14-2.03-4.99c-3.52-21-5.87-42.08-7.27-63.37
				c-1.6-24.26-1.91-48.5-1.55-72.74c0.21-14.59,1.85-29.17,2.85-43.75c2.19,6.92,0.01,13.81-0.17,20.71
				c-0.2,7.78-0.93,15.54-1.24,23.32c-0.31,7.75-0.57,15.52-0.54,23.27c0.08,22.61,1.92,45.13,3.47,67.68
				C176.72,433.87,180.73,450.21,182.04,466.93z"/>
			<path class="st33" d="M238,480.92c4.99-1.97,10.19-0.75,15.29-0.96c9.59-0.4,17.02-4.53,22.53-12.32
				c0.75-1.07,1.64-2.28,2.76-2.81c8.23-3.95,11.72-13.37,20.02-17.21c0.29-0.13,0.6-0.4,0.71-0.68
				c4.65-11.04,16.38-16.64,21.21-27.55c0.26-0.59,0.71-1.15,1.2-1.57c9.27-8.02,14.72-18.91,21.89-28.52
				c7.42-9.94,11.93-21.3,17.95-31.88c3.52-6.19,7-12.78,8.77-19.94c1.39-5.63,5.53-9.89,7.66-15.32c2.81-7.16,3.65-6.83-2.1-12.1
				c1,0,2,0,3,0c2.12,2.35,6.39,2.2,7.41,5.5c0.98,3.21-2.28,5.31-3.52,7.93c-5.85,12.39-11.18,25.03-16.72,37.55
				c-6.37,14.36-14.94,27.35-23.54,40.16c-8.87,13.21-17.73,26.67-29.1,38.13c-8.6,8.68-16.98,17.6-25.06,26.76
				c-11.56,13.1-25.72,18.21-42.9,15.27C243.02,480.94,240.49,481.05,238,480.92z"/>
		</g>
	</g>
</g>
</svg>
