<?xml version="1.0" encoding="utf-8"?>
<!-- Generator: Adobe Illustrator 24.0.0, SVG Export Plug-In . SVG Version: 6.00 Build 0)  -->
<svg version="1.1" id="Layer_1" xmlns="http://www.w3.org/2000/svg" xmlns:xlink="http://www.w3.org/1999/xlink" x="0px" y="0px"
	 viewBox="0 0 612 792" style="enable-background:new 0 0 612 792;" xml:space="preserve">
<style type="text/css">
	.st0{clip-path:url(#SVGID_2_);}
	.st1{fill:#FEFEFE;}
	.st2{fill:#D9D9D9;}
	.st3{fill:#CECECE;}
	.st4{fill:#BABABA;}
	.st5{fill:#C8C8C8;}
	.st6{fill:#AEAEAE;}
	.st7{fill:#C1C1C1;}
	.st8{fill:#A5A5A5;}
	.st9{fill:#C0C0C0;}
	.st10{fill:#C9C9C9;}
	.st11{fill:#AAAAAA;}
	.st12{fill:#9C9C9C;}
	.st13{fill:#8D8D8D;}
	.st14{fill:#626262;}
	.st15{fill:#717171;}
	.st16{fill:#747474;}
	.st17{fill:#B4B4B4;}
	.st18{fill:#7E7E7E;}
	.st19{fill:#CFCFCF;}
	.st20{fill:#E0E0E0;}
	.st21{fill:#C5C5C5;}
	.st22{fill:#EEEEEE;}
</style>
<g>
	<defs>
		<rect id="SVGID_1_" x="106" y="266" width="288" height="238"/>
	</defs>
	<clipPath id="SVGID_2_">
		<use xlink:href="#SVGID_1_"  style="overflow:visible;"/>
	</clipPath>
	<g class="st0">
		<g>
			<path class="st1" d="M250,503.92c-46.81,0-93.61-0.04-140.42,0.08c-2.98,0.01-3.58-0.6-3.58-3.58c0.1-76.95,0.1-153.89,0-230.84
				c0-2.98,0.6-3.58,3.58-3.58c93.61,0.1,187.23,0.1,280.84,0c2.98,0,3.58,0.6,3.58,3.58c-0.1,76.95-0.1,153.89,0,230.84
				c0,2.98-0.6,3.59-3.58,3.58C343.61,503.88,296.81,503.92,250,503.92z"/>
			<path class="st2" d="M234.04,273.03c13.28-0.41,25.51,4.79,38.23,7.36c8.98,1.82,18.02,3.57,26.7,6.68
				c8.29,3.41,17.15,4.73,25.74,7.07c13.63,3.71,27.27,7.33,40.45,12.47c1.71,0.67,3.43,1.28,5,2.24c4.16,2.56,4.56,4.71,1.18,8.22
				c-2.16,2.24-3.5,4.93-4.56,7.66c-2.87,7.43-7.48,14.09-9.62,21.81c-1.15,4.16-4.49,6.96-6.3,10.68
				c-4.86,9.99-11.33,19.1-15.98,29.21c-0.71,1.53-1.75,2.86-3.01,3.94c-3.29,2.81-6.23,5.87-8.04,9.88
				c-3.82,0.07-5.97,2.74-7.85,5.44c-7.51,10.81-15.83,21.06-25.59,29.76c-7.57,6.75-13.49,15.09-21.59,21.21
				c-0.92,0.7-1.63,1.72-2.63,2.28c-9.26,5.16-16.33,13.45-25.99,18.09c-3.1,1.49-6.2,2.24-9.58,2.3
				c-7.47,0.15-14.93-0.23-22.4,0.77c-6.55,0.87-9.73-2.23-9.44-8.97c0.44-10.12,2-20.15,3.3-30.18c2.64-20.4,5.48-40.78,8.49-61.13
				c3.79-25.63,7.67-51.24,11.53-76.86c0.99-6.57,2.44-13.08,2.66-19.76c0.18-5.54,3.95-8.09,8.54-9.88
				C233.52,273.21,233.78,273.12,234.04,273.03z"/>
			<path class="st3" d="M323.96,399.99c-0.17-3.21,0.75-5.69,3.74-7.5c5.75-3.47,7.13-10.13,10.6-15.28
				c5.86-8.72,9.27-18.88,15.97-27.11c1.44-1.77,1.33-4.07,2.2-6c3.76-8.37,7.61-16.7,11.5-25.01c0.48-1.02,1.34-1.89,2.16-2.69
				c3.56-3.5,3.52-4.7-1.29-6.82c-11.07-4.9-22.69-8.24-34.32-11.5c-11.59-3.25-23.2-6.44-34.8-9.68c-0.54-0.15-1.43-0.36-0.76-1.32
				c15.38,3.52,30.87,6.61,46.02,11.08c11.4,3.54,23.19,5.56,34.66,8.86c1.12,0.32,2.25,0.58,3.35,0.97
				c7.1,2.57,9.29,6.28,7.88,13.69c-1.61,8.49-3.22,16.98-4.83,25.47c-4.12,21.73-9.36,43.22-14.01,64.84
				c-0.56,2.62-1.43,5.18-2.86,7.43c-7.19,11.32-13.52,23.21-23.2,32.87c-3.81,3.8-6.72,8.59-10.22,12.81
				c-4.99,6.02-10.94,11.19-15.52,17.57c-1.39,1.93-3.3,3.31-5.82,3.5c-12.76,0.94-25.53,2.16-38.31,0.25
				c-0.99-0.15-2-0.16-2.99-0.11c-12.83,0.63-25.58-1.22-38.39-1.12c-8-1.53-16.1-0.74-24.15-1.12c-3.31,1.16-6.64,2.36-8.77-1.89
				c6.67-3.35,13.83-2.74,20.88-2.27c19.42,1.3,38.85,2.07,58.31,1.65c2.94-0.06,5.45-1.24,7.78-3c7.86-5.93,14.55-13.06,21.29-20.2
				c6.7-7.11,12.33-15.1,19.05-22.21c3.79-4.01,7.22-8.56,9.72-13.72c1.4-2.9,0.77-4.53-1.27-6.48c-3.73-3.56-7.37-7.22-10.94-10.95
				C325.3,403.61,323.42,402.41,323.96,399.99z"/>
			<path class="st4" d="M164.07,270.2c7.3,0.33,14.61,0.66,21.91,0.99c0.04,2.85-2.24,2.8-4.11,3.34c-6.28,1.79-6.26,1.93-4.32,7.97
				c2.06,6.43-0.08,12.88-0.47,19.28c-0.58,9.46-0.76,18.9-0.78,28.36c-0.01,5.15-0.82,10.24-0.88,15.41
				c-0.26,22.79,1.43,45.5,3.37,68.15c1.27,14.84,3.22,29.66,6.05,44.37c1.2,6.24,2.59,11.49,7.89,15.18
				c0.57,0.53,1.08,1.13,1.52,1.78c1.02,2.17,3,3.67,4.1,5.8c0.06,0.5-0.04,0.95-0.32,1.37c-0.65,0.45-1.37,0.56-2.14,0.47
				c-1.05-0.21-1.9-0.77-2.65-1.53c-0.74-0.79-1.31-1.7-1.79-2.67c-1.29-1.65-3.2-2.35-4.96-3.26c-4.13-2.14-8.26-4.3-12.46-6.29
				c-8.55-4.05-11.87-10.56-12.78-20.08c-1.59-16.53-2.71-33.1-4.45-49.61c-0.21-1.99-0.22-3.98-0.21-5.98
				c0.17-19.75-0.91-39.51,0.05-59.25c0.67-13.76,1.26-27.53,2.58-41.25c0.46-4.75,1.4-9.52-1.29-14.1
				c-1.37-2.34,0.33-4.11,2.28-5.33c2.49-1.55,5.29-1.78,8.03-1.71C167.06,270.85,164.73,272.92,164.07,270.2z"/>
			<path class="st5" d="M198.02,480.94c-1.85-1.25-3.74-2.47-3.99-5c-2.91-4.83-0.79-9.88-0.09-14.61
				c2.23-15.14,1.56-30.07-0.46-45.18c-2.38-17.76-3.76-35.65-4.44-53.6c-0.54-14.3-0.25-28.59-0.49-42.88
				c-0.17-9.97,1.35-19.89,1.18-29.88c-0.05-3.06-0.17-5.81-1.76-8.58c-2.23-3.91-1.16-6.17,3.29-7.27
				c3.38-0.84,6.78-1.62,10.25-2.05c0.88-0.3,1.76-0.45,2.6,0.14c3.96,0.04,7.91,0.09,11.87,0.13c-0.36,3.88-3.78,3.72-6.27,4.49
				c-3.29,1.02-4.52,2.38-2.39,5.65c2.18,3.36,2.21,7.18,2,11.07c-1.28,22.89-1.35,45.79,0.02,68.69
				c0.81,13.48-0.59,26.82-2.39,40.15c-2.21,16.41-4.89,32.75-6.65,49.21c-0.04,0.55-0.15,1.1-0.29,1.64
				c-1.24,5.98-2.28,11.99-2.59,18.1c-0.1,1.95-0.31,4.01,1.11,5.7c0.84,1.27,2.12,2.38,1.63,4.17
				C199.41,481.5,198.7,481.53,198.02,480.94z"/>
			<path class="st6" d="M164.07,270.2c2.33,1.87,5.2,0.22,7.78,1.56c-3.7-0.1-7.13,0.77-10.41,2.31c-2.68,1.26-4.38,2.51-1.54,5.42
				c3.83,3.92,1.32,8.82,0.77,12.82c-0.86,6.26-0.93,12.59-1.3,18.79c-0.61,10.41-1.6,20.83-1.41,31.32
				c0.32,17.65-0.62,35.34,0.29,52.94c0.88,16.97,1.59,34.02,4.65,50.82c0.56,3.09,0.29,6.24,0.7,9.39
				c0.65,4.99,3.56,7.69,7.43,9.82c5.96,3.29,12.04,6.37,18.06,9.57c1.7,0.91,3.92,1.36,3.93,3.96c-3.07,0.96-5.23-0.81-7.44-2.46
				c-7.56-3.82-15.21-7.42-22.81-11.15c-1.94-0.95-3.8-2.07-5.72-3.03c-6.83-3.42-9.19-8.76-9.72-16.45
				c-0.92-13.41-1.89-26.83-2.96-40.24c-0.98-12.27-0.91-24.57-0.64-36.87c0.17-7.79,0.59-15.57,0.81-23.35
				c0.54-18.93,1.64-37.82,3.75-56.64c0.32-2.86,0.22-5.58-0.85-8.32c-2.07-5.32-0.07-8.48,5.71-9.25c2.28-0.3,4.69,0.32,6.84-0.95
				C161.36,270.22,162.72,270.21,164.07,270.2z"/>
			<path class="st7" d="M201.99,272.14c-3.15,2.03-6.8,2.33-10.35,3.02c-4.43,0.85-5.11,2.45-2.05,5.84c2.51,2.79,1.5,5.64,1.6,8.74
				c0.32,10.16-1.28,20.22-1.18,30.35c0.11,11.32-0.32,22.66,0.11,33.97c0.64,17.11,1.89,34.18,3.61,51.24
				c1.32,13.15,4.17,26.17,3.42,39.56c-0.59,10.42-3.21,20.61-3.11,31.08c-0.33-0.33-0.67-0.67-1-1c-1.09-1.66-2.47-3.23-2.36-5.39
				c0.59-11.11-3.13-21.69-4.09-32.61c-1.3-14.73-4.1-29.28-4.92-44.08c-0.93-16.77-2.49-33.53-2.01-50.33
				c0.48-16.6,0.16-33.23,1.77-49.79c0.42-4.32,0.34-8.6-1.89-12.63c-1.68-3.04-0.35-5.15,2.9-5.95c2.15-0.53,4.15-1.2,5.62-2.97
				c1.64,0.28,3.27,0.56,4.91,0.84C195.98,271.4,199,271.24,201.99,272.14z"/>
			<path class="st8" d="M134.24,307.13c1.34-8.29,2.51-16.62,4.11-24.86c0.57-2.93,0.75-6.32,3.69-8.32
				c3.31,3.53,4.11,7.85,3.76,12.46c-0.94,12.24-3.11,24.37-3.52,36.65c-0.38,11.27-0.78,22.54-1.22,33.8
				c-0.34,8.64-0.59,17.27-0.47,25.9c0.26,18.76,0.66,37.51,2.78,56.17c0.04,0.33,0.11,0.67,0.08,0.99
				c-0.69,6.59,0.73,12.46,5.81,17.08c-0.94,2.77-2.86,1.34-4.22,0.73c-3.56-1.59-7.15-3.15-10.32-5.49
				c-2.8-2.22-3.88-5.19-4.19-8.69c-1.14-12.91-2.08-25.82-2.02-38.8c0.06-11.46,0.12-22.92-0.02-34.38
				c-0.22-18.67,1.98-37.07,5.09-55.42C134.02,312.4,134.98,309.82,134.24,307.13z"/>
			<path class="st9" d="M188.06,271.19c0.46,3.74-2.98,2.94-4.66,3.49c-3.68,1.22-4.66,2.73-2.09,5.9
				c3.21,3.97,2.12,8.82,1.45,12.96c-0.75,4.63-0.36,9.18-0.58,13.72c-0.71,14.75-1.25,29.54-1.02,44.3
				c0.24,14.87,1.55,29.73,2.4,44.59c0.87,15.12,3.13,30.06,4.98,44.97c1.39,11.23,2.9,22.54,4.48,33.8
				c-5.8-3.77-8.53-8.36-9.54-15.97c-1.42-10.7-3.14-21.5-4.91-32.22c-1.41-8.53-1.92-17.23-2.48-25.87
				c-0.58-8.93-0.13-17.97-1.22-26.82c-1.21-9.81-1.09-19.61-0.7-29.36c0.75-18.61,0-37.3,2.8-55.81c0.48-3.21-0.1-6.21-2.32-8.88
				c-2.09-2.52-1.58-4.02,1.82-5.36c3.14-1.24,7.11-0.28,9.51-3.44C186.68,271.19,187.37,271.19,188.06,271.19z"/>
			<path class="st10" d="M235.01,483.93c13.29-0.25,26.59,0.63,39.82,1.32c12.98,0.68,25.82,0.42,38.73-0.26
				c2.42-0.13,3.89-1.09,5.42-2.86c6.91-7.99,14.66-15.34,20.81-23.87c5.41-7.5,12.31-13.68,17.43-21.3
				c8.8-13.09,14.8-27.27,17.68-42.98c4.51-24.55,9.96-48.92,14.87-73.39c1.27-6.32-0.84-9.69-6.98-11.39
				c-11.33-3.14-22.73-6.07-34.12-8.99c-1.48-0.38-2.98-0.42-3.7-2.05c10.17,1.18,19.93,4.24,29.88,6.44
				c4.35,0.96,8.73,1.81,12.61,4.22c3.12,1.93,5.15,4.51,5.38,8.29c-2.14,15.91-5.55,31.61-8.01,47.47
				c-0.15,0.99-0.47,1.93-0.87,2.84c-3.91,13.73-5.77,27.88-8.7,41.82c-1.12,5.35-2.26,10.69-3.92,15.91
				c-2.2,3.83-2.9,8.16-3.66,12.37c-1.23,6.79-4.47,12.43-8.57,17.75c-5.58,7.23-10.28,15.12-16.45,21.91
				c-2.02,2.22-4.03,4.42-6.24,6.45c-3.44,3.17-7.26,5.21-12.15,4.63c-1.99-0.24-3.98,0.07-5.87,0.86
				c-6.21,0.58-12.41,0.41-18.61-0.18c-4.6-1.14-9.27-0.47-13.92-0.51c-3.89-0.1-7.79,0.25-11.66-0.39
				c-3.77-1.19-7.64-0.57-11.47-0.66c-9.15-0.02-18.33,0.53-27.32-1.85C234.86,485.11,234.71,484.58,235.01,483.93z"/>
			<path class="st11" d="M149.05,457.95c-6.55-3.94-6.79-10.03-7.28-17c-0.83-11.7-2.07-23.44-2.3-35.12
				c-0.31-15.5-1.1-31.03,0.08-46.6c0.48-6.29,0.46-12.8,0.66-19.19c0.47-15.11,0.67-30.25,3.6-45.21
				c1.36-6.93,0.94-14.1-1.77-20.88c5.05-5.78,11.74-3.67,17.97-3.73c-1.3,2.52-3.7,1.65-5.76,1.88c-6.11,0.71-7.48,3.01-4.97,8.44
				c1.26,2.72,1.12,5.63,0.56,8.32c-2.01,9.6-1.62,19.4-2.67,29.08c-1.39,12.82-1.4,25.77-1.81,38.65
				c-0.33,10.34-0.46,20.76-0.34,31.16c0.16,13.32,1.89,26.51,2.15,39.82c0.16,8.07,1.97,16.05,2.12,24.18
				c0.05,2.77,1.83,4.95,4.46,6.73c8.84,5.97,18.77,9.72,28.18,14.54c1.75,0.9,3.77,1.32,5.1,2.94c-0.78,0.81-1.77,1.08-2.85,1.08
				c-3.67-0.36-6.73-2.16-9.76-4.06c-6.64-4.36-14.06-7.25-21-11.03C151.68,461,149.14,460.77,149.05,457.95z"/>
			<path class="st12" d="M134.24,307.13c2.36,3.93,0.29,7.92-0.48,11.56c-1.63,7.77-1.59,15.66-2.69,23.44
				c-2.13,15-1.41,30.18-1.44,45.19c-0.04,19.31,0.1,38.75,2.4,58.04c0.35,2.96,2.32,4.63,4.04,6.59c-1.86,1.65-3.82,0.39-5.75,0.22
				c-2.26-0.59-4.25-1.8-6.34-2.79c-6.04-2.88-8.72-7.45-8.42-14.29c0.37-8.4-0.15-16.85,1.84-25.13c0.31-1.3,0.38-2.61-0.14-3.89
				C122.91,373.09,128.57,340.11,134.24,307.13z"/>
			<path class="st3" d="M199.03,452.95c0.02-9.81,2.35-19.34,3.54-29.01c1.38-11.31,3.4-22.55,4.37-33.89
				c2.45-28.53-1.19-57.1,0.08-85.65c0.16-3.63,0.09-7.23,0.78-10.89c0.83-4.41,0.54-8.96-3.23-12.46c-2.76-2.56-1.1-3.8,1.53-4.93
				c3.26-1.4,7.41-0.62,9.88-3.97c1.33,0.29,2.66,0.58,3.98,0.87c2.01-0.75,4.04-0.56,6.07-0.15c-0.23,3.52-3.28,3.18-5.46,3.87
				c-4.81,1.51-5.04,1.77-2.68,5.95c1.3,2.29,1.57,4.71,1.61,7.21c0.34,18.82-1.26,37.52-3.75,56.14
				c-2.08,15.56-4.46,31.08-6.72,46.62c-2.34,16.02-4.33,32.08-6.82,48.08c-0.51,3.26-0.69,6.6-1.23,9.87
				C200.79,451.78,200.69,453.04,199.03,452.95z"/>
			<path class="st13" d="M117.25,406.07c1.8,2.87,0.08,5.69,0,8.55c-0.26,8.42-0.23,16.85-0.09,25.27c0.05,3.03,2.05,4.99,4.64,6.55
				c2.97,1.79,5.85,3.69,9.27,4.52c14.71,6.89,29.05,14.54,43.96,21.01c2.85,1.67,5.66,3.44,9.01,3.98
				c3.28,1.78,6.93,2.82,10.03,4.97c0.65,0.35,1.29,0.7,1.94,1.05c0.79,0.58,1.82,1.08,0.83,2.3c-0.71,0.36-1.44,0.38-2.17,0.09
				c-21.46-9.19-43.17-17.8-63.94-28.53c-6.02-4.45-12.83-7.49-19.47-10.84c-0.69-8.18,2.15-15.91,3.18-23.86
				C115.08,416.06,116.29,411.08,117.25,406.07z"/>
			<path class="st11" d="M373.98,428.08c-2.14,12.56-4.24,25.13-6.44,37.69c-1.45,8.31-2.97,16.62-4.59,24.9
				c-0.47,2.39-0.95,4.94-3.46,6.27c-4.48,2.82-9.45,2.77-14.42,2.32c-18.59-1.71-37.22-2.98-55.83-4.42
				c-11.54-1.3-23.12-2.07-34.7-2.88c-4.47-0.31-8.86-1.44-13.38-1.13c-1.03,0.07-1.95-0.37-2.35-1.47
				c3.88-3.4,8.47-1.21,12.73-1.65c0.56,0.05,1.12,0.17,1.67,0.32c3.99,1.21,8.15,0.15,12.18,0.82c0.56,0.07,1.11,0.19,1.65,0.34
				c8.89,0.27,17.72,1.53,26.63,1.48c0.59,0.04,1.17,0.16,1.74,0.32c5.51,1.36,11.21,0.86,16.77,1.24
				c13.02,0.89,26.03,2.26,39.1,2.3c2.11,0.01,4.37,0.43,6.04-1.46c2.5-3.12,3.26-6.91,3.92-10.66c2.99-17.19,6.5-34.29,9.42-51.5
				c0.31-1.81,0.68-3.61,2.09-4.96C374.69,425.78,374.55,426.81,373.98,428.08z"/>
			<path class="st14" d="M131.07,454.94c20.2,9.01,40.41,18.01,60.6,27.03c1.19,0.53,2.28,1.27,3.42,1.91
				c0.14,1.08-0.13,1.71-1.38,1.24c-22.9-9.23-45.79-18.48-68.69-27.69c-4.45-1.79-9.15-3.15-11.88-7.61
				c-1.31-2.79,0.93-2.22,2.21-2.15c2.74,0.15,5.04,1.62,7.31,2.97C125.38,452.25,128.3,453.44,131.07,454.94z"/>
			<path class="st15" d="M289.08,493.88c18.4,0.69,36.73,2.41,55.07,3.83c5.14,0.4,10.29,0.61,15.35-0.77
				c-3.27,3.8-7.63,4.35-12.23,3.96c-23.08-2-46.17-4.05-69.25-6.07C281.5,492.11,285.35,493.7,289.08,493.88z"/>
			<path class="st16" d="M289.08,493.88c-3.66,0.57-7.51-1.02-11.06,0.94c-18.07-1.43-36.14-2.86-54.21-4.31
				c-5.47-0.44-10.93-1.14-16.41-1.38c-4.95-0.21-9.45-1.56-13.69-4.01c0.46-0.41,0.92-0.82,1.38-1.24
				c0.65,0.01,1.31,0.01,1.96,0.02c12.64,2.47,25.47,2.85,38.26,3.7c1.34,0.09,2.65,0.22,3.59,1.37c5.06,1.89,10.45,1.15,15.66,1.75
				c10.7,1.23,21.5,1.55,32.25,2.3C287.58,493.08,288.32,493.58,289.08,493.88z"/>
			<path class="st17" d="M373.98,428.08c-0.09-0.83-0.22-1.64-1.05-2.1c-2.12-4.37,0.49-8.39,1.2-12.44
				c2.74-15.54,5.74-31.03,8.8-46.52c2.69-8.11,3.19-16.66,5-24.95c1.82-8.29,2.21-16.86,4.93-24.97
				c0.36,12.24-3.28,23.92-5.2,35.82c-3.96,24.51-8.53,48.93-12.88,73.38C374.68,426.92,374.26,427.49,373.98,428.08z"/>
			<path class="st18" d="M131.07,454.94c-4.47-0.22-7.74-3.35-11.7-4.81c-2.01-0.74-4.04-2.77-6.24-0.3
				c-1.37-1.33-1.9-2.98-1.9-4.85C118.99,446.03,124.97,450.61,131.07,454.94z"/>
			<path class="st2" d="M226,273.1c-2.01-0.02-4.03-0.04-6.04-0.06c4.69-1.59,9.38-1.44,14.08,0c0,0-0.07,0.08-0.07,0.08
				C231.31,274.45,228.65,275.26,226,273.1z"/>
			<path class="st19" d="M201.99,272.14c-3.01-0.03-6.02-0.07-9.03-0.1c3.71-1.6,7.43-1.38,11.14,0
				C203.4,272.07,202.7,272.1,201.99,272.14z"/>
			<path class="st20" d="M214.02,412.7c0.68-13.7,2.23-27.32,3.72-40.95c2.04-18.56,5.19-36.95,7.37-55.48
				c1.29-10.98,3.15-21.9,5.05-32.79c0.85-4.84,4.4-9.42,11.7-7.37c20.25,5.7,40.75,10.59,60.41,18.24c1.7,0.66,4.47,0.89,4.36,3.37
				c-0.09,2.05-2.59,2.48-4.21,2.96c-2.6,0.77-4.11,2.09-5.23,4.66c-2.89,6.61-7.55,12.17-10.16,19.18
				c-1.71,4.6-6.5,8.76-10.05,13.01c-0.53,0.64-1.56,1.3-1.52,1.9c0.22,3.81-2.37,5.55-4.85,7.72c-6.13,5.37-8.76,13.87-16.68,17.94
				c-2.82,1.45-3.02,6.69-8.16,6.59c-1.31-0.03-0.85,4.72-3.65,5.83c-3.92,1.56-9.14,1.77-8.35,8.15
				c-10.65,7.73-9.84,20.86-14.71,31.31c-0.33,0.72-0.02,1.8-0.45,2.4c-1.02,1.44-1.55,4.2-3.34,3.94
				c-2.41-0.36-1.02-3.01-1.21-4.64C213.84,416.71,214.02,414.69,214.02,412.7z"/>
			<path class="st19" d="M226,273.1c2.66,0,5.31,0.01,7.97,0.01c-11.01,5.65-8.04,16.84-9.77,25.87
				c-3.11,16.19-5.17,32.58-7.62,48.89c-2.22,14.84-4.4,29.7-6.55,44.55c-1.94,13.38-3.93,26.76-5.69,40.17
				c-1.29,9.82-2.32,19.67-3.26,29.53c-0.33,3.45-1.31,6.79-1.13,10.35c0.22,4.3,2.03,6.95,6.35,6.37
				c9.27-1.25,18.78,0.42,27.76-1.32c7.14-1.38,14.25-5.13,19.08-11.39c1.39-1.8,3.08-2.51,4.94-3.56
				c8.25-4.67,15.72-10.68,21.05-18.47c3.35-4.91,8.76-6.83,12.43-11.17c2.97-3.5,6.01-7.04,9.11-10.48
				c5.69-6.32,11.21-12.74,15.86-19.93c1.11-1.72,3.85-5.04,7.43-2.54c5.08,5.24,10.1,10.55,15.27,15.71
				c2.21,2.2,3.18,3.22,1.06,7.04c-3.91,7.04-9.02,12.87-14.14,18.81c-8.4,9.75-16.73,19.57-25.48,29.02
				c-3.56,3.84-8.4,6.39-12.29,10.02c-1.49,1.38-3.63,2.34-5.92,2.34c-11.31-0.01-22.71,0.87-33.89-0.29
				c-9.25-0.96-18.53,0.22-27.73-1.57c-6.19-1.21-12.52,0.58-18.8,0.87c-1.09,0.51-1.61-0.11-2-1c-0.67-1-1.34-2-2-2.99
				c-2.19-2.55-1.81-5.71-1.37-8.52c0.85-5.48,1.43-11,2.37-16.47c0,0,0,0,0,0c2.25-7.92,2.66-16.15,3.95-24.23
				c2-12.53,3.76-25.1,5.5-37.67c1.92-13.88,3.45-27.81,5.61-41.65c2.08-13.24,2.52-26.6,3.71-39.9c0.69-7.72,0.17-15.55,0.19-23.34
				c0.01-2.1-1.54-3.27-2.88-4.45c-2.99-2.63-1.65-3.92,1.2-5.32C219.43,274.87,223.39,275.97,226,273.1z"/>
			<path class="st21" d="M200.03,480.93c0.67,0.33,1.33,0.67,2,1c2.39,2.5,5.1,2.49,7.99,1c8.31,0.89,16.78-0.14,24.99,2
				c9.31,0.78,18.63,1.28,27.98,1c3.57,1.4,7.42-0.35,10.99,1c4,0,8,0,11.99,0c4.59,1.43,9.4-0.38,13.99,1c6.33,0,12.66,0,18.99,0
				c5.87-0.86,11.83-0.59,17.73-1.31c4.05-0.49,7.29-1.79,9.82-5.05c2.94-3.78,5.39-7.96,9.32-10.94c1.59-1.21,2.42-3.19,2.93-5.13
				c3.59-13.55,8.8-26.65,11.17-40.53c3.48-10.12,4.75-20.75,6.97-31.15c1.92-8.96,2.94-18.11,6.04-26.8
				c-0.6,10.92-3.56,21.46-5.26,32.2c-1.42,8.95-3.15,17.84-4.74,26.76c-3.65,19.86-7.32,39.72-10.95,59.58
				c-0.54,2.96-1.62,5.7-3.06,8.32c-3.05,2.55-6.7,1.62-10.07,1.42c-11.55-0.69-23.13-1.2-34.66-2.06
				c-6.41-0.48-12.85-0.51-19.24-1.34l-0.48,0l-0.48,0.02c-7.39-0.49-14.72-1.68-22.16-1.54c-1.94,0.04-3.97,0.53-5.85-0.46
				l0.01,0.01c-4.25-1.44-8.75,0.43-13-1l0.01,0.01c-4.7-1.23-9.57-0.73-14.29-0.81c-11.44-0.2-22.75-1.82-34.15-2.27
				c-2.67-0.1-5.85-0.12-6.55-3.89c0-0.34,0.01-0.68,0.01-1.01C198.69,480.94,199.36,480.93,200.03,480.93z"/>
			<path class="st5" d="M235.01,484.93c-8.36-0.32-16.7-0.85-24.99-2c2.96-2.45,5.88,0.36,8.9,0.17c5.33-0.33,10.81-0.92,16.08,0.83
				C235.01,484.26,235.01,484.6,235.01,484.93z"/>
			<path class="st11" d="M198.01,481.95c1.07,1.94,2.91,2.76,4.93,2.9c10.86,0.75,21.74,1.2,32.58,2.17
				c5.83,0.52,11.78,0.22,17.49,1.91c-4.7,0.02-9.4,0.03-14.1,0.05c-11.76,0.3-23.38-1.78-35.1-2.21c-2.5-0.09-4.74-1.34-6.76-2.86
				c-0.35-0.65-0.7-1.3-1.05-1.95C196.67,481.96,197.34,481.95,198.01,481.95z"/>
			<path class="st12" d="M194.06,480.91c-3.71-0.92-7.28-2.11-10.03-4.97c1,0.01,1.99,0.01,2.99,0.02c1.51,1.98,4.1,1.78,6.01,2.98
				C193.37,479.59,193.72,480.25,194.06,480.91z"/>
			<path class="st3" d="M199.03,452.95c0.32,5.16-0.7,10.2-1.64,15.21c-0.63,3.38-0.3,6.56,0.64,9.77c-2.09-0.94-2.04-2.8-2-4.66
				C196.17,466.37,196.97,459.57,199.03,452.95z"/>
			<path class="st12" d="M175.02,471.96c-5.62-0.5-10.04-4.04-15.06-6.06c-10.07-4.05-19.83-8.88-28.91-14.95
				c1.67,0.33,3.33,0.66,5,1c4.38,1.89,8.32,4.74,12.99,6c6.61,4.38,14.04,7.2,20.95,10.98
				C171.72,469.87,173.75,470.3,175.02,471.96z"/>
			<path class="st5" d="M369.93,424.97c-0.92,9.77-3.77,19.12-6.33,28.52c-1.17,4.31-2.36,8.63-3.68,12.9
				c-0.95,3.07-2.53,5.71-5.52,7.36c-3.17,1.76-4.17,5.39-6.21,8.08c-3.24,4.27-6.98,6.29-12.25,6.13
				c-5.66-0.17-11.32-0.04-16.98-0.04c1.3-1.53,3.13-1.17,4.66-0.94c5.75,0.88,9.76-2.01,13.52-5.73
				c7.55-7.48,12.9-16.73,19.7-24.76c7.21-8.51,9.45-18.67,12-28.89C369.07,426.66,368.96,425.61,369.93,424.97z"/>
			<path class="st5" d="M299.97,487.93c-4.65-0.5-9.45,1.11-13.99-1C290.63,487.43,295.43,485.82,299.97,487.93z"/>
			<path class="st5" d="M273.99,486.93c-3.65-0.52-7.49,1.13-10.99-1C266.64,486.45,270.49,484.79,273.99,486.93z"/>
			<path class="st11" d="M294.96,491.9c4.82,0.04,9.75-0.54,14.44,0.25c8.15,1.38,16.38,0.4,24.53,1.64
				c5.33,0.81,10.84-0.28,16.24,1c2.88,0.68,5.91,0.11,8.76-0.92c-0.89,2.13-2.74,2.06-4.6,2.05c-15.32-0.11-30.57-1.3-45.79-2.94
				C304.02,492.5,299.33,494.2,294.96,491.9z"/>
			<path class="st11" d="M265.99,489.91c8.63-0.4,17.22,0.47,25.81,1.07c0.75,0.05,1.46,0.61,2.2,0.94
				c-8.61-0.33-17.22-0.65-25.83-1.04C267.43,490.84,266.72,490.24,265.99,489.91z"/>
			<path class="st11" d="M253,488.91c4.32,0.51,8.81-1.15,13,1C261.69,489.36,257.19,491.13,253,488.91z"/>
			<path class="st22" d="M226.33,351.52c2.07-15.02,3.99-29.39,6.07-43.74c1.06-7.34,2.43-14.63,3.63-21.95
				c0.23-1.42,0.85-2.85,2.22-2.98c1.97-0.19,2.19,1.86,2.51,3.15c0.99,3.99-0.02,7.96-0.92,11.8c-3.84,16.42-8.08,32.75-11.1,49.36
				C228.48,348.55,228.43,350.52,226.33,351.52z"/>
		</g>
	</g>
</g>
</svg>
