<svg id="Capa_1" enable-background="new 0 0 512 512" height="512" viewBox="0 0 512 512" width="512" xmlns="http://www.w3.org/2000/svg"><g><path d="m250.617 168.903c1.671 1.104 3.59 1.655 5.51 1.655 1.919 0 3.839-.552 5.51-1.655 8.533-5.634 51.609-34.511 61.661-49.796 4.275-6.504 9.868-16.827 9.092-31.318-1.286-24.014-20.701-42.825-44.2-42.825-13.649 0-24.903 8.003-32.047 14.87-7.062-6.87-18.274-14.87-32.207-14.87-23.498 0-42.912 18.811-44.198 42.827-.775 14.523 4.822 24.834 9.101 31.327 9.989 15.157 53.215 44.131 61.778 49.785zm-50.909-80.045c.706-13.175 11.574-23.895 24.228-23.895 10.883 0 20.885 11.284 23.799 15.601 1.826 2.751 4.893 4.424 8.196 4.469 3.271.006 6.414-1.544 8.313-4.244 2.89-4.105 13.489-15.825 23.945-15.825 12.654 0 23.523 10.719 24.229 23.895.36 6.732-1.385 12.494-5.833 19.262-5.474 8.323-31.843 27.769-50.46 40.403-18.686-12.673-45.149-32.156-50.588-40.41-4.445-6.75-6.188-12.509-5.829-19.256z"/><path d="m376.985 0h-241.97c-22.06 0-40.006 17.947-40.006 40.006v431.987c0 22.059 17.946 40.006 40.006 40.006h241.971c22.059 0 40.006-17.947 40.006-40.006v-431.987c-.001-22.059-17.947-40.006-40.007-40.006zm20.006 471.994c0 11.032-8.975 20.006-20.006 20.006h-241.97c-11.031 0-20.006-8.975-20.006-20.006v-431.988c0-11.032 8.975-20.006 20.006-20.006h241.971c11.031 0 20.006 8.975 20.006 20.006v431.988z"/><path d="m256.064 212.184c-65.487 0-118.766 53.278-118.766 118.766s53.278 118.766 118.766 118.766 118.767-53.278 118.767-118.766-53.279-118.766-118.767-118.766zm0 217.531c-54.46 0-98.766-44.306-98.766-98.766s44.306-98.766 98.766-98.766 98.767 44.306 98.767 98.766c-.001 54.46-44.308 98.766-98.767 98.766z"/><path d="m256.064 277.375c-29.541 0-53.574 24.034-53.574 53.575s24.033 53.574 53.574 53.574 53.575-24.033 53.575-53.574-24.035-53.575-53.575-53.575zm0 87.149c-18.513 0-33.574-15.061-33.574-33.574s15.061-33.575 33.574-33.575c18.514 0 33.575 15.061 33.575 33.575 0 18.512-15.062 33.574-33.575 33.574z"/><path d="m484.19 320.95h-11.396c-5.522 0-10 4.477-10 10s4.478 10 10 10h11.396c5.522 0 10-4.477 10-10s-4.477-10-10-10z"/><path d="m451.654 289.951c2.558 0 5.116-.976 7.068-2.926l8.059-8.052c3.906-3.904 3.909-10.235.006-14.142-3.904-3.908-10.236-3.909-14.143-.005l-8.059 8.052c-3.906 3.904-3.909 10.235-.006 14.142 1.954 1.954 4.515 2.931 7.075 2.931z"/><path d="m458.723 374.875c-3.905-3.903-10.238-3.901-14.142.005-3.904 3.907-3.902 10.238.005 14.142l8.059 8.053c1.952 1.951 4.51 2.926 7.068 2.926 2.561 0 5.121-.978 7.073-2.932 3.904-3.907 3.902-10.238-.005-14.142z"/><path d="m49.206 330.95c0-5.523-4.478-10-10-10h-11.396c-5.523 0-10 4.477-10 10s4.477 10 10 10h11.396c5.523 0 10-4.477 10-10z"/><path d="m53.277 374.875-8.059 8.053c-3.907 3.904-3.909 10.235-.005 14.142 1.952 1.955 4.513 2.932 7.073 2.932 2.558 0 5.116-.976 7.068-2.926l8.059-8.053c3.907-3.904 3.909-10.235.005-14.142-3.901-3.909-10.234-3.91-14.141-.006z"/><path d="m53.277 287.024c1.952 1.951 4.511 2.926 7.068 2.926 2.561 0 5.121-.978 7.074-2.932 3.903-3.907 3.9-10.238-.006-14.142l-8.059-8.052c-3.907-3.905-10.239-3.901-14.143.005-3.903 3.907-3.9 10.238.006 14.142z"/></g></svg>