<?xml version="1.0" encoding="utf-8"?>
<!-- Generator: Adobe Illustrator 24.0.0, SVG Export Plug-In . SVG Version: 6.00 Build 0)  -->
<svg version="1.1" id="Layer_1" xmlns="http://www.w3.org/2000/svg" xmlns:xlink="http://www.w3.org/1999/xlink" x="0px" y="0px"
	 viewBox="0 0 512 512" style="enable-background:new 0 0 512 512;" xml:space="preserve">
<style type="text/css">
	.st0{fill:#B41917;}
</style>
<g>
	<path class="st0" d="M424,64h-88V48c0-26.5-21.5-48-48-48h-64c-26.5,0-48,21.5-48,48v16H88c-22.1,0-40,17.9-40,40v32
		c0,8.8,7.2,16,16,16h384c8.8,0,16-7.2,16-16v-32C464,81.9,446.1,64,424,64z M208,48c0-8.8,7.2-16,16-16h64c8.8,0,16,7.2,16,16v16
		h-96V48z"/>
	<path class="st0" d="M78.4,184c-2.9,0-5.1,2.4-5,5.2l13.2,277c1.2,25.6,22.3,45.7,47.9,45.7h243c25.7,0,46.7-20.1,47.9-45.7
		l13.2-277c0.1-2.9-2.1-5.2-5-5.2L78.4,184L78.4,184z M320,224c0-8.8,7.2-16,16-16s16,7.2,16,16v208c0,8.8-7.2,16-16,16
		s-16-7.2-16-16V224z M240,224c0-8.8,7.2-16,16-16c8.8,0,16,7.2,16,16v208c0,8.8-7.2,16-16,16s-16-7.2-16-16V224z M160,224
		c0-8.8,7.2-16,16-16s16,7.2,16,16v208c0,8.8-7.2,16-16,16s-16-7.2-16-16V224z"/>
</g>
</svg>
